<?xml version="1.0" encoding="UTF-8"?>
<svg id="Capa_1" data-name="Capa 1" xmlns="http://www.w3.org/2000/svg" xmlns:xlink="http://www.w3.org/1999/xlink" viewBox="0 0 76 69">
  <defs>
    <style>
      .cls-1 {
        fill: #fff;
      }

      .cls-2 {
        clip-path: url(#clippath-1);
      }

      .cls-3 {
        opacity: .15;
      }

      .cls-4 {
        stroke: #53009b;
        stroke-miterlimit: 10;
        stroke-width: 5px;
      }

      .cls-4, .cls-5 {
        fill: none;
      }

      .cls-6 {
        clip-path: url(#clippath-3);
      }
    </style>
    <clipPath id="clippath-1">
      <rect class="cls-5" x="-939" y="-1683" width="1088.59" height="1362"/>
    </clipPath>
    <clipPath id="clippath-3">
      <path class="cls-1" d="M49.96,8.91c-.19,.12-.41,.23-.64,.37-.91,1.58-1.98,3.15-2.75,4.86-1.54,3.39-1.82,6.96-1.1,10.61,1.09,5.52,3.92,10.07,7.35,14.36-.46-.69-.78-1.48-.93-2.33-.03-.14-.05-.28-.06-.42,0,0,0,0,0-.01-.19-1.6,.24-3.27,1.31-4.59,.17-.21,5.84-7.69,8.57-11.31,2.61-3.46,1.17-8.72-2.38-11.24-2.92-2.06-6.27-2.11-9.37-.3"/>
    </clipPath>
  </defs>
  <g class="cls-2">
    <g class="cls-3">
      <path class="cls-4" d="M704.78-435.47V164.32c-237.02,0-429.14-192.12-429.14-429.14v-452.17c0-238.98-199.92-432.66-446.32-432.66-123.39,0-234.68,48.43-315.51,126.52-80.82,78.49-130.81,186.65-130.81,306.14,0,45.29,7.03,89.03,20.31,130.42,22.26,66.77,60.53,126.91,110.5,175.71,80.83,78.1,192.12,126.51,315.51,126.51,86.69,0,156.58,70.29,156.58,156.58V164.32H-176.54c-243.27,0-463.5-98.79-623.21-258.11-130.43-130.42-220.23-301.45-248.35-492.79,64.05-435.39,447.1-766.9,903.97-750.89,477.56,17.18,848.91,424.05,848.91,902.01Z"/>
    </g>
  </g>
  <g>
    <g>
      <path class="cls-1" d="M49.96,8.91c-.19,.12-.41,.23-.64,.37-.91,1.58-1.98,3.15-2.75,4.86-1.54,3.39-1.82,6.96-1.1,10.61,1.09,5.52,3.92,10.07,7.35,14.36-.46-.69-.78-1.48-.93-2.33-.03-.14-.05-.28-.06-.42,0,0,0,0,0-.01-.19-1.6,.24-3.27,1.31-4.59,.17-.21,5.84-7.69,8.57-11.31,2.61-3.46,1.17-8.72-2.38-11.24-2.92-2.06-6.27-2.11-9.37-.3"/>
      <g class="cls-6">
        <rect class="cls-1" x="44.76" y="7.1" width="19.56" height="32.02"/>
      </g>
    </g>
    <path class="cls-1" d="M51.58,61.98c.19,0,.39-.02,.59-.05,.19-.02,.39-.05,.59-.09,.1-.02,.2-.04,.29-.06,.97-.23,1.92-.67,2.82-1.31,1.78-1.27,2.95-3.21,3.32-5.26,.04-.23,.08-.47,.1-.71,0-.11,.02-.21,.02-.32,.02-.43,0-.87-.05-1.3-.04-.33-.1-.65-.18-.97-.02-.08-.04-.15-.06-.22-.21-.66-.5-1.3-.9-1.89-.58-.86-1.17-1.72-1.79-2.56l-.03-.05-5.99-7.72c-.82-1-1.62-2.01-2.36-3.05l-.08-.11c-2.43-3.39-4.34-7.04-5.18-11.28-.69-3.48-.42-6.86,1.04-10.09,.73-1.62,1.75-3.11,2.61-4.62,0,0-.01,0-.01,0,0,0,0-.01,0-.02-.71,.39-6.49,3.67-12.92,7.35-1.81,1.03-3.67,2.09-5.48,3.12-4.88,2.78-9.44,5.39-11.78,6.73-1.49,.86-2.62,2.06-3.38,3.43-.09,.17-.18,.35-.27,.52-.05,.12-.11,.25-.16,.38-.11,.24-.2,.49-.27,.73-.05,.14-.09,.28-.13,.42-.02,.08-.05,.18-.07,.26,0,.02,0,.03,0,.05-.01,.02-.01,.05-.01,.06-.05,.19-.06,.36-.1,.54-.02,.15-.06,.29-.06,.43-.01,.08-.02,.14-.02,.21,0,.08,0,.14-.01,.21-.01,.19-.04,.39-.04,.59v.06c0,.19,.02,.39,.04,.58,.01,.13,.01,.27,.03,.41,0,.14,.05,.28,.06,.43,.04,.2,.06,.4,.11,.6,0,.01,0,.03,0,.05,.04,.15,.08,.29,.11,.43,.05,.15,.09,.29,.14,.43,.05,.14,.11,.28,.16,.42,.03,.09,.06,.18,.11,.26,.05,.11,.1,.22,.16,.33,.13,.27,.28,.53,.45,.78,.75,1.23,1.8,2.31,3.16,3.09,1.58,.9,4.17,2.39,7.18,4.11,.57,.33,1.15,.66,1.74,1,.59,.33,1.2,.68,1.8,1.03l1.22,.7c.42,.24,.83,.47,1.25,.71,1.88,1.07,3.76,2.14,5.57,3.17,4.41,2.53,8.34,4.76,10.25,5.84,.16,.08,.31,.17,.47,.27,.35,.19,.59,.33,.7,.39-.01-.01-.02-.02-.02-.03,.22,.13,.43,.25,.62,.36,1.5,.87,3.07,1.3,4.61,1.23"/>
  </g>
</svg>