<svg width="57" height="57" viewBox="0 0 57 57" fill="none" xmlns="http://www.w3.org/2000/svg">
    <path d="M28.25 2C13.725 2 2 13.725 2 28.25C2 42.775 13.725 54.5 28.25 54.5C42.775 54.5 54.5 42.775 54.5 28.25C54.5 13.725 42.775 2 28.25 2ZM38.925 30H22.825L26.85 34.55C27.725 35.6 27.55 37 26.675 37.875C26.15 38.225 25.625 38.4 25.1 38.4C24.4 38.4 23.7 38.05 23.35 37.525L16 29.125C15.825 28.95 15.825 28.775 15.65 28.6C15.65 28.425 15.65 28.425 15.475 28.25C15.475 28.075 15.475 28.075 15.475 27.9V27.725C15.475 27.55 15.475 27.55 15.475 27.375V27.2C15.475 27.025 15.475 27.025 15.65 26.85C15.65 26.85 15.65 26.675 15.825 26.675L16 26.5C16 26.5 16 26.5 16.175 26.325L23.7 18.975C24.575 18.1 26.15 18.1 27.025 18.975C27.9 19.85 27.9 21.425 27.025 22.3L23.525 25.625H39.1C40.325 25.625 41.55 26.675 41.55 28.075C41.2 28.95 40.15 30 38.925 30Z" fill="#7B43F5"/>
</svg>
