<?xml version="1.0" encoding="UTF-8"?>
<svg id="Capa_1" data-name="Capa 1" xmlns="http://www.w3.org/2000/svg" viewBox="0 0 100 100">
  <defs>
    <style>
      .cls-1 {
        fill: #C8C8C8;
      }
    </style>
  </defs>
  <path class="cls-1" d="M67.58,40.37c.38,.42,.92,.65,1.48,.65,.07,0,.13,0,.2,0,.63-.06,1.19-.42,1.52-.96l7.76-12.79c.58-.95,.27-2.19-.68-2.76-.96-.57-2.19-.27-2.76,.68l-6.37,10.51-4.26-4.63c-.76-.82-2.03-.87-2.84-.12-.82,.75-.87,2.02-.12,2.84l6.07,6.6Z"/>
  <path class="cls-1" d="M59.99,91.29c4.43,0,8.04-3.61,8.04-8.04v-31.75c1.06,.18,2.13,.29,3.24,.29,10.69,0,19.39-8.7,19.39-19.39s-8.7-19.39-19.39-19.39-19.39,8.7-19.39,19.39H17.17c-4.43,0-8.04,3.6-8.04,8.03v42.82c0,4.43,3.61,8.04,8.04,8.04H59.99Zm11.27-74.25c8.47,0,15.36,6.89,15.36,15.36s-6.89,15.37-15.36,15.37c-1.11,0-2.19-.13-3.24-.36-1.44-.31-2.77-.87-4.02-1.55-3.65-1.98-6.39-5.35-7.5-9.44-.35-1.29-.6-2.62-.6-4.02,0-8.47,6.89-15.36,15.37-15.36Zm-27.47,19.39v17.71h-10.41v-17.71h10.41ZM13.16,83.25V40.44c0-2.21,1.8-4.01,4.01-4.01h12.18v19.72c0,1.11,.9,2.01,2.01,2.01h14.44c1.11,0,2.01-.9,2.01-2.01v-19.72h4.49c1.34,6.35,5.81,11.55,11.7,13.94v32.89c0,2.21-1.8,4.01-4.01,4.01H17.17c-2.21,0-4.01-1.8-4.01-4.01Z"/>
</svg>