<?xml version="1.0" encoding="UTF-8"?>
<svg width="20" height="20" viewBox="0 0 20 20" fill="none" xmlns="http://www.w3.org/2000/svg">
<path d="M2.33619 8.23727L2.3362 8.23727L3.05039 8.0924C3.20824 7.51103 3.43645 6.95368 3.73137 6.4299L3.3342 5.83516L3.33418 5.83514C2.85836 5.12213 2.95406 4.16644 3.5623 3.5621C4.16427 2.96363 5.11429 2.86973 5.82266 3.33873L5.82272 3.33877L6.42736 3.73967C6.94868 3.43889 7.50528 3.20751 8.08751 3.04953L8.23 2.3387C8.39765 1.50235 9.13804 0.895483 9.99115 0.895483C10.8533 0.895483 11.5939 1.50203 11.7616 2.33884L11.9041 3.04952C12.4864 3.20753 13.043 3.43906 13.5646 3.73985L14.1742 3.33677L14.1743 3.33676C14.8821 2.86902 15.8319 2.96381 16.433 3.56328C17.039 4.16708 17.1338 5.1215 16.6588 5.83296L16.2603 6.42981C16.5594 6.95924 16.7893 7.51671 16.9461 8.0924L17.6629 8.23782L17.643 8.33582L17.6629 8.23782C18.4959 8.40694 19.1005 9.14632 19.1005 9.99658C19.1005 10.8537 18.4962 11.5935 17.6629 11.7626L17.6628 11.7626L16.9465 11.9079C16.7905 12.482 16.5606 13.0395 16.2603 13.5709L16.663 14.1761C17.1351 14.8856 17.0406 15.8374 16.4381 16.4396C16.4381 16.4396 16.4381 16.4397 16.438 16.4397M2.33619 8.23727L16.438 16.4397M2.33619 8.23727C1.50137 8.40668 0.896094 9.14738 0.896094 10.0014C0.896094 10.853 1.50145 11.5936 2.33619 11.763L3.05004 11.9079C3.20675 12.4876 3.43527 13.0451 3.73142 13.5708L3.33083 14.1731C2.85729 14.8843 2.95271 15.8381 3.55779 16.4414C4.16318 17.0452 5.11771 17.1373 5.82703 16.6612L6.42254 16.2619C6.94781 16.567 7.50628 16.7988 8.08788 16.9527L8.23 17.661C8.23 17.6611 8.23 17.6611 8.23001 17.6611C8.39772 18.4981 9.13863 19.1048 9.99994 19.1048C10.8533 19.1048 11.594 18.4978 11.7616 17.6612L11.9037 16.9528C12.4891 16.7982 13.049 16.5665 13.5738 16.2619L14.1696 16.6613M2.33619 8.23727L14.1696 16.6613M16.438 16.4397C15.8335 17.0445 14.88 17.1375 14.1696 16.6613M16.438 16.4397L14.1696 16.6613M6.61541 15.4869L6.61551 15.487C7.20013 15.8556 7.83341 16.1182 8.49787 16.2679L8.49793 16.268C8.6447 16.3011 8.75821 16.4175 8.78798 16.5649L8.78801 16.565L8.9779 17.5111L8.9779 17.5111C9.07434 17.9925 9.50075 18.342 9.9917 18.342C10.4913 18.342 10.9174 17.992 11.0137 17.5113L11.0137 17.5113L11.2036 16.565L11.2037 16.5649C11.2334 16.4175 11.3469 16.3011 11.4937 16.268L11.4938 16.2679C12.1633 16.1171 12.7982 15.8544 13.3811 15.487L13.3813 15.4869C13.5089 15.4069 13.6718 15.4092 13.7967 15.4929L13.7968 15.4929L14.5942 16.0277C14.5942 16.0277 14.5942 16.0277 14.5942 16.0277C15.0031 16.3016 15.5516 16.248 15.8987 15.9004L15.8987 15.9003C16.2451 15.5541 16.2995 15.0066 16.028 14.5987L16.028 14.5987L15.4933 13.7952L6.61541 15.4869ZM6.61541 15.4869C6.55326 15.4479 6.48254 15.4283 6.41214 15.4283C6.33806 15.4283 6.26388 15.4499 6.19976 15.493M6.61541 15.4869L8.47589 16.3655M15.4847 13.3855C15.8488 12.7873 16.1109 12.1513 16.2642 11.495C16.2642 11.495 16.2642 11.495 16.2642 11.495L16.3616 11.5177L15.4847 13.3855ZM15.4847 13.3855C15.4076 13.512 15.411 13.6718 15.4932 13.795L15.4847 13.3855ZM16.5795 8.6943C16.472 8.67245 16.3869 8.59001 16.3616 8.48298C16.2038 7.81288 15.9376 7.16696 15.5702 6.56281C15.5133 6.46938 15.5157 6.35135 15.5765 6.26039L16.5795 8.6943ZM16.5795 8.6943L17.5309 8.88735C18.0563 8.99397 18.4377 9.46044 18.4377 10.0037C18.4377 10.5399 18.0563 11.0065 17.5309 11.1131L16.5795 8.6943ZM8.47589 16.3655C7.80016 16.2133 7.1563 15.9462 6.56218 15.5716C6.51629 15.5427 6.46408 15.5283 6.41214 15.5283C6.35746 15.5283 6.30277 15.5443 6.2555 15.576M8.47589 16.3655C8.58417 16.39 8.66798 16.4758 8.68996 16.5847L8.47589 16.3655ZM6.2555 15.576L6.19981 15.4929L6.19976 15.493M6.2555 15.576L5.45803 16.1108L3.41709 8.6943L2.4682 8.8868C1.94113 8.9937 1.55889 9.46141 1.55889 9.99892C1.55889 10.5389 1.94113 11.0066 2.4682 11.1135L3.41709 11.306C3.52481 11.3279 3.61 11.4106 3.635 11.5176M6.2555 15.576L6.19976 15.493M6.19976 15.493L5.40234 16.0277L5.40231 16.0277C4.99378 16.3019 4.44432 16.2482 4.09638 15.9013C3.74818 15.5541 3.6933 15.0049 3.96582 14.5959L3.96585 14.5958L4.49869 13.795L4.49876 13.7949C4.58057 13.6717 4.58405 13.5121 4.50692 13.3855C4.14882 12.7969 3.88824 12.1609 3.73238 11.4949C3.73238 11.4948 3.73238 11.4948 3.73237 11.4948L3.635 11.5176M3.635 11.5176C3.79329 12.194 4.05792 12.8399 4.42148 13.4375L3.635 11.5176ZM17.511 11.0151L16.5599 11.208L13.7295 4.42541L13.7847 4.50883L13.7848 4.50873L14.5951 3.97325L14.5951 3.97323C15.0023 3.70386 15.5493 3.75882 15.8944 4.10347L15.8944 4.10354C16.2429 4.45084 16.2975 5.00013 16.0242 5.4093L16.0242 5.40933L15.4933 6.20486C15.4933 6.20487 15.4933 6.20487 15.4933 6.20488C15.411 6.32819 15.4076 6.48816 15.4847 6.61481C15.8468 7.21021 16.109 7.84634 16.2642 8.50589L16.2643 8.50597C16.2985 8.65095 16.4139 8.76268 16.5596 8.7923L16.5596 8.7923L17.511 8.98535C17.9894 9.08244 18.3377 9.50764 18.3377 10.0037C18.3377 10.4923 17.9898 10.9179 17.511 11.0151ZM4.50692 6.61478C4.58401 6.48812 4.58066 6.32816 4.49833 6.20486L4.49833 6.20487L4.50692 6.61478Z" fill="#C8C8C8" stroke="#C8C8C8" stroke-width="0.2"/>
<path d="M7.45482 12.623L7.45486 12.623C8.14327 13.2895 9.04657 13.6569 9.99829 13.6569C10.95 13.6569 11.8533 13.2895 12.542 12.623L12.542 12.6229C13.2596 11.9272 13.6554 10.9952 13.6554 9.99988C13.6554 7.98334 12.0149 6.34287 9.99829 6.34287C7.98188 6.34287 6.34141 7.98335 6.34141 9.99988C6.34141 10.9955 6.73699 11.9273 7.45482 12.623ZM7.04141 9.99988C7.04141 8.36943 8.36798 7.04287 9.99829 7.04287C11.6289 7.04287 12.9554 8.36944 12.9554 9.99988C12.9554 10.8043 12.636 11.557 12.055 12.1202C11.4973 12.66 10.767 12.9569 9.99829 12.9569C9.22957 12.9569 8.49933 12.66 7.94188 12.1202C7.36089 11.5571 7.04141 10.8044 7.04141 9.99988Z" fill="#C8C8C8" stroke="#C8C8C8" stroke-width="0.2"/>
<mask id="path-3-outside-1_1_4005" maskUnits="userSpaceOnUse" x="4.01172" y="4.01392" width="12" height="12" fill="black">
<rect fill="white" x="4.01172" y="4.01392" width="12" height="12"/>
<path d="M10.001 14.9861H9.99805C9.91162 14.9861 9.82568 14.9839 9.74023 14.9794C9.60229 14.9722 9.49658 14.8545 9.50366 14.7166C9.51099 14.5786 9.62671 14.4702 9.7666 14.4801C9.84326 14.4841 9.92041 14.4861 9.99805 14.4861C10.1362 14.4861 10.2495 14.598 10.2495 14.7361C10.2495 14.8741 10.1392 14.9861 10.001 14.9861ZM10.9846 14.8821C10.8691 14.8821 10.7654 14.8018 10.7405 14.6843C10.7114 14.5493 10.7976 14.4165 10.9326 14.3876C11.0093 14.3712 11.0852 14.3529 11.1602 14.3325C11.2939 14.2969 11.4309 14.3751 11.4668 14.5085C11.5029 14.6418 11.4243 14.7791 11.291 14.8152C11.2073 14.8378 11.1226 14.8583 11.0371 14.8766C11.0195 14.8804 11.002 14.8821 10.9846 14.8821ZM8.77637 14.8254C8.75488 14.8254 8.73315 14.8226 8.71143 14.8168C8.62695 14.7942 8.5437 14.7693 8.46118 14.7424C8.32983 14.6997 8.25806 14.5587 8.30078 14.4274C8.34351 14.2961 8.48486 14.2238 8.61597 14.2671C8.69019 14.2913 8.76514 14.3135 8.84082 14.3339C8.97437 14.3696 9.05347 14.5067 9.01758 14.6401C8.98755 14.7517 8.88672 14.8254 8.77637 14.8254ZM12.1487 14.4669C12.0579 14.4669 11.9702 14.4174 11.926 14.3311C11.863 14.2083 11.9114 14.0576 12.0342 13.9945C12.104 13.9587 12.1726 13.9211 12.2402 13.882C12.3604 13.8125 12.5129 13.8534 12.582 13.9727C12.6514 14.092 12.6106 14.245 12.4912 14.3143C12.4163 14.3579 12.3398 14.3997 12.2627 14.4393C12.2261 14.4581 12.187 14.4669 12.1487 14.4669ZM7.63501 14.3507C7.59253 14.3507 7.54932 14.3398 7.50977 14.3169C7.43481 14.2734 7.36084 14.2279 7.28809 14.1808C7.17236 14.1057 7.13916 13.9509 7.21436 13.835C7.28931 13.7191 7.44409 13.686 7.56006 13.7611C7.62598 13.8038 7.69263 13.845 7.76074 13.8845C7.88013 13.9537 7.9209 14.1067 7.85156 14.2262C7.80518 14.3062 7.72119 14.3507 7.63501 14.3507ZM13.165 13.7653C13.0967 13.7653 13.0283 13.7373 12.979 13.6824C12.8867 13.5796 12.8953 13.4215 12.998 13.3292C13.0391 13.2925 13.0791 13.2549 13.1187 13.2167L13.1675 13.1686C13.2654 13.0707 13.4233 13.0702 13.5212 13.1674C13.6191 13.2646 13.6196 13.4229 13.5225 13.5209L13.4653 13.577C13.4219 13.6189 13.3774 13.6604 13.332 13.7013C13.2844 13.7441 13.2246 13.7653 13.165 13.7653ZM6.65503 13.5984C6.59131 13.5984 6.52734 13.5741 6.47852 13.5255C6.41699 13.4641 6.35693 13.4011 6.29883 13.3367C6.20605 13.2343 6.21411 13.0762 6.31641 12.9835C6.4187 12.891 6.5769 12.8988 6.66943 13.0012C6.72217 13.0593 6.77588 13.116 6.83154 13.1713C6.9292 13.2687 6.92969 13.427 6.83228 13.5248C6.78345 13.5739 6.71924 13.5984 6.65503 13.5984ZM13.9685 12.8265C13.9219 12.8265 13.8745 12.8135 13.8325 12.7861C13.7168 12.7108 13.6838 12.556 13.7593 12.4403C13.8018 12.3748 13.843 12.308 13.8823 12.2401C13.9514 12.1206 14.104 12.0797 14.2241 12.1494C14.3435 12.2186 14.3843 12.3716 14.3149 12.4911C14.2712 12.5663 14.2256 12.6401 14.1782 12.7128C14.1304 12.7865 14.0503 12.8265 13.9685 12.8265ZM5.90063 12.6201C5.81445 12.6201 5.73071 12.5757 5.68433 12.4958C5.64062 12.4209 5.59888 12.3446 5.55908 12.2673C5.49585 12.1445 5.54395 11.9938 5.66675 11.9305C5.78906 11.8674 5.94043 11.9155 6.00342 12.0383C6.03931 12.108 6.07715 12.1768 6.11646 12.2444C6.18579 12.3636 6.14551 12.5167 6.02612 12.5862C5.98657 12.6093 5.94336 12.6201 5.90063 12.6201ZM14.5027 11.7126C14.4771 11.7126 14.4507 11.7086 14.4248 11.7001C14.2937 11.6571 14.2222 11.5159 14.2651 11.3846C14.2893 11.3108 14.3115 11.2358 14.3318 11.1602C14.3677 11.027 14.5046 10.9482 14.6379 10.9835C14.7715 11.0193 14.8506 11.1564 14.8147 11.2898C14.792 11.3743 14.7673 11.4578 14.7402 11.5404C14.7058 11.6458 14.6079 11.7126 14.5027 11.7126ZM5.42407 11.4805C5.31396 11.4805 5.21313 11.407 5.18286 11.2955C5.16016 11.2117 5.13965 11.1267 5.12158 11.0411C5.09302 10.906 5.17944 10.7733 5.3147 10.7449C5.44971 10.7164 5.58228 10.8027 5.61084 10.9379C5.62695 11.0144 5.64551 11.0901 5.66577 11.165C5.70166 11.2983 5.6228 11.4357 5.4895 11.4717C5.46777 11.4775 5.4458 11.4805 5.42407 11.4805ZM14.728 10.4978C14.7236 10.4978 14.7195 10.4977 14.7151 10.4974C14.5774 10.4905 14.4712 10.373 14.478 10.2352C14.4819 10.1572 14.4841 10.0789 14.4841 10C14.4841 9.86194 14.5959 9.74146 14.7341 9.74146C14.8721 9.74146 14.9839 9.84473 14.9839 9.98279H14.7339L14.9839 9.98975C14.9841 10.0874 14.9819 10.1741 14.9775 10.2604C14.9707 10.394 14.8604 10.4978 14.728 10.4978ZM5.26099 10.2673C5.1228 10.2673 5.01172 10.1438 5.01172 10.0057C5.01172 10.0026 5.01172 9.99878 5.01196 9.99475C5.01196 9.91101 5.01416 9.82776 5.01831 9.74512C5.02563 9.60718 5.14575 9.50024 5.28101 9.50842C5.41895 9.5155 5.5249 9.63306 5.51782 9.771C5.51392 9.8468 5.51196 9.92322 5.51196 10C5.51196 10.0098 5.51147 10.0195 5.51025 10.0292C5.51001 10.1672 5.39893 10.2673 5.26099 10.2673ZM14.6274 9.24939C14.5122 9.24939 14.4087 9.16943 14.3833 9.05237C14.3667 8.97546 14.3481 8.89929 14.3276 8.82385C14.2917 8.69067 14.3706 8.55334 14.5039 8.51733C14.6357 8.48206 14.7744 8.56018 14.8105 8.69336C14.833 8.77698 14.8535 8.86121 14.8721 8.94641C14.9014 9.0813 14.8157 9.21448 14.6807 9.24365C14.6628 9.24756 14.645 9.24939 14.6274 9.24939ZM5.42139 9.03101C5.40015 9.03101 5.37842 9.0282 5.35693 9.02258C5.22363 8.98718 5.14404 8.85022 5.17944 8.7168C5.2019 8.63232 5.22656 8.54883 5.25342 8.46619C5.2959 8.33508 5.43604 8.2627 5.56836 8.30542C5.69971 8.3479 5.77148 8.48889 5.729 8.62024C5.70508 8.69434 5.68286 8.76929 5.66284 8.84497C5.63306 8.95691 5.53198 9.03101 5.42139 9.03101ZM14.2104 8.08679C14.1199 8.08679 14.0325 8.03748 13.988 7.95142C13.9521 7.88184 13.9146 7.81335 13.875 7.74597C13.8057 7.62671 13.8459 7.47363 13.9651 7.40405C14.0845 7.33459 14.2373 7.37488 14.3071 7.49402C14.3506 7.56897 14.3926 7.64502 14.4324 7.72217C14.4956 7.84485 14.4475 7.99573 14.3247 8.05896C14.2881 8.07788 14.249 8.08679 14.2104 8.08679ZM5.89355 7.8894C5.85107 7.8894 5.80786 7.87854 5.76855 7.85571C5.64893 7.7865 5.60815 7.63354 5.67749 7.51416C5.72119 7.43884 5.7666 7.36475 5.81372 7.29199C5.88867 7.17615 6.0437 7.14343 6.15942 7.21838C6.27539 7.29358 6.30835 7.44836 6.23315 7.56421C6.19043 7.62988 6.14941 7.69666 6.11011 7.76465C6.06372 7.84473 5.97974 7.8894 5.89355 7.8894ZM13.5063 7.07214C13.4382 7.07214 13.3704 7.04443 13.321 6.98999C13.2685 6.93213 13.2146 6.87561 13.1589 6.82043C13.061 6.72302 13.0605 6.56482 13.158 6.4668C13.2554 6.36914 13.4136 6.36853 13.5115 6.4657C13.573 6.52698 13.6333 6.58984 13.6917 6.6543C13.7844 6.75659 13.7766 6.91467 13.6743 7.00745C13.6265 7.05078 13.5664 7.07214 13.5063 7.07214ZM6.64526 6.90869C6.5813 6.90869 6.51758 6.8844 6.46875 6.83569C6.37085 6.73816 6.37085 6.57983 6.46826 6.48206C6.52979 6.42053 6.59277 6.36047 6.65723 6.30237C6.75952 6.20996 6.91772 6.21753 7.01025 6.32043C7.10278 6.42297 7.09473 6.58105 6.99219 6.67346C6.93408 6.72595 6.87744 6.77991 6.82227 6.83533C6.77344 6.88416 6.70923 6.90869 6.64526 6.90869ZM12.5652 6.27197C12.5185 6.27197 12.4714 6.25903 12.4294 6.23181C12.3638 6.18933 12.2971 6.14844 12.2292 6.1095C12.1094 6.04065 12.0681 5.88782 12.137 5.76807C12.2058 5.64844 12.3582 5.6073 12.4783 5.6759C12.554 5.71948 12.6284 5.76477 12.7014 5.81213C12.8171 5.88721 12.8503 6.04199 12.7751 6.15796C12.7273 6.23181 12.6472 6.27197 12.5652 6.27197ZM7.62329 6.15393C7.53711 6.15393 7.45337 6.1095 7.40698 6.02966C7.33765 5.9104 7.37793 5.75732 7.49731 5.68787C7.57227 5.64417 7.64844 5.60242 7.72583 5.56262C7.84912 5.49927 7.99951 5.54822 8.0625 5.6709C8.12549 5.7937 8.07715 5.94446 7.95435 6.00745C7.88477 6.04309 7.81641 6.08069 7.74878 6.12C7.70923 6.14307 7.66602 6.15393 7.62329 6.15393ZM11.4492 5.74146C11.4238 5.74146 11.3979 5.73755 11.3726 5.72925C11.2983 5.70532 11.2231 5.68323 11.1472 5.66321C11.0139 5.62781 10.9343 5.49084 10.9697 5.35742C11.0054 5.224 11.1423 5.14539 11.2756 5.17981C11.3599 5.20227 11.4434 5.22681 11.5259 5.25342C11.6572 5.29578 11.7295 5.43665 11.6873 5.56799C11.6531 5.67395 11.5549 5.74146 11.4492 5.74146ZM8.76221 5.67773C8.6521 5.67773 8.55127 5.60437 8.52124 5.49292C8.48511 5.35962 8.56372 5.22241 8.69702 5.18628C8.78076 5.1637 8.86523 5.14307 8.95044 5.12476C9.08691 5.09607 9.21875 5.18164 9.24756 5.31653C9.27661 5.45154 9.19067 5.58447 9.05591 5.61353C8.979 5.63013 8.90283 5.64856 8.82788 5.66895C8.80591 5.6748 8.78394 5.67773 8.76221 5.67773ZM10.2346 5.51978C10.2305 5.51978 10.2261 5.51965 10.2219 5.51941C10.1475 5.51575 10.073 5.51392 9.99805 5.51392C9.85986 5.51392 9.74219 5.40198 9.74219 5.26392C9.74219 5.12585 9.84839 5.01392 9.98657 5.01392H9.99805C10.0813 5.01392 10.1641 5.01599 10.2468 5.02014C10.3848 5.02698 10.491 5.14429 10.4841 5.28223C10.4775 5.41589 10.3669 5.51978 10.2346 5.51978Z"/>
</mask>
<path d="M10.001 14.9861H9.99805C9.91162 14.9861 9.82568 14.9839 9.74023 14.9794C9.60229 14.9722 9.49658 14.8545 9.50366 14.7166C9.51099 14.5786 9.62671 14.4702 9.7666 14.4801C9.84326 14.4841 9.92041 14.4861 9.99805 14.4861C10.1362 14.4861 10.2495 14.598 10.2495 14.7361C10.2495 14.8741 10.1392 14.9861 10.001 14.9861ZM10.9846 14.8821C10.8691 14.8821 10.7654 14.8018 10.7405 14.6843C10.7114 14.5493 10.7976 14.4165 10.9326 14.3876C11.0093 14.3712 11.0852 14.3529 11.1602 14.3325C11.2939 14.2969 11.4309 14.3751 11.4668 14.5085C11.5029 14.6418 11.4243 14.7791 11.291 14.8152C11.2073 14.8378 11.1226 14.8583 11.0371 14.8766C11.0195 14.8804 11.002 14.8821 10.9846 14.8821ZM8.77637 14.8254C8.75488 14.8254 8.73315 14.8226 8.71143 14.8168C8.62695 14.7942 8.5437 14.7693 8.46118 14.7424C8.32983 14.6997 8.25806 14.5587 8.30078 14.4274C8.34351 14.2961 8.48486 14.2238 8.61597 14.2671C8.69019 14.2913 8.76514 14.3135 8.84082 14.3339C8.97437 14.3696 9.05347 14.5067 9.01758 14.6401C8.98755 14.7517 8.88672 14.8254 8.77637 14.8254ZM12.1487 14.4669C12.0579 14.4669 11.9702 14.4174 11.926 14.3311C11.863 14.2083 11.9114 14.0576 12.0342 13.9945C12.104 13.9587 12.1726 13.9211 12.2402 13.882C12.3604 13.8125 12.5129 13.8534 12.582 13.9727C12.6514 14.092 12.6106 14.245 12.4912 14.3143C12.4163 14.3579 12.3398 14.3997 12.2627 14.4393C12.2261 14.4581 12.187 14.4669 12.1487 14.4669ZM7.63501 14.3507C7.59253 14.3507 7.54932 14.3398 7.50977 14.3169C7.43481 14.2734 7.36084 14.2279 7.28809 14.1808C7.17236 14.1057 7.13916 13.9509 7.21436 13.835C7.28931 13.7191 7.44409 13.686 7.56006 13.7611C7.62598 13.8038 7.69263 13.845 7.76074 13.8845C7.88013 13.9537 7.9209 14.1067 7.85156 14.2262C7.80518 14.3062 7.72119 14.3507 7.63501 14.3507ZM13.165 13.7653C13.0967 13.7653 13.0283 13.7373 12.979 13.6824C12.8867 13.5796 12.8953 13.4215 12.998 13.3292C13.0391 13.2925 13.0791 13.2549 13.1187 13.2167L13.1675 13.1686C13.2654 13.0707 13.4233 13.0702 13.5212 13.1674C13.6191 13.2646 13.6196 13.4229 13.5225 13.5209L13.4653 13.577C13.4219 13.6189 13.3774 13.6604 13.332 13.7013C13.2844 13.7441 13.2246 13.7653 13.165 13.7653ZM6.65503 13.5984C6.59131 13.5984 6.52734 13.5741 6.47852 13.5255C6.41699 13.4641 6.35693 13.4011 6.29883 13.3367C6.20605 13.2343 6.21411 13.0762 6.31641 12.9835C6.4187 12.891 6.5769 12.8988 6.66943 13.0012C6.72217 13.0593 6.77588 13.116 6.83154 13.1713C6.9292 13.2687 6.92969 13.427 6.83228 13.5248C6.78345 13.5739 6.71924 13.5984 6.65503 13.5984ZM13.9685 12.8265C13.9219 12.8265 13.8745 12.8135 13.8325 12.7861C13.7168 12.7108 13.6838 12.556 13.7593 12.4403C13.8018 12.3748 13.843 12.308 13.8823 12.2401C13.9514 12.1206 14.104 12.0797 14.2241 12.1494C14.3435 12.2186 14.3843 12.3716 14.3149 12.4911C14.2712 12.5663 14.2256 12.6401 14.1782 12.7128C14.1304 12.7865 14.0503 12.8265 13.9685 12.8265ZM5.90063 12.6201C5.81445 12.6201 5.73071 12.5757 5.68433 12.4958C5.64062 12.4209 5.59888 12.3446 5.55908 12.2673C5.49585 12.1445 5.54395 11.9938 5.66675 11.9305C5.78906 11.8674 5.94043 11.9155 6.00342 12.0383C6.03931 12.108 6.07715 12.1768 6.11646 12.2444C6.18579 12.3636 6.14551 12.5167 6.02612 12.5862C5.98657 12.6093 5.94336 12.6201 5.90063 12.6201ZM14.5027 11.7126C14.4771 11.7126 14.4507 11.7086 14.4248 11.7001C14.2937 11.6571 14.2222 11.5159 14.2651 11.3846C14.2893 11.3108 14.3115 11.2358 14.3318 11.1602C14.3677 11.027 14.5046 10.9482 14.6379 10.9835C14.7715 11.0193 14.8506 11.1564 14.8147 11.2898C14.792 11.3743 14.7673 11.4578 14.7402 11.5404C14.7058 11.6458 14.6079 11.7126 14.5027 11.7126ZM5.42407 11.4805C5.31396 11.4805 5.21313 11.407 5.18286 11.2955C5.16016 11.2117 5.13965 11.1267 5.12158 11.0411C5.09302 10.906 5.17944 10.7733 5.3147 10.7449C5.44971 10.7164 5.58228 10.8027 5.61084 10.9379C5.62695 11.0144 5.64551 11.0901 5.66577 11.165C5.70166 11.2983 5.6228 11.4357 5.4895 11.4717C5.46777 11.4775 5.4458 11.4805 5.42407 11.4805ZM14.728 10.4978C14.7236 10.4978 14.7195 10.4977 14.7151 10.4974C14.5774 10.4905 14.4712 10.373 14.478 10.2352C14.4819 10.1572 14.4841 10.0789 14.4841 10C14.4841 9.86194 14.5959 9.74146 14.7341 9.74146C14.8721 9.74146 14.9839 9.84473 14.9839 9.98279H14.7339L14.9839 9.98975C14.9841 10.0874 14.9819 10.1741 14.9775 10.2604C14.9707 10.394 14.8604 10.4978 14.728 10.4978ZM5.26099 10.2673C5.1228 10.2673 5.01172 10.1438 5.01172 10.0057C5.01172 10.0026 5.01172 9.99878 5.01196 9.99475C5.01196 9.91101 5.01416 9.82776 5.01831 9.74512C5.02563 9.60718 5.14575 9.50024 5.28101 9.50842C5.41895 9.5155 5.5249 9.63306 5.51782 9.771C5.51392 9.8468 5.51196 9.92322 5.51196 10C5.51196 10.0098 5.51147 10.0195 5.51025 10.0292C5.51001 10.1672 5.39893 10.2673 5.26099 10.2673ZM14.6274 9.24939C14.5122 9.24939 14.4087 9.16943 14.3833 9.05237C14.3667 8.97546 14.3481 8.89929 14.3276 8.82385C14.2917 8.69067 14.3706 8.55334 14.5039 8.51733C14.6357 8.48206 14.7744 8.56018 14.8105 8.69336C14.833 8.77698 14.8535 8.86121 14.8721 8.94641C14.9014 9.0813 14.8157 9.21448 14.6807 9.24365C14.6628 9.24756 14.645 9.24939 14.6274 9.24939ZM5.42139 9.03101C5.40015 9.03101 5.37842 9.0282 5.35693 9.02258C5.22363 8.98718 5.14404 8.85022 5.17944 8.7168C5.2019 8.63232 5.22656 8.54883 5.25342 8.46619C5.2959 8.33508 5.43604 8.2627 5.56836 8.30542C5.69971 8.3479 5.77148 8.48889 5.729 8.62024C5.70508 8.69434 5.68286 8.76929 5.66284 8.84497C5.63306 8.95691 5.53198 9.03101 5.42139 9.03101ZM14.2104 8.08679C14.1199 8.08679 14.0325 8.03748 13.988 7.95142C13.9521 7.88184 13.9146 7.81335 13.875 7.74597C13.8057 7.62671 13.8459 7.47363 13.9651 7.40405C14.0845 7.33459 14.2373 7.37488 14.3071 7.49402C14.3506 7.56897 14.3926 7.64502 14.4324 7.72217C14.4956 7.84485 14.4475 7.99573 14.3247 8.05896C14.2881 8.07788 14.249 8.08679 14.2104 8.08679ZM5.89355 7.8894C5.85107 7.8894 5.80786 7.87854 5.76855 7.85571C5.64893 7.7865 5.60815 7.63354 5.67749 7.51416C5.72119 7.43884 5.7666 7.36475 5.81372 7.29199C5.88867 7.17615 6.0437 7.14343 6.15942 7.21838C6.27539 7.29358 6.30835 7.44836 6.23315 7.56421C6.19043 7.62988 6.14941 7.69666 6.11011 7.76465C6.06372 7.84473 5.97974 7.8894 5.89355 7.8894ZM13.5063 7.07214C13.4382 7.07214 13.3704 7.04443 13.321 6.98999C13.2685 6.93213 13.2146 6.87561 13.1589 6.82043C13.061 6.72302 13.0605 6.56482 13.158 6.4668C13.2554 6.36914 13.4136 6.36853 13.5115 6.4657C13.573 6.52698 13.6333 6.58984 13.6917 6.6543C13.7844 6.75659 13.7766 6.91467 13.6743 7.00745C13.6265 7.05078 13.5664 7.07214 13.5063 7.07214ZM6.64526 6.90869C6.5813 6.90869 6.51758 6.8844 6.46875 6.83569C6.37085 6.73816 6.37085 6.57983 6.46826 6.48206C6.52979 6.42053 6.59277 6.36047 6.65723 6.30237C6.75952 6.20996 6.91772 6.21753 7.01025 6.32043C7.10278 6.42297 7.09473 6.58105 6.99219 6.67346C6.93408 6.72595 6.87744 6.77991 6.82227 6.83533C6.77344 6.88416 6.70923 6.90869 6.64526 6.90869ZM12.5652 6.27197C12.5185 6.27197 12.4714 6.25903 12.4294 6.23181C12.3638 6.18933 12.2971 6.14844 12.2292 6.1095C12.1094 6.04065 12.0681 5.88782 12.137 5.76807C12.2058 5.64844 12.3582 5.6073 12.4783 5.6759C12.554 5.71948 12.6284 5.76477 12.7014 5.81213C12.8171 5.88721 12.8503 6.04199 12.7751 6.15796C12.7273 6.23181 12.6472 6.27197 12.5652 6.27197ZM7.62329 6.15393C7.53711 6.15393 7.45337 6.1095 7.40698 6.02966C7.33765 5.9104 7.37793 5.75732 7.49731 5.68787C7.57227 5.64417 7.64844 5.60242 7.72583 5.56262C7.84912 5.49927 7.99951 5.54822 8.0625 5.6709C8.12549 5.7937 8.07715 5.94446 7.95435 6.00745C7.88477 6.04309 7.81641 6.08069 7.74878 6.12C7.70923 6.14307 7.66602 6.15393 7.62329 6.15393ZM11.4492 5.74146C11.4238 5.74146 11.3979 5.73755 11.3726 5.72925C11.2983 5.70532 11.2231 5.68323 11.1472 5.66321C11.0139 5.62781 10.9343 5.49084 10.9697 5.35742C11.0054 5.224 11.1423 5.14539 11.2756 5.17981C11.3599 5.20227 11.4434 5.22681 11.5259 5.25342C11.6572 5.29578 11.7295 5.43665 11.6873 5.56799C11.6531 5.67395 11.5549 5.74146 11.4492 5.74146ZM8.76221 5.67773C8.6521 5.67773 8.55127 5.60437 8.52124 5.49292C8.48511 5.35962 8.56372 5.22241 8.69702 5.18628C8.78076 5.1637 8.86523 5.14307 8.95044 5.12476C9.08691 5.09607 9.21875 5.18164 9.24756 5.31653C9.27661 5.45154 9.19067 5.58447 9.05591 5.61353C8.979 5.63013 8.90283 5.64856 8.82788 5.66895C8.80591 5.6748 8.78394 5.67773 8.76221 5.67773ZM10.2346 5.51978C10.2305 5.51978 10.2261 5.51965 10.2219 5.51941C10.1475 5.51575 10.073 5.51392 9.99805 5.51392C9.85986 5.51392 9.74219 5.40198 9.74219 5.26392C9.74219 5.12585 9.84839 5.01392 9.98657 5.01392H9.99805C10.0813 5.01392 10.1641 5.01599 10.2468 5.02014C10.3848 5.02698 10.491 5.14429 10.4841 5.28223C10.4775 5.41589 10.3669 5.51978 10.2346 5.51978Z" fill="#C8C8C8"/>
<path d="M10.001 14.9861H9.99805C9.91162 14.9861 9.82568 14.9839 9.74023 14.9794C9.60229 14.9722 9.49658 14.8545 9.50366 14.7166C9.51099 14.5786 9.62671 14.4702 9.7666 14.4801C9.84326 14.4841 9.92041 14.4861 9.99805 14.4861C10.1362 14.4861 10.2495 14.598 10.2495 14.7361C10.2495 14.8741 10.1392 14.9861 10.001 14.9861ZM10.9846 14.8821C10.8691 14.8821 10.7654 14.8018 10.7405 14.6843C10.7114 14.5493 10.7976 14.4165 10.9326 14.3876C11.0093 14.3712 11.0852 14.3529 11.1602 14.3325C11.2939 14.2969 11.4309 14.3751 11.4668 14.5085C11.5029 14.6418 11.4243 14.7791 11.291 14.8152C11.2073 14.8378 11.1226 14.8583 11.0371 14.8766C11.0195 14.8804 11.002 14.8821 10.9846 14.8821ZM8.77637 14.8254C8.75488 14.8254 8.73315 14.8226 8.71143 14.8168C8.62695 14.7942 8.5437 14.7693 8.46118 14.7424C8.32983 14.6997 8.25806 14.5587 8.30078 14.4274C8.34351 14.2961 8.48486 14.2238 8.61597 14.2671C8.69019 14.2913 8.76514 14.3135 8.84082 14.3339C8.97437 14.3696 9.05347 14.5067 9.01758 14.6401C8.98755 14.7517 8.88672 14.8254 8.77637 14.8254ZM12.1487 14.4669C12.0579 14.4669 11.9702 14.4174 11.926 14.3311C11.863 14.2083 11.9114 14.0576 12.0342 13.9945C12.104 13.9587 12.1726 13.9211 12.2402 13.882C12.3604 13.8125 12.5129 13.8534 12.582 13.9727C12.6514 14.092 12.6106 14.245 12.4912 14.3143C12.4163 14.3579 12.3398 14.3997 12.2627 14.4393C12.2261 14.4581 12.187 14.4669 12.1487 14.4669ZM7.63501 14.3507C7.59253 14.3507 7.54932 14.3398 7.50977 14.3169C7.43481 14.2734 7.36084 14.2279 7.28809 14.1808C7.17236 14.1057 7.13916 13.9509 7.21436 13.835C7.28931 13.7191 7.44409 13.686 7.56006 13.7611C7.62598 13.8038 7.69263 13.845 7.76074 13.8845C7.88013 13.9537 7.9209 14.1067 7.85156 14.2262C7.80518 14.3062 7.72119 14.3507 7.63501 14.3507ZM13.165 13.7653C13.0967 13.7653 13.0283 13.7373 12.979 13.6824C12.8867 13.5796 12.8953 13.4215 12.998 13.3292C13.0391 13.2925 13.0791 13.2549 13.1187 13.2167L13.1675 13.1686C13.2654 13.0707 13.4233 13.0702 13.5212 13.1674C13.6191 13.2646 13.6196 13.4229 13.5225 13.5209L13.4653 13.577C13.4219 13.6189 13.3774 13.6604 13.332 13.7013C13.2844 13.7441 13.2246 13.7653 13.165 13.7653ZM6.65503 13.5984C6.59131 13.5984 6.52734 13.5741 6.47852 13.5255C6.41699 13.4641 6.35693 13.4011 6.29883 13.3367C6.20605 13.2343 6.21411 13.0762 6.31641 12.9835C6.4187 12.891 6.5769 12.8988 6.66943 13.0012C6.72217 13.0593 6.77588 13.116 6.83154 13.1713C6.9292 13.2687 6.92969 13.427 6.83228 13.5248C6.78345 13.5739 6.71924 13.5984 6.65503 13.5984ZM13.9685 12.8265C13.9219 12.8265 13.8745 12.8135 13.8325 12.7861C13.7168 12.7108 13.6838 12.556 13.7593 12.4403C13.8018 12.3748 13.843 12.308 13.8823 12.2401C13.9514 12.1206 14.104 12.0797 14.2241 12.1494C14.3435 12.2186 14.3843 12.3716 14.3149 12.4911C14.2712 12.5663 14.2256 12.6401 14.1782 12.7128C14.1304 12.7865 14.0503 12.8265 13.9685 12.8265ZM5.90063 12.6201C5.81445 12.6201 5.73071 12.5757 5.68433 12.4958C5.64062 12.4209 5.59888 12.3446 5.55908 12.2673C5.49585 12.1445 5.54395 11.9938 5.66675 11.9305C5.78906 11.8674 5.94043 11.9155 6.00342 12.0383C6.03931 12.108 6.07715 12.1768 6.11646 12.2444C6.18579 12.3636 6.14551 12.5167 6.02612 12.5862C5.98657 12.6093 5.94336 12.6201 5.90063 12.6201ZM14.5027 11.7126C14.4771 11.7126 14.4507 11.7086 14.4248 11.7001C14.2937 11.6571 14.2222 11.5159 14.2651 11.3846C14.2893 11.3108 14.3115 11.2358 14.3318 11.1602C14.3677 11.027 14.5046 10.9482 14.6379 10.9835C14.7715 11.0193 14.8506 11.1564 14.8147 11.2898C14.792 11.3743 14.7673 11.4578 14.7402 11.5404C14.7058 11.6458 14.6079 11.7126 14.5027 11.7126ZM5.42407 11.4805C5.31396 11.4805 5.21313 11.407 5.18286 11.2955C5.16016 11.2117 5.13965 11.1267 5.12158 11.0411C5.09302 10.906 5.17944 10.7733 5.3147 10.7449C5.44971 10.7164 5.58228 10.8027 5.61084 10.9379C5.62695 11.0144 5.64551 11.0901 5.66577 11.165C5.70166 11.2983 5.6228 11.4357 5.4895 11.4717C5.46777 11.4775 5.4458 11.4805 5.42407 11.4805ZM14.728 10.4978C14.7236 10.4978 14.7195 10.4977 14.7151 10.4974C14.5774 10.4905 14.4712 10.373 14.478 10.2352C14.4819 10.1572 14.4841 10.0789 14.4841 10C14.4841 9.86194 14.5959 9.74146 14.7341 9.74146C14.8721 9.74146 14.9839 9.84473 14.9839 9.98279H14.7339L14.9839 9.98975C14.9841 10.0874 14.9819 10.1741 14.9775 10.2604C14.9707 10.394 14.8604 10.4978 14.728 10.4978ZM5.26099 10.2673C5.1228 10.2673 5.01172 10.1438 5.01172 10.0057C5.01172 10.0026 5.01172 9.99878 5.01196 9.99475C5.01196 9.91101 5.01416 9.82776 5.01831 9.74512C5.02563 9.60718 5.14575 9.50024 5.28101 9.50842C5.41895 9.5155 5.5249 9.63306 5.51782 9.771C5.51392 9.8468 5.51196 9.92322 5.51196 10C5.51196 10.0098 5.51147 10.0195 5.51025 10.0292C5.51001 10.1672 5.39893 10.2673 5.26099 10.2673ZM14.6274 9.24939C14.5122 9.24939 14.4087 9.16943 14.3833 9.05237C14.3667 8.97546 14.3481 8.89929 14.3276 8.82385C14.2917 8.69067 14.3706 8.55334 14.5039 8.51733C14.6357 8.48206 14.7744 8.56018 14.8105 8.69336C14.833 8.77698 14.8535 8.86121 14.8721 8.94641C14.9014 9.0813 14.8157 9.21448 14.6807 9.24365C14.6628 9.24756 14.645 9.24939 14.6274 9.24939ZM5.42139 9.03101C5.40015 9.03101 5.37842 9.0282 5.35693 9.02258C5.22363 8.98718 5.14404 8.85022 5.17944 8.7168C5.2019 8.63232 5.22656 8.54883 5.25342 8.46619C5.2959 8.33508 5.43604 8.2627 5.56836 8.30542C5.69971 8.3479 5.77148 8.48889 5.729 8.62024C5.70508 8.69434 5.68286 8.76929 5.66284 8.84497C5.63306 8.95691 5.53198 9.03101 5.42139 9.03101ZM14.2104 8.08679C14.1199 8.08679 14.0325 8.03748 13.988 7.95142C13.9521 7.88184 13.9146 7.81335 13.875 7.74597C13.8057 7.62671 13.8459 7.47363 13.9651 7.40405C14.0845 7.33459 14.2373 7.37488 14.3071 7.49402C14.3506 7.56897 14.3926 7.64502 14.4324 7.72217C14.4956 7.84485 14.4475 7.99573 14.3247 8.05896C14.2881 8.07788 14.249 8.08679 14.2104 8.08679ZM5.89355 7.8894C5.85107 7.8894 5.80786 7.87854 5.76855 7.85571C5.64893 7.7865 5.60815 7.63354 5.67749 7.51416C5.72119 7.43884 5.7666 7.36475 5.81372 7.29199C5.88867 7.17615 6.0437 7.14343 6.15942 7.21838C6.27539 7.29358 6.30835 7.44836 6.23315 7.56421C6.19043 7.62988 6.14941 7.69666 6.11011 7.76465C6.06372 7.84473 5.97974 7.8894 5.89355 7.8894ZM13.5063 7.07214C13.4382 7.07214 13.3704 7.04443 13.321 6.98999C13.2685 6.93213 13.2146 6.87561 13.1589 6.82043C13.061 6.72302 13.0605 6.56482 13.158 6.4668C13.2554 6.36914 13.4136 6.36853 13.5115 6.4657C13.573 6.52698 13.6333 6.58984 13.6917 6.6543C13.7844 6.75659 13.7766 6.91467 13.6743 7.00745C13.6265 7.05078 13.5664 7.07214 13.5063 7.07214ZM6.64526 6.90869C6.5813 6.90869 6.51758 6.8844 6.46875 6.83569C6.37085 6.73816 6.37085 6.57983 6.46826 6.48206C6.52979 6.42053 6.59277 6.36047 6.65723 6.30237C6.75952 6.20996 6.91772 6.21753 7.01025 6.32043C7.10278 6.42297 7.09473 6.58105 6.99219 6.67346C6.93408 6.72595 6.87744 6.77991 6.82227 6.83533C6.77344 6.88416 6.70923 6.90869 6.64526 6.90869ZM12.5652 6.27197C12.5185 6.27197 12.4714 6.25903 12.4294 6.23181C12.3638 6.18933 12.2971 6.14844 12.2292 6.1095C12.1094 6.04065 12.0681 5.88782 12.137 5.76807C12.2058 5.64844 12.3582 5.6073 12.4783 5.6759C12.554 5.71948 12.6284 5.76477 12.7014 5.81213C12.8171 5.88721 12.8503 6.04199 12.7751 6.15796C12.7273 6.23181 12.6472 6.27197 12.5652 6.27197ZM7.62329 6.15393C7.53711 6.15393 7.45337 6.1095 7.40698 6.02966C7.33765 5.9104 7.37793 5.75732 7.49731 5.68787C7.57227 5.64417 7.64844 5.60242 7.72583 5.56262C7.84912 5.49927 7.99951 5.54822 8.0625 5.6709C8.12549 5.7937 8.07715 5.94446 7.95435 6.00745C7.88477 6.04309 7.81641 6.08069 7.74878 6.12C7.70923 6.14307 7.66602 6.15393 7.62329 6.15393ZM11.4492 5.74146C11.4238 5.74146 11.3979 5.73755 11.3726 5.72925C11.2983 5.70532 11.2231 5.68323 11.1472 5.66321C11.0139 5.62781 10.9343 5.49084 10.9697 5.35742C11.0054 5.224 11.1423 5.14539 11.2756 5.17981C11.3599 5.20227 11.4434 5.22681 11.5259 5.25342C11.6572 5.29578 11.7295 5.43665 11.6873 5.56799C11.6531 5.67395 11.5549 5.74146 11.4492 5.74146ZM8.76221 5.67773C8.6521 5.67773 8.55127 5.60437 8.52124 5.49292C8.48511 5.35962 8.56372 5.22241 8.69702 5.18628C8.78076 5.1637 8.86523 5.14307 8.95044 5.12476C9.08691 5.09607 9.21875 5.18164 9.24756 5.31653C9.27661 5.45154 9.19067 5.58447 9.05591 5.61353C8.979 5.63013 8.90283 5.64856 8.82788 5.66895C8.80591 5.6748 8.78394 5.67773 8.76221 5.67773ZM10.2346 5.51978C10.2305 5.51978 10.2261 5.51965 10.2219 5.51941C10.1475 5.51575 10.073 5.51392 9.99805 5.51392C9.85986 5.51392 9.74219 5.40198 9.74219 5.26392C9.74219 5.12585 9.84839 5.01392 9.98657 5.01392H9.99805C10.0813 5.01392 10.1641 5.01599 10.2468 5.02014C10.3848 5.02698 10.491 5.14429 10.4841 5.28223C10.4775 5.41589 10.3669 5.51978 10.2346 5.51978Z" stroke="#C8C8C8" stroke-width="0.4" mask="url(#path-3-outside-1_1_4005)"/>
<path d="M8.4459 9.35535C8.4459 10.2109 9.1418 10.9066 9.99731 10.9066C10.8528 10.9066 11.5485 10.2109 11.5485 9.35535C11.5485 8.49995 10.8528 7.80417 9.99731 7.80417C9.14181 7.80417 8.4459 8.49993 8.4459 9.35535ZM9.1459 9.35535C9.1459 8.88606 9.52786 8.50417 9.99731 8.50417C10.4665 8.50417 10.8485 8.88605 10.8485 9.35535C10.8485 9.82466 10.4665 10.2066 9.99731 10.2066C9.52788 10.2066 9.1459 9.82465 9.1459 9.35535Z" fill="#C8C8C8" stroke="#C8C8C8" stroke-width="0.2"/>
<path d="M7.3578 12.2904C7.32909 12.4107 7.36603 12.537 7.45486 12.623L12.5417 12.623C12.6305 12.5371 12.6675 12.4107 12.6388 12.2904C12.3465 11.0645 11.2603 10.2082 9.99829 10.2082C8.73629 10.2082 7.65006 11.0645 7.3578 12.2904ZM9.99829 12.9569C9.29811 12.9569 8.63017 12.7106 8.09503 12.259C8.3733 11.4544 9.12916 10.9082 9.99829 10.9082C10.8674 10.9082 11.6233 11.4544 11.9015 12.259C11.3664 12.7106 10.6985 12.9569 9.99829 12.9569Z" fill="#C8C8C8" stroke="#C8C8C8" stroke-width="0.2"/>
</svg>
