<?xml version="1.0" encoding="UTF-8"?>
<svg id="Capa_1" data-name="Capa 1" xmlns="http://www.w3.org/2000/svg" viewBox="0 0 100 100">
  <defs>
    <style>
      .cls-1 {
        fill: #C8C8C8;
      }
    </style>
  </defs>
  <path class="cls-1" d="M71.49,33.61c-.87-.38-1.79-.67-2.68-1.02-.33-.13-.72-.29-.61-.72,.09-.36,.48-.29,.77-.3,.86-.02,1.71,.02,2.57-.03,4.74-.29,7.94-4.7,6.63-9.12-.92-3.1-3.62-5.13-7.02-5.18-3.22-.05-6.45-.05-9.67,0-1.24,.02-1.84-.17-1.22-1.58,.44-1.02,.53-2.13,.3-3.26-.75-3.7-3.53-6.03-7.4-6.05-6.04-.03-12.08,0-18.13,0-6.04,0-12.08-.02-18.13,0-3.76,.02-6.73,2.37-7.37,5.71-.86,4.55,2.41,8.5,7.2,8.59,3.27,.06,6.55,.04,9.82,0,1.06-.01,1.7,.06,1.09,1.37-.53,1.13-.35,2.36-.32,3.57,.02,.83,1.06,1.73,.34,2.32-.53,.43-1.64,.15-2.49,.17-3.07,.05-5.53,1.24-6.87,4.08-1.3,2.74-.94,5.41,1.04,7.75,.48,.57,.51,.9,.04,1.52-2.47,3.2-2.47,6.21-.02,9.37,.46,.6,.47,.92,0,1.52-2.46,3.18-2.45,6.17,0,9.38,.39,.51,.58,.83,.08,1.4-2.1,2.41-2.48,5.17-1.08,8,1.42,2.87,3.98,3.96,7.1,3.95,5.14-.02,10.27,.01,15.41-.02,1.02,0,1.79,.3,2.56,1,5.89,5.39,12.79,7.79,20.78,6.93,11.72-1.27,21.1-10.35,22.66-22.48,1.53-11.91-5.13-22.42-15.37-26.89Zm-1.09-12.93c.25,0,.5,0,.75,0,2.33,.07,3.89,1.55,3.89,3.7,0,2.16-1.55,3.69-3.88,3.7-6.13,.03-12.27,0-18.4,0-6.13,0-12.27,.02-18.4-.01-2.07-.01-3.54-1.4-3.77-3.39-.18-1.58,.97-3.37,2.58-3.82,.66-.19,1.39-.18,2.09-.18,11.71,0,23.43,0,35.14,0Zm-53.87-3.46c-1.63,0-2.78-.77-3.45-2.24-.65-1.43-.34-2.76,.63-3.93,.88-1.06,2.09-1.25,3.4-1.25,9.2,.02,18.4,0,27.6,0,2.82,0,5.63-.02,8.45,0,2.46,.02,4.04,1.49,4.04,3.7,0,2.21-1.58,3.7-4.03,3.71-6.08,.02-12.17,0-18.25,0-6.13,0-12.27,0-18.4,0Zm8.54,14.35c11-.01,22,0,33.01,0-5.42,.81-10.19,2.98-14.25,6.66-.65,.59-1.35,.77-2.2,.76-5.53-.02-11.06,0-16.59-.02-2.44,0-4.1-1.5-4.16-3.64-.05-2.17,1.68-3.76,4.18-3.77Zm-.46,29.15c-2.09-.06-3.67-1.63-3.72-3.62-.06-2.01,1.59-3.73,3.73-3.76,3.27-.05,6.55,0,9.82-.03,.85,0,1.13,.25,1.08,1.14-.1,1.61-.12,3.22-.05,4.83,.05,1.15-.4,1.52-1.49,1.47-1.56-.06-3.12-.01-4.68-.01h0c-1.56,0-3.12,.03-4.68-.02Zm10.56-10.85c-1.76-.04-3.52-.01-5.28-.01h0c-1.76,0-3.52,.03-5.28-.02-2.09-.06-3.66-1.63-3.72-3.62-.06-2.01,1.58-3.74,3.72-3.76,4.68-.05,9.35,0,14.03-.03,.98,0,1.34,.17,.7,1.16-1.03,1.61-1.9,3.32-2.49,5.15-.28,.88-.82,1.15-1.69,1.13Zm2.79,21.76c-2.21-.06-4.43-.02-6.64-.02-2.16,0-4.33,.02-6.49-.01-2.29-.03-3.95-1.62-3.95-3.7,0-2.08,1.67-3.68,3.95-3.7,3.37-.03,6.74,.02,10.11-.03,.96-.01,1.47,.31,1.74,1.25,.48,1.7,1.23,3.31,2.17,4.8,.83,1.31,.3,1.44-.9,1.4Zm23.22,8.17c-11.41-.01-22.46-9.04-22.44-22.51,.02-13.41,11.04-22.58,22.51-22.4,11.28-.15,22.43,8.85,22.44,22.48,0,13.23-10.85,22.45-22.51,22.43Z"/>
  <path class="cls-1" d="M61.21,53.46c-1.03-.07-2.04-.17-2.96-.64-1.48-.74-2.51-1.93-2.3-3.62,.23-1.8,1.36-3.02,3.24-3.38,3.09-.59,5.07,.59,5.85,3.69,.37,1.48,1.1,2.46,2.66,2.29,1.56-.17,2.16-1.31,2.11-2.83-.28-3.42-2.07-5.81-5.1-7.3-1.01-.49-1.89-.86-2.04-2.23-.12-1.11-1.06-1.71-2.22-1.7-1.16,0-2.05,.61-2.2,1.73-.16,1.22-.86,1.67-1.85,2.13-3.93,1.85-5.83,5.34-5.19,9.37,.55,3.51,3.73,6.48,7.64,7.12,1,.16,2.03,.23,3.02,.46,1.62,.39,2.72,1.4,3.01,3.08,.27,1.61-.45,2.82-1.8,3.67-2.86,1.8-6.35,.43-7.17-2.93-.37-1.54-1-2.68-2.71-2.46-1.88,.24-2.2,1.7-2.01,3.28,.38,3.26,2.29,5.43,5.12,6.84,.94,.47,1.76,.82,1.96,2.06,.18,1.11,1.1,1.69,2.26,1.67,1.06-.02,1.91-.56,2.12-1.57,.23-1.16,.9-1.65,1.89-2.13,4.05-1.96,5.96-5.61,5.16-9.6-.76-3.77-4.27-6.7-8.47-7Z"/>
</svg>