<?xml version="1.0" encoding="UTF-8"?>
<svg id="Capa_1" data-name="Capa 1" xmlns="http://www.w3.org/2000/svg" viewBox="0 0 100 100">
  <defs>
    <style>
      .cls-1 {
        fill: #C8C8C8;
      }
    </style>
  </defs>
  <path class="cls-1" d="M92.02,69.25v-6.01c0-6.37-2.84-12.35-8-16.85-2.24-1.96-4.96-3.59-8.07-4.81l-.94-.38,.71-.66c4.33-4.05,6.26-10.75,5.74-19.91,0-8.17-7.47-14.79-16.64-14.79-4.43,0-8.6,1.53-11.76,4.31-3.15,2.77-4.88,6.43-4.88,10.3-.52,9.24,1.4,15.96,5.69,20.03l.71,.67-.95,.37c-2.54,.99-4.88,2.32-6.98,3.94l-1.82,1.42,.6-2.06c.99-3.39,1.35-7.42,1.09-11.99,0-8.17-7.47-14.79-16.64-14.79-4.43,0-8.61,1.53-11.76,4.31-3.15,2.77-4.88,6.43-4.88,10.3-.52,9.24,1.39,15.96,5.69,20.03l.7,.67-.94,.37c-9.73,3.84-16.02,12.29-16.02,21.55v6.19c0,1.32,1.24,2.4,2.75,2.4H54.32c1.52,0,2.75-1.08,2.75-2.4v-6.01c0-.81-.13-1.6-.26-2.43l-.21-1.36h32.66c1.52,0,2.75-1.08,2.75-2.4ZM52.74,20.65c0-5.36,5.32-9.75,11.86-9.75s11.86,4.45,11.86,9.92c.61,9.98-2.1,16.13-8.04,18.25l-.16,.06-7.49-.06c-5.94-2.12-8.65-8.32-8.04-18.42Zm-34.67,12.09c0-5.14,5.48-9.34,12.21-9.34s12.2,4.26,12.21,9.5c.63,9.56-2.16,15.45-8.28,17.48l-.16,.05-7.71-.05c-6.11-2.03-8.9-7.96-8.27-17.64Zm33.87,45.97H8.28v-3.67c0-10.09,9.75-18.29,21.73-18.29,4.08,0,8.1,1,11.64,2.88l.26,.14c.23,.12,.46,.24,.68,.37,1.14,.68,2.17,1.41,3.05,2.16,1.04,.9,1.98,1.91,2.88,3.11,.19,.25,.35,.51,.52,.78l.22,.35c.57,.88,1.04,1.79,1.4,2.68,.87,2.1,1.3,4.06,1.3,6.01v3.5Zm34.92-11.67h-31.75l-.31-.52c-.34-.73-.78-1.39-1.24-2.09l-.34-.53c-.15-.22-.28-.45-.41-.68-.18-.31-.36-.62-.57-.91-.55-.72-1.2-1.36-1.89-2.04l-.39-.39c-.18-.18-.35-.37-.52-.56-.2-.23-.4-.47-.64-.67-1.16-1.01-2.42-1.94-3.78-2.76l-.53-.32,.27-.51c3.59-6.71,11.42-11.05,19.93-11.05,5.92,0,11.49,2.01,15.68,5.67,4.19,3.67,6.49,8.52,6.49,13.69v3.67Z"/>
</svg>