<?xml version="1.0" encoding="UTF-8"?>
<svg id="Capa_1" data-name="Capa 1" xmlns="http://www.w3.org/2000/svg" viewBox="0 0 100 100">
  <defs>
    <style>
      .cls-1 {
        fill: #C8C8C8;
      }
    </style>
  </defs>
  <path class="cls-1" d="M60.16,55c-.63-.96-1.47-1.73-2.5-2.32-1.03-.58-2.18-1.04-3.43-1.41-.91-.26-1.81-.48-2.71-.7v-9.65c1.01,.07,2.04,.21,3.1,.49,1.38,.37,2.69,.97,3.93,1.8l1.36-3.31c-1.21-.83-2.65-1.46-4.3-1.9-1.35-.36-2.72-.54-4.09-.6v-4.69h-2.65v4.77c-1.73,.14-3.3,.43-4.53,.99-1.64,.76-2.85,1.76-3.64,3.02-.79,1.26-1.18,2.63-1.18,4.12s.32,2.8,.95,3.78c.63,.98,1.47,1.76,2.5,2.34,1.03,.58,2.18,1.06,3.43,1.43,.82,.24,1.64,.44,2.46,.64v9.55c-1.47-.1-2.92-.35-4.3-.86-1.71-.64-3.12-1.43-4.22-2.4l-1.53,3.22c1.16,1.08,2.74,1.95,4.75,2.63,1.69,.57,3.47,.84,5.29,.93v4.71h2.65v-4.76c1.79-.14,3.41-.42,4.69-1.01,1.67-.76,2.9-1.76,3.7-3.02,.8-1.25,1.2-2.61,1.2-4.07s-.32-2.76-.95-3.72Zm-13.09-5.67c-1.03-.36-1.87-.84-2.52-1.45-.65-.61-.97-1.42-.97-2.44,0-.86,.24-1.63,.72-2.32,.48-.69,1.25-1.24,2.29-1.65,.64-.25,1.42-.4,2.27-.5v8.87c-.6-.17-1.25-.32-1.8-.51Zm9.24,11.93c-.5,.68-1.27,1.21-2.32,1.59-.68,.25-1.54,.39-2.48,.48v-8.81c.69,.19,1.43,.36,2.05,.58,1.03,.37,1.87,.86,2.52,1.47,.65,.61,.97,1.41,.97,2.4,0,.85-.25,1.62-.74,2.3Z"/>
  <path class="cls-1" d="M78.71,28.94l-14.26-13.84c-1.21-1.17-2.8-1.82-4.49-1.82H28.38c-3.55,0-6.44,2.89-6.44,6.44v57.14h-3.2c-.65,0-1.26,.29-1.67,.79-.41,.5-.57,1.15-.45,1.79,1.85,9.27,9.34,11.6,13.7,11.6,.38,0,.73-.02,1.05-.05l38.75,.02h0c.3,0,.59-.07,.85-.18,5.46-.76,9.68-5.41,9.68-11.07V33.56c0-1.73-.71-3.42-1.96-4.62Zm-3,3.09c.41,.4,.65,.96,.65,1.53v.6h-13.1v-14.21l12.45,12.08ZM31.19,86.7c-.78,.07-6.97,.39-9.55-5.52H60.97c.08,1.57,.41,3.66,1.44,5.54H31.19Zm38.62-.05c-1.33-.06-2.36-.44-3.06-1.23-1.55-1.75-1.56-5.03-1.43-6.15,.07-.61-.12-1.23-.53-1.68-.41-.46-.99-.72-1.61-.72H26.24V19.72c0-1.18,.96-2.14,2.14-2.14h30.58v18.72c0,1.19,.96,2.15,2.15,2.15h15.26v41.31c0,3.69-2.91,6.7-6.55,6.89Z"/>
</svg>