<?xml version="1.0" encoding="UTF-8"?>
<svg id="Capa_1" data-name="Capa 1" xmlns="http://www.w3.org/2000/svg" viewBox="0 0 100 100">
  <defs>
    <style>
      .cls-1 {
        fill: #C8C8C8;
      }

      .cls-2 {
        fill: none;
      }
    </style>
  </defs>
  <circle class="cls-2" cx="49.54" cy="51.97" r="10.05"/>
  <path class="cls-1" d="M64.73,51.97c0-8.38-6.81-15.19-15.19-15.19s-15.19,6.81-15.19,15.19,6.81,15.19,15.19,15.19,15.19-6.81,15.19-15.19Zm-15.19,10.52c-5.8,0-10.52-4.72-10.52-10.52s4.72-10.52,10.52-10.52,10.52,4.72,10.52,10.52-4.72,10.52-10.52,10.52Z"/>
  <path class="cls-2" d="M74.43,45.73c-.64-2.53-1.6-4.88-2.86-6.97-.51-.85-.49-1.92,.07-2.75l3.69-5.53-4.29-4.29-5.53,3.69c-.43,.29-.93,.43-1.43,.43-.46,0-.92-.12-1.32-.37-2.16-1.3-4.51-2.27-6.97-2.89-.96-.24-1.7-1.02-1.9-1.99l-1.3-6.52h-6.07l-1.3,6.52c-.2,.97-.93,1.75-1.9,1.99-2.46,.61-4.8,1.59-6.97,2.89-.41,.25-.87,.37-1.33,.37-.5,0-.99-.14-1.43-.43l-5.53-3.69-4.29,4.29,3.69,5.53c.55,.83,.58,1.9,.07,2.75-1.3,2.17-2.27,4.51-2.88,6.97-.24,.96-1.02,1.7-1.99,1.9l-6.52,1.3v6.07l6.52,1.3c.97,.19,1.75,.93,1.99,1.9,.61,2.46,1.58,4.8,2.88,6.97,.51,.85,.49,1.92-.07,2.75l-3.69,5.53,4.29,4.29,5.53-3.69c.43-.29,.93-.43,1.43-.43,.46,0,.92,.12,1.32,.37,2.16,1.3,4.51,2.27,6.97,2.89,.96,.24,1.7,1.02,1.9,1.99l1.3,6.52h6.07l1.3-6.52c.2-.97,.93-1.75,1.9-1.99,2.46-.61,4.8-1.59,6.97-2.89,.41-.25,.87-.37,1.32-.37,.5,0,1,.15,1.43,.43l5.53,3.69,4.29-4.29-3.69-5.53c-.55-.83-.58-1.9-.07-2.75,1.26-2.09,2.22-4.44,2.86-6.97,.24-.96,1.02-1.69,1.99-1.89l6.55-1.31v-6.07l-6.55-1.31c-.97-.19-1.74-.93-1.99-1.89Z"/>
  <path class="cls-1" d="M85.95,44.77l-7.07-1.41-.28-.06-.08-.27c-.56-1.84-1.29-3.61-2.16-5.26l-.13-.25,.16-.23,3.98-5.97c.55-.83,.44-1.94-.26-2.65l-7.27-7.27c-.4-.4-.93-.62-1.49-.62-.41,0-.82,.12-1.16,.35l-5.97,3.98-.23,.16-.25-.13c-1.68-.89-3.45-1.63-5.26-2.18l-.27-.08-.06-.28-1.41-7.04c-.2-.98-1.06-1.69-2.06-1.69h-10.28c-1,0-1.86,.71-2.06,1.69l-1.41,7.04-.06,.28-.27,.08c-1.81,.56-3.58,1.29-5.26,2.18l-.25,.13-.23-.16-5.97-3.98c-.35-.23-.75-.35-1.16-.35-.56,0-1.09,.22-1.48,.62l-7.27,7.27c-.7,.7-.82,1.82-.26,2.65l3.98,5.97,.16,.23-.13,.25c-.89,1.68-1.62,3.45-2.18,5.26l-.08,.27-.28,.06-7.04,1.41c-.98,.2-1.69,1.06-1.69,2.06v10.28c0,1,.71,1.86,1.69,2.06l7.04,1.41,.28,.06,.08,.27c.56,1.82,1.29,3.59,2.18,5.26l.13,.25-.16,.23-3.98,5.97c-.55,.83-.44,1.94,.26,2.65l7.27,7.27c.4,.4,.92,.61,1.48,.61,.42,0,.82-.12,1.16-.35l5.97-3.98,.23-.16,.25,.13c1.68,.89,3.45,1.62,5.26,2.18l.27,.08,.06,.28,1.41,7.04c.2,.98,1.06,1.69,2.06,1.69h10.28c1,0,1.86-.71,2.06-1.69l1.41-7.04,.06-.28,.27-.08c1.81-.56,3.58-1.29,5.26-2.18l.25-.13,.23,.16,5.97,3.98c.35,.23,.75,.35,1.16,.35,.56,0,1.09-.22,1.49-.62l7.27-7.27c.7-.7,.82-1.82,.26-2.65l-3.98-5.97-.16-.23,.13-.25c.87-1.65,1.59-3.42,2.16-5.26l.08-.27,.28-.06,7.07-1.41c.98-.2,1.69-1.06,1.69-2.06v-10.28c0-1-.71-1.86-1.69-2.06Zm-2.51,4.17v6.46l-.38,.08-6.55,1.31c-.79,.16-1.43,.76-1.62,1.54-.65,2.58-1.63,4.97-2.92,7.1-.42,.69-.39,1.57,.05,2.24l3.69,5.53,.21,.32-.27,.27-4.29,4.29-.27,.27-.32-.21-5.53-3.69c-.35-.23-.75-.35-1.17-.35-.38,0-.75,.1-1.08,.3-2.21,1.33-4.59,2.32-7.1,2.94-.78,.2-1.39,.83-1.55,1.62l-1.3,6.52-.08,.38h-6.85l-.08-.38-1.3-6.52c-.16-.79-.77-1.43-1.55-1.62-2.5-.63-4.89-1.61-7.1-2.94-.33-.2-.7-.3-1.08-.3-.42,0-.82,.12-1.17,.35l-5.53,3.69-.32,.21-.27-.27-4.29-4.29-.27-.27,.21-.32,3.69-5.53c.45-.67,.47-1.55,.05-2.25-1.32-2.2-2.31-4.59-2.94-7.1-.2-.78-.83-1.39-1.62-1.55l-6.52-1.3-.38-.08v-6.84l.38-.08,6.52-1.3c.79-.16,1.43-.77,1.63-1.55,.63-2.51,1.61-4.89,2.94-7.1,.42-.69,.4-1.57-.05-2.24l-3.69-5.53-.21-.32,.27-.27,4.29-4.29,.27-.27,.32,.21,5.53,3.69c.35,.23,.75,.35,1.16,.35,.38,0,.75-.1,1.08-.3,2.2-1.33,4.59-2.31,7.1-2.94,.78-.2,1.39-.83,1.55-1.62l1.3-6.52,.08-.38h6.85l.08,.38,1.3,6.52c.16,.79,.77,1.43,1.55,1.62,2.5,.63,4.89,1.62,7.1,2.94,.33,.2,.7,.3,1.08,.3,.42,0,.82-.12,1.17-.35l5.53-3.69,.32-.21,.27,.27,4.29,4.29,.27,.27-.21,.32-3.69,5.53c-.45,.67-.47,1.55-.05,2.24,1.28,2.13,2.26,4.52,2.92,7.1,.2,.78,.83,1.38,1.62,1.54l6.55,1.31,.38,.08v.39Z"/>
</svg>