<svg width="15" height="16" viewBox="0 0 15 16" fill="none" xmlns="http://www.w3.org/2000/svg">
<mask id="path-1-outside-1_1_4020" maskUnits="userSpaceOnUse" x="0" y="0" width="15" height="16" fill="black">
<rect fill="white" width="15" height="16"/>
<path d="M9.16667 5.66668C9.16667 5.72856 9.14209 5.78791 9.09833 5.83167C9.05457 5.87543 8.99523 5.90001 8.93334 5.90001H2.63333C2.57145 5.90001 2.5121 5.87543 2.46834 5.83167C2.42458 5.78791 2.4 5.72856 2.4 5.66668C2.4 5.60479 2.42458 5.54544 2.46834 5.50168C2.5121 5.45793 2.57145 5.43334 2.63333 5.43334H8.93334C8.99523 5.43334 9.05457 5.45793 9.09833 5.50168C9.14209 5.54544 9.16667 5.60479 9.16667 5.66668ZM8.93334 4.03334H4.96667C4.90479 4.03334 4.84544 4.05792 4.80168 4.10168C4.75792 4.14544 4.73334 4.20479 4.73334 4.26667C4.73334 4.32856 4.75792 4.38791 4.80168 4.43167C4.84544 4.47543 4.90479 4.50001 4.96667 4.50001H8.93334C8.99523 4.50001 9.05457 4.47543 9.09833 4.43167C9.14209 4.38791 9.16667 4.32856 9.16667 4.26667C9.16667 4.20479 9.14209 4.14544 9.09833 4.10168C9.05457 4.05792 8.99523 4.03334 8.93334 4.03334ZM2.63333 3.10001H6.83334C6.89522 3.10001 6.95457 3.07542 6.99833 3.03166C7.04209 2.98791 7.06667 2.92856 7.06667 2.86667C7.06667 2.80479 7.04209 2.74544 6.99833 2.70168C6.95457 2.65792 6.89522 2.63334 6.83334 2.63334H2.63333C2.57145 2.63334 2.5121 2.65792 2.46834 2.70168C2.42458 2.74544 2.4 2.80479 2.4 2.86667C2.4 2.92856 2.42458 2.98791 2.46834 3.03166C2.5121 3.07542 2.57145 3.10001 2.63333 3.10001ZM2.63333 6.83334C2.57145 6.83334 2.5121 6.85793 2.46834 6.90169C2.42458 6.94544 2.4 7.00479 2.4 7.06668C2.4 7.12856 2.42458 7.18791 2.46834 7.23167C2.5121 7.27543 2.57145 7.30001 2.63333 7.30001H6.60001C6.66189 7.30001 6.72124 7.27543 6.765 7.23167C6.80876 7.18791 6.83334 7.12856 6.83334 7.06668C6.83334 7.00479 6.80876 6.94544 6.765 6.90169C6.72124 6.85793 6.66189 6.83334 6.60001 6.83334H2.63333ZM8.93334 6.83334H7.53334C7.47146 6.83334 7.41211 6.85793 7.36835 6.90169C7.32459 6.94544 7.30001 7.00479 7.30001 7.06668C7.30001 7.12856 7.32459 7.18791 7.36835 7.23167C7.41211 7.27543 7.47146 7.30001 7.53334 7.30001H8.93334C8.99523 7.30001 9.05457 7.27543 9.09833 7.23167C9.14209 7.18791 9.16667 7.12856 9.16667 7.06668C9.16667 7.00479 9.14209 6.94544 9.09833 6.90169C9.05457 6.85793 8.99523 6.83334 8.93334 6.83334ZM2.63333 4.50001H4.03334C4.09522 4.50001 4.15457 4.47543 4.19833 4.43167C4.24209 4.38791 4.26667 4.32856 4.26667 4.26667C4.26667 4.20479 4.24209 4.14544 4.19833 4.10168C4.15457 4.05792 4.09522 4.03334 4.03334 4.03334H2.63333C2.57145 4.03334 2.5121 4.05792 2.46834 4.10168C2.42458 4.14544 2.4 4.20479 2.4 4.26667C2.4 4.32856 2.42458 4.38791 2.46834 4.43167C2.5121 4.47543 2.57145 4.50001 2.63333 4.50001ZM8.23334 8.46668C8.23334 8.40479 8.20876 8.34545 8.165 8.30169C8.12124 8.25793 8.06189 8.23335 8.00001 8.23335H2.63333C2.57145 8.23335 2.5121 8.25793 2.46834 8.30169C2.42458 8.34545 2.4 8.40479 2.4 8.46668C2.4 8.52856 2.42458 8.58791 2.46834 8.63167C2.5121 8.67543 2.57145 8.70001 2.63333 8.70001H8.00001C8.06189 8.70001 8.12124 8.67543 8.165 8.63167C8.20876 8.58791 8.23334 8.52856 8.23334 8.46668ZM4.74815 10.9076C4.76027 10.9836 4.76652 11.0605 4.76682 11.1375C4.77413 11.3378 4.71623 11.5352 4.60183 11.6998C4.53562 11.7869 4.44934 11.8566 4.35035 11.9031C4.25136 11.9495 4.14259 11.9714 4.03334 11.9667C3.93478 11.9686 3.83689 11.9503 3.74572 11.9128C3.65456 11.8753 3.57208 11.8195 3.5034 11.7487C3.43472 11.678 3.38131 11.594 3.34649 11.5017C3.31166 11.4095 3.29617 11.3111 3.30097 11.2127C3.30129 10.9873 3.38941 10.771 3.54663 10.6095C3.67415 10.4816 3.83681 10.3944 4.01397 10.359C3.96306 10.2856 3.89657 10.2243 3.81925 10.1795C3.74193 10.1348 3.65569 10.1076 3.56667 10.1C2.99519 10.1 2.86667 11.286 2.86667 11.7015C2.86667 11.7633 2.84209 11.8227 2.79833 11.8664C2.75457 11.9102 2.69522 11.9348 2.63333 11.9348C2.57145 11.9348 2.5121 11.9102 2.46834 11.8664C2.42458 11.8227 2.4 11.7633 2.4 11.7015C2.4 10.9333 2.64563 9.63335 3.56667 9.63335C3.78488 9.64862 3.99447 9.72464 4.17173 9.85281C4.34899 9.98098 4.48685 10.1562 4.56972 10.3586C4.73971 10.3845 4.90244 10.4455 5.04748 10.5378C5.19253 10.6301 5.31671 10.7517 5.41206 10.8948C5.50197 10.7207 5.63934 10.5755 5.80826 10.4762C5.97719 10.3768 6.17079 10.3273 6.36667 10.3333C6.42856 10.3333 6.48791 10.3579 6.53166 10.4017C6.57542 10.4454 6.60001 10.5048 6.60001 10.5667C6.60001 10.6286 6.57542 10.6879 6.53166 10.7317C6.48791 10.7754 6.42856 10.8 6.36667 10.8C5.67465 10.8 5.66667 11.6953 5.66667 11.7333C5.66667 11.7952 5.64209 11.8546 5.59833 11.8983C5.55457 11.9421 5.49522 11.9667 5.43334 11.9667C5.37145 11.9667 5.3121 11.9421 5.26835 11.8983C5.22459 11.8546 5.2 11.7952 5.2 11.7333C5.20114 11.5686 5.16024 11.4064 5.08117 11.2619C5.00211 11.1174 4.88749 10.9954 4.74815 10.9076ZM4.30015 11.1375C4.29883 11.023 4.28047 10.9093 4.24567 10.8002C4.11042 10.7961 3.97894 10.8451 3.87934 10.9367C3.80766 11.0107 3.76761 11.1097 3.76769 11.2127C3.76437 11.2494 3.7688 11.2864 3.78069 11.3213C3.79258 11.3563 3.81165 11.3883 3.83669 11.4154C3.86172 11.4424 3.89216 11.464 3.92603 11.4785C3.95991 11.4931 3.99646 11.5004 4.03334 11.5C4.07014 11.5042 4.10741 11.499 4.14165 11.4848C4.17588 11.4707 4.20597 11.4481 4.22908 11.4191C4.28121 11.3348 4.30602 11.2364 4.30015 11.1375ZM13.3667 6.36668C13.3667 6.42856 13.3913 6.48791 13.435 6.53167C13.4788 6.57543 13.5381 6.60001 13.6 6.60001H14.3C14.3619 6.60001 14.4212 6.57543 14.465 6.53167C14.5088 6.48791 14.5333 6.42856 14.5333 6.36668C14.5333 6.30479 14.5088 6.24544 14.465 6.20168C14.4212 6.15793 14.3619 6.13334 14.3 6.13334H13.6C13.5381 6.13334 13.4788 6.15793 13.435 6.20168C13.3913 6.24544 13.3667 6.30479 13.3667 6.36668ZM13.1333 5.90001C13.164 5.90004 13.1943 5.89402 13.2227 5.88229C13.251 5.87056 13.2767 5.85335 13.2983 5.83164L13.765 5.36498C13.8075 5.32097 13.831 5.26203 13.8305 5.20085C13.8299 5.13967 13.8054 5.08115 13.7621 5.03788C13.7189 4.99462 13.6604 4.97008 13.5992 4.96955C13.538 4.96902 13.4791 4.99254 13.435 5.03504L12.9684 5.50171C12.9358 5.53434 12.9135 5.57591 12.9045 5.62117C12.8955 5.66642 12.9002 5.71333 12.9178 5.75596C12.9355 5.79859 12.9654 5.83503 13.0037 5.86067C13.0421 5.88631 13.0872 5.9 13.1333 5.90001ZM12.9684 6.90171C12.9467 6.92337 12.9295 6.94908 12.9178 6.97739C12.906 7.0057 12.9 7.03604 12.9 7.06668C12.9 7.09732 12.906 7.12766 12.9178 7.15597C12.9295 7.18427 12.9467 7.20999 12.9684 7.23164L13.435 7.69831C13.4791 7.74082 13.538 7.76433 13.5992 7.7638C13.6604 7.76327 13.7189 7.73873 13.7621 7.69547C13.8054 7.65221 13.8299 7.59368 13.8305 7.5325C13.831 7.47133 13.8075 7.41238 13.765 7.36838L13.2983 6.90171C13.2767 6.88003 13.2509 6.86284 13.2226 6.85111C13.1943 6.83937 13.164 6.83334 13.1333 6.83334C13.1027 6.83334 13.0724 6.83937 13.0441 6.85111C13.0158 6.86284 12.99 6.88003 12.9684 6.90171ZM7.76667 13.3667C7.76667 13.4286 7.74209 13.4879 7.69833 13.5317C7.65457 13.5754 7.59522 13.6 7.53334 13.6H2.16667C1.85736 13.5997 1.56083 13.4766 1.34211 13.2579C1.1234 13.0392 1.00036 12.7427 1 12.4333V2.16667C1.00036 1.85736 1.1234 1.56083 1.34211 1.34212C1.56083 1.1234 1.85736 1.00037 2.16667 1H8.07999C8.23328 0.999572 8.38514 1.02955 8.52677 1.0882C8.6684 1.14685 8.79698 1.23301 8.90508 1.3417L10.2249 2.66171C10.3336 2.76978 10.4197 2.89833 10.4784 3.03991C10.5371 3.1815 10.5671 3.33331 10.5667 3.48657V7.06668C10.5667 7.12856 10.5421 7.18791 10.4983 7.23167C10.4546 7.27543 10.3952 7.30001 10.3333 7.30001C10.2715 7.30001 10.2121 7.27543 10.1684 7.23167C10.1246 7.18791 10.1 7.12856 10.1 7.06668V3.48657C10.0996 3.43498 10.0935 3.38359 10.0818 3.33334H8.93334C8.74775 3.33314 8.56982 3.25932 8.43859 3.12809C8.30736 2.99686 8.23354 2.81893 8.23334 2.63334V1.48485C8.18305 1.47319 8.13162 1.46709 8.07999 1.46667H2.16667C1.98108 1.46688 1.80315 1.54069 1.67192 1.67192C1.54069 1.80315 1.46687 1.98108 1.46667 2.16667V12.4333C1.46687 12.6189 1.54069 12.7969 1.67192 12.9281C1.80315 13.0593 1.98108 13.1331 2.16667 13.1334H7.53334C7.59522 13.1334 7.65457 13.1579 7.69833 13.2017C7.74209 13.2455 7.76667 13.3048 7.76667 13.3667ZM8.70001 1.79654V2.63334C8.70006 2.69521 8.72466 2.75452 8.76841 2.79827C8.81216 2.84202 8.87147 2.86662 8.93334 2.86667H9.76998L8.70001 1.79654ZM14.5333 11.7333C14.5333 12.5994 14.1894 13.4301 13.5771 14.0427C12.9648 14.6552 12.1344 14.9996 11.2683 15C11.2241 15 11.1797 14.9991 11.1353 14.9973C10.3838 14.9675 9.66572 14.6792 9.1023 14.1811C8.53888 13.683 8.1647 13.0056 8.04298 12.2635C7.92127 11.5214 8.05949 10.76 8.43428 10.108C8.80908 9.45607 9.39746 8.95347 10.1 8.6852V8.23335C10.1002 8.10962 10.1494 7.991 10.2368 7.90352C10.3243 7.81603 10.443 7.76682 10.5667 7.76668H11.0333V7.30001C11.0337 6.9907 11.1567 6.69417 11.3755 6.47545C11.5942 6.25674 11.8907 6.13371 12.2 6.13334H12.6667C12.7286 6.13334 12.7879 6.15793 12.8317 6.20168C12.8754 6.24544 12.9 6.30479 12.9 6.36668C12.9 6.42856 12.8754 6.48791 12.8317 6.53167C12.7879 6.57543 12.7286 6.60001 12.6667 6.60001H12.2C12.0144 6.60021 11.8365 6.67403 11.7053 6.80526C11.574 6.93649 11.5002 7.11442 11.5 7.30001V7.76668H11.9667C12.0904 7.76682 12.209 7.81603 12.2965 7.90352C12.384 7.991 12.4332 8.10962 12.4333 8.23335V8.68496C13.0516 8.91957 13.5838 9.33695 13.9589 9.88153C14.3341 10.4261 14.5344 11.0721 14.5333 11.7333ZM14.0667 11.7333C14.0675 11.1415 13.8802 10.5648 13.5318 10.0864C13.1833 9.60801 12.6918 9.25281 12.1282 9.07211C12.0813 9.05698 12.0403 9.02734 12.0113 8.98746C11.9823 8.94758 11.9667 8.89952 11.9667 8.85019V8.23335H10.5667V8.85019C10.5667 8.89952 10.5511 8.94758 10.522 8.98746C10.493 9.02734 10.4521 9.05698 10.4051 9.07211C10.0047 9.20175 9.63863 9.42005 9.33424 9.71075C9.02984 10.0014 8.79493 10.3571 8.64701 10.7511C8.49908 11.1452 8.44194 11.5675 8.47984 11.9867C8.51774 12.4059 8.64971 12.8112 8.86591 13.1723C9.08212 13.5334 9.377 13.8411 9.7286 14.0725C10.0802 14.3039 10.4795 14.453 10.8967 14.5087C11.3139 14.5644 11.7383 14.5253 12.1383 14.3943C12.5383 14.2633 12.9035 14.0438 13.2069 13.752C13.4799 13.4916 13.6969 13.1783 13.8447 12.8312C13.9925 12.4841 14.068 12.1106 14.0667 11.7333ZM11.15 10.8H11.9667C12.0286 10.8 12.0879 10.7754 12.1317 10.7317C12.1754 10.6879 12.2 10.6286 12.2 10.5667C12.2 10.5048 12.1754 10.4454 12.1317 10.4017C12.0879 10.3579 12.0286 10.3333 11.9667 10.3333H11.5V10.1C11.5 10.0381 11.4754 9.97878 11.4317 9.93502C11.3879 9.89126 11.3286 9.86668 11.2667 9.86668C11.2048 9.86668 11.1454 9.89126 11.1017 9.93502C11.0579 9.97878 11.0333 10.0381 11.0333 10.1V10.345C10.8289 10.3739 10.6431 10.4793 10.5134 10.6399C10.3837 10.8005 10.3198 11.0044 10.3347 11.2103C10.3495 11.4162 10.4419 11.6088 10.5932 11.7492C10.7446 11.8896 10.9436 11.9673 11.15 11.9667H11.3833C11.4762 11.9667 11.5652 12.0036 11.6308 12.0692C11.6965 12.1348 11.7333 12.2239 11.7333 12.3167C11.7333 12.4095 11.6965 12.4985 11.6308 12.5642C11.5652 12.6298 11.4762 12.6667 11.3833 12.6667H10.5667C10.5048 12.6667 10.4454 12.6913 10.4017 12.735C10.3579 12.7788 10.3333 12.8381 10.3333 12.9C10.3333 12.9619 10.3579 13.0212 10.4017 13.065C10.4454 13.1088 10.5048 13.1334 10.5667 13.1334H11.0333V13.3667C11.0333 13.4286 11.0579 13.4879 11.1017 13.5317C11.1454 13.5754 11.2048 13.6 11.2667 13.6C11.3286 13.6 11.3879 13.5754 11.4317 13.5317C11.4754 13.4879 11.5 13.4286 11.5 13.3667V13.1217C11.7044 13.0928 11.8902 12.9874 12.0199 12.8268C12.1496 12.6662 12.2135 12.4623 12.1987 12.2564C12.1839 12.0505 12.0915 11.8579 11.9401 11.7175C11.7888 11.5771 11.5898 11.4994 11.3833 11.5H11.15C11.0572 11.5 10.9682 11.4631 10.9025 11.3975C10.8369 11.3319 10.8 11.2428 10.8 11.15C10.8 11.0572 10.8369 10.9682 10.9025 10.9025C10.9682 10.8369 11.0572 10.8 11.15 10.8Z"/>
</mask>
<path d="M9.16667 5.66668C9.16667 5.72856 9.14209 5.78791 9.09833 5.83167C9.05457 5.87543 8.99523 5.90001 8.93334 5.90001H2.63333C2.57145 5.90001 2.5121 5.87543 2.46834 5.83167C2.42458 5.78791 2.4 5.72856 2.4 5.66668C2.4 5.60479 2.42458 5.54544 2.46834 5.50168C2.5121 5.45793 2.57145 5.43334 2.63333 5.43334H8.93334C8.99523 5.43334 9.05457 5.45793 9.09833 5.50168C9.14209 5.54544 9.16667 5.60479 9.16667 5.66668ZM8.93334 4.03334H4.96667C4.90479 4.03334 4.84544 4.05792 4.80168 4.10168C4.75792 4.14544 4.73334 4.20479 4.73334 4.26667C4.73334 4.32856 4.75792 4.38791 4.80168 4.43167C4.84544 4.47543 4.90479 4.50001 4.96667 4.50001H8.93334C8.99523 4.50001 9.05457 4.47543 9.09833 4.43167C9.14209 4.38791 9.16667 4.32856 9.16667 4.26667C9.16667 4.20479 9.14209 4.14544 9.09833 4.10168C9.05457 4.05792 8.99523 4.03334 8.93334 4.03334ZM2.63333 3.10001H6.83334C6.89522 3.10001 6.95457 3.07542 6.99833 3.03166C7.04209 2.98791 7.06667 2.92856 7.06667 2.86667C7.06667 2.80479 7.04209 2.74544 6.99833 2.70168C6.95457 2.65792 6.89522 2.63334 6.83334 2.63334H2.63333C2.57145 2.63334 2.5121 2.65792 2.46834 2.70168C2.42458 2.74544 2.4 2.80479 2.4 2.86667C2.4 2.92856 2.42458 2.98791 2.46834 3.03166C2.5121 3.07542 2.57145 3.10001 2.63333 3.10001ZM2.63333 6.83334C2.57145 6.83334 2.5121 6.85793 2.46834 6.90169C2.42458 6.94544 2.4 7.00479 2.4 7.06668C2.4 7.12856 2.42458 7.18791 2.46834 7.23167C2.5121 7.27543 2.57145 7.30001 2.63333 7.30001H6.60001C6.66189 7.30001 6.72124 7.27543 6.765 7.23167C6.80876 7.18791 6.83334 7.12856 6.83334 7.06668C6.83334 7.00479 6.80876 6.94544 6.765 6.90169C6.72124 6.85793 6.66189 6.83334 6.60001 6.83334H2.63333ZM8.93334 6.83334H7.53334C7.47146 6.83334 7.41211 6.85793 7.36835 6.90169C7.32459 6.94544 7.30001 7.00479 7.30001 7.06668C7.30001 7.12856 7.32459 7.18791 7.36835 7.23167C7.41211 7.27543 7.47146 7.30001 7.53334 7.30001H8.93334C8.99523 7.30001 9.05457 7.27543 9.09833 7.23167C9.14209 7.18791 9.16667 7.12856 9.16667 7.06668C9.16667 7.00479 9.14209 6.94544 9.09833 6.90169C9.05457 6.85793 8.99523 6.83334 8.93334 6.83334ZM2.63333 4.50001H4.03334C4.09522 4.50001 4.15457 4.47543 4.19833 4.43167C4.24209 4.38791 4.26667 4.32856 4.26667 4.26667C4.26667 4.20479 4.24209 4.14544 4.19833 4.10168C4.15457 4.05792 4.09522 4.03334 4.03334 4.03334H2.63333C2.57145 4.03334 2.5121 4.05792 2.46834 4.10168C2.42458 4.14544 2.4 4.20479 2.4 4.26667C2.4 4.32856 2.42458 4.38791 2.46834 4.43167C2.5121 4.47543 2.57145 4.50001 2.63333 4.50001ZM8.23334 8.46668C8.23334 8.40479 8.20876 8.34545 8.165 8.30169C8.12124 8.25793 8.06189 8.23335 8.00001 8.23335H2.63333C2.57145 8.23335 2.5121 8.25793 2.46834 8.30169C2.42458 8.34545 2.4 8.40479 2.4 8.46668C2.4 8.52856 2.42458 8.58791 2.46834 8.63167C2.5121 8.67543 2.57145 8.70001 2.63333 8.70001H8.00001C8.06189 8.70001 8.12124 8.67543 8.165 8.63167C8.20876 8.58791 8.23334 8.52856 8.23334 8.46668ZM4.74815 10.9076C4.76027 10.9836 4.76652 11.0605 4.76682 11.1375C4.77413 11.3378 4.71623 11.5352 4.60183 11.6998C4.53562 11.7869 4.44934 11.8566 4.35035 11.9031C4.25136 11.9495 4.14259 11.9714 4.03334 11.9667C3.93478 11.9686 3.83689 11.9503 3.74572 11.9128C3.65456 11.8753 3.57208 11.8195 3.5034 11.7487C3.43472 11.678 3.38131 11.594 3.34649 11.5017C3.31166 11.4095 3.29617 11.3111 3.30097 11.2127C3.30129 10.9873 3.38941 10.771 3.54663 10.6095C3.67415 10.4816 3.83681 10.3944 4.01397 10.359C3.96306 10.2856 3.89657 10.2243 3.81925 10.1795C3.74193 10.1348 3.65569 10.1076 3.56667 10.1C2.99519 10.1 2.86667 11.286 2.86667 11.7015C2.86667 11.7633 2.84209 11.8227 2.79833 11.8664C2.75457 11.9102 2.69522 11.9348 2.63333 11.9348C2.57145 11.9348 2.5121 11.9102 2.46834 11.8664C2.42458 11.8227 2.4 11.7633 2.4 11.7015C2.4 10.9333 2.64563 9.63335 3.56667 9.63335C3.78488 9.64862 3.99447 9.72464 4.17173 9.85281C4.34899 9.98098 4.48685 10.1562 4.56972 10.3586C4.73971 10.3845 4.90244 10.4455 5.04748 10.5378C5.19253 10.6301 5.31671 10.7517 5.41206 10.8948C5.50197 10.7207 5.63934 10.5755 5.80826 10.4762C5.97719 10.3768 6.17079 10.3273 6.36667 10.3333C6.42856 10.3333 6.48791 10.3579 6.53166 10.4017C6.57542 10.4454 6.60001 10.5048 6.60001 10.5667C6.60001 10.6286 6.57542 10.6879 6.53166 10.7317C6.48791 10.7754 6.42856 10.8 6.36667 10.8C5.67465 10.8 5.66667 11.6953 5.66667 11.7333C5.66667 11.7952 5.64209 11.8546 5.59833 11.8983C5.55457 11.9421 5.49522 11.9667 5.43334 11.9667C5.37145 11.9667 5.3121 11.9421 5.26835 11.8983C5.22459 11.8546 5.2 11.7952 5.2 11.7333C5.20114 11.5686 5.16024 11.4064 5.08117 11.2619C5.00211 11.1174 4.88749 10.9954 4.74815 10.9076ZM4.30015 11.1375C4.29883 11.023 4.28047 10.9093 4.24567 10.8002C4.11042 10.7961 3.97894 10.8451 3.87934 10.9367C3.80766 11.0107 3.76761 11.1097 3.76769 11.2127C3.76437 11.2494 3.7688 11.2864 3.78069 11.3213C3.79258 11.3563 3.81165 11.3883 3.83669 11.4154C3.86172 11.4424 3.89216 11.464 3.92603 11.4785C3.95991 11.4931 3.99646 11.5004 4.03334 11.5C4.07014 11.5042 4.10741 11.499 4.14165 11.4848C4.17588 11.4707 4.20597 11.4481 4.22908 11.4191C4.28121 11.3348 4.30602 11.2364 4.30015 11.1375ZM13.3667 6.36668C13.3667 6.42856 13.3913 6.48791 13.435 6.53167C13.4788 6.57543 13.5381 6.60001 13.6 6.60001H14.3C14.3619 6.60001 14.4212 6.57543 14.465 6.53167C14.5088 6.48791 14.5333 6.42856 14.5333 6.36668C14.5333 6.30479 14.5088 6.24544 14.465 6.20168C14.4212 6.15793 14.3619 6.13334 14.3 6.13334H13.6C13.5381 6.13334 13.4788 6.15793 13.435 6.20168C13.3913 6.24544 13.3667 6.30479 13.3667 6.36668ZM13.1333 5.90001C13.164 5.90004 13.1943 5.89402 13.2227 5.88229C13.251 5.87056 13.2767 5.85335 13.2983 5.83164L13.765 5.36498C13.8075 5.32097 13.831 5.26203 13.8305 5.20085C13.8299 5.13967 13.8054 5.08115 13.7621 5.03788C13.7189 4.99462 13.6604 4.97008 13.5992 4.96955C13.538 4.96902 13.4791 4.99254 13.435 5.03504L12.9684 5.50171C12.9358 5.53434 12.9135 5.57591 12.9045 5.62117C12.8955 5.66642 12.9002 5.71333 12.9178 5.75596C12.9355 5.79859 12.9654 5.83503 13.0037 5.86067C13.0421 5.88631 13.0872 5.9 13.1333 5.90001ZM12.9684 6.90171C12.9467 6.92337 12.9295 6.94908 12.9178 6.97739C12.906 7.0057 12.9 7.03604 12.9 7.06668C12.9 7.09732 12.906 7.12766 12.9178 7.15597C12.9295 7.18427 12.9467 7.20999 12.9684 7.23164L13.435 7.69831C13.4791 7.74082 13.538 7.76433 13.5992 7.7638C13.6604 7.76327 13.7189 7.73873 13.7621 7.69547C13.8054 7.65221 13.8299 7.59368 13.8305 7.5325C13.831 7.47133 13.8075 7.41238 13.765 7.36838L13.2983 6.90171C13.2767 6.88003 13.2509 6.86284 13.2226 6.85111C13.1943 6.83937 13.164 6.83334 13.1333 6.83334C13.1027 6.83334 13.0724 6.83937 13.0441 6.85111C13.0158 6.86284 12.99 6.88003 12.9684 6.90171ZM7.76667 13.3667C7.76667 13.4286 7.74209 13.4879 7.69833 13.5317C7.65457 13.5754 7.59522 13.6 7.53334 13.6H2.16667C1.85736 13.5997 1.56083 13.4766 1.34211 13.2579C1.1234 13.0392 1.00036 12.7427 1 12.4333V2.16667C1.00036 1.85736 1.1234 1.56083 1.34211 1.34212C1.56083 1.1234 1.85736 1.00037 2.16667 1H8.07999C8.23328 0.999572 8.38514 1.02955 8.52677 1.0882C8.6684 1.14685 8.79698 1.23301 8.90508 1.3417L10.2249 2.66171C10.3336 2.76978 10.4197 2.89833 10.4784 3.03991C10.5371 3.1815 10.5671 3.33331 10.5667 3.48657V7.06668C10.5667 7.12856 10.5421 7.18791 10.4983 7.23167C10.4546 7.27543 10.3952 7.30001 10.3333 7.30001C10.2715 7.30001 10.2121 7.27543 10.1684 7.23167C10.1246 7.18791 10.1 7.12856 10.1 7.06668V3.48657C10.0996 3.43498 10.0935 3.38359 10.0818 3.33334H8.93334C8.74775 3.33314 8.56982 3.25932 8.43859 3.12809C8.30736 2.99686 8.23354 2.81893 8.23334 2.63334V1.48485C8.18305 1.47319 8.13162 1.46709 8.07999 1.46667H2.16667C1.98108 1.46688 1.80315 1.54069 1.67192 1.67192C1.54069 1.80315 1.46687 1.98108 1.46667 2.16667V12.4333C1.46687 12.6189 1.54069 12.7969 1.67192 12.9281C1.80315 13.0593 1.98108 13.1331 2.16667 13.1334H7.53334C7.59522 13.1334 7.65457 13.1579 7.69833 13.2017C7.74209 13.2455 7.76667 13.3048 7.76667 13.3667ZM8.70001 1.79654V2.63334C8.70006 2.69521 8.72466 2.75452 8.76841 2.79827C8.81216 2.84202 8.87147 2.86662 8.93334 2.86667H9.76998L8.70001 1.79654ZM14.5333 11.7333C14.5333 12.5994 14.1894 13.4301 13.5771 14.0427C12.9648 14.6552 12.1344 14.9996 11.2683 15C11.2241 15 11.1797 14.9991 11.1353 14.9973C10.3838 14.9675 9.66572 14.6792 9.1023 14.1811C8.53888 13.683 8.1647 13.0056 8.04298 12.2635C7.92127 11.5214 8.05949 10.76 8.43428 10.108C8.80908 9.45607 9.39746 8.95347 10.1 8.6852V8.23335C10.1002 8.10962 10.1494 7.991 10.2368 7.90352C10.3243 7.81603 10.443 7.76682 10.5667 7.76668H11.0333V7.30001C11.0337 6.9907 11.1567 6.69417 11.3755 6.47545C11.5942 6.25674 11.8907 6.13371 12.2 6.13334H12.6667C12.7286 6.13334 12.7879 6.15793 12.8317 6.20168C12.8754 6.24544 12.9 6.30479 12.9 6.36668C12.9 6.42856 12.8754 6.48791 12.8317 6.53167C12.7879 6.57543 12.7286 6.60001 12.6667 6.60001H12.2C12.0144 6.60021 11.8365 6.67403 11.7053 6.80526C11.574 6.93649 11.5002 7.11442 11.5 7.30001V7.76668H11.9667C12.0904 7.76682 12.209 7.81603 12.2965 7.90352C12.384 7.991 12.4332 8.10962 12.4333 8.23335V8.68496C13.0516 8.91957 13.5838 9.33695 13.9589 9.88153C14.3341 10.4261 14.5344 11.0721 14.5333 11.7333ZM14.0667 11.7333C14.0675 11.1415 13.8802 10.5648 13.5318 10.0864C13.1833 9.60801 12.6918 9.25281 12.1282 9.07211C12.0813 9.05698 12.0403 9.02734 12.0113 8.98746C11.9823 8.94758 11.9667 8.89952 11.9667 8.85019V8.23335H10.5667V8.85019C10.5667 8.89952 10.5511 8.94758 10.522 8.98746C10.493 9.02734 10.4521 9.05698 10.4051 9.07211C10.0047 9.20175 9.63863 9.42005 9.33424 9.71075C9.02984 10.0014 8.79493 10.3571 8.64701 10.7511C8.49908 11.1452 8.44194 11.5675 8.47984 11.9867C8.51774 12.4059 8.64971 12.8112 8.86591 13.1723C9.08212 13.5334 9.377 13.8411 9.7286 14.0725C10.0802 14.3039 10.4795 14.453 10.8967 14.5087C11.3139 14.5644 11.7383 14.5253 12.1383 14.3943C12.5383 14.2633 12.9035 14.0438 13.2069 13.752C13.4799 13.4916 13.6969 13.1783 13.8447 12.8312C13.9925 12.4841 14.068 12.1106 14.0667 11.7333ZM11.15 10.8H11.9667C12.0286 10.8 12.0879 10.7754 12.1317 10.7317C12.1754 10.6879 12.2 10.6286 12.2 10.5667C12.2 10.5048 12.1754 10.4454 12.1317 10.4017C12.0879 10.3579 12.0286 10.3333 11.9667 10.3333H11.5V10.1C11.5 10.0381 11.4754 9.97878 11.4317 9.93502C11.3879 9.89126 11.3286 9.86668 11.2667 9.86668C11.2048 9.86668 11.1454 9.89126 11.1017 9.93502C11.0579 9.97878 11.0333 10.0381 11.0333 10.1V10.345C10.8289 10.3739 10.6431 10.4793 10.5134 10.6399C10.3837 10.8005 10.3198 11.0044 10.3347 11.2103C10.3495 11.4162 10.4419 11.6088 10.5932 11.7492C10.7446 11.8896 10.9436 11.9673 11.15 11.9667H11.3833C11.4762 11.9667 11.5652 12.0036 11.6308 12.0692C11.6965 12.1348 11.7333 12.2239 11.7333 12.3167C11.7333 12.4095 11.6965 12.4985 11.6308 12.5642C11.5652 12.6298 11.4762 12.6667 11.3833 12.6667H10.5667C10.5048 12.6667 10.4454 12.6913 10.4017 12.735C10.3579 12.7788 10.3333 12.8381 10.3333 12.9C10.3333 12.9619 10.3579 13.0212 10.4017 13.065C10.4454 13.1088 10.5048 13.1334 10.5667 13.1334H11.0333V13.3667C11.0333 13.4286 11.0579 13.4879 11.1017 13.5317C11.1454 13.5754 11.2048 13.6 11.2667 13.6C11.3286 13.6 11.3879 13.5754 11.4317 13.5317C11.4754 13.4879 11.5 13.4286 11.5 13.3667V13.1217C11.7044 13.0928 11.8902 12.9874 12.0199 12.8268C12.1496 12.6662 12.2135 12.4623 12.1987 12.2564C12.1839 12.0505 12.0915 11.8579 11.9401 11.7175C11.7888 11.5771 11.5898 11.4994 11.3833 11.5H11.15C11.0572 11.5 10.9682 11.4631 10.9025 11.3975C10.8369 11.3319 10.8 11.2428 10.8 11.15C10.8 11.0572 10.8369 10.9682 10.9025 10.9025C10.9682 10.8369 11.0572 10.8 11.15 10.8Z" fill="#CCCCCC"/>
<path d="M9.16667 5.66668C9.16667 5.72856 9.14209 5.78791 9.09833 5.83167C9.05457 5.87543 8.99523 5.90001 8.93334 5.90001H2.63333C2.57145 5.90001 2.5121 5.87543 2.46834 5.83167C2.42458 5.78791 2.4 5.72856 2.4 5.66668C2.4 5.60479 2.42458 5.54544 2.46834 5.50168C2.5121 5.45793 2.57145 5.43334 2.63333 5.43334H8.93334C8.99523 5.43334 9.05457 5.45793 9.09833 5.50168C9.14209 5.54544 9.16667 5.60479 9.16667 5.66668ZM8.93334 4.03334H4.96667C4.90479 4.03334 4.84544 4.05792 4.80168 4.10168C4.75792 4.14544 4.73334 4.20479 4.73334 4.26667C4.73334 4.32856 4.75792 4.38791 4.80168 4.43167C4.84544 4.47543 4.90479 4.50001 4.96667 4.50001H8.93334C8.99523 4.50001 9.05457 4.47543 9.09833 4.43167C9.14209 4.38791 9.16667 4.32856 9.16667 4.26667C9.16667 4.20479 9.14209 4.14544 9.09833 4.10168C9.05457 4.05792 8.99523 4.03334 8.93334 4.03334ZM2.63333 3.10001H6.83334C6.89522 3.10001 6.95457 3.07542 6.99833 3.03166C7.04209 2.98791 7.06667 2.92856 7.06667 2.86667C7.06667 2.80479 7.04209 2.74544 6.99833 2.70168C6.95457 2.65792 6.89522 2.63334 6.83334 2.63334H2.63333C2.57145 2.63334 2.5121 2.65792 2.46834 2.70168C2.42458 2.74544 2.4 2.80479 2.4 2.86667C2.4 2.92856 2.42458 2.98791 2.46834 3.03166C2.5121 3.07542 2.57145 3.10001 2.63333 3.10001ZM2.63333 6.83334C2.57145 6.83334 2.5121 6.85793 2.46834 6.90169C2.42458 6.94544 2.4 7.00479 2.4 7.06668C2.4 7.12856 2.42458 7.18791 2.46834 7.23167C2.5121 7.27543 2.57145 7.30001 2.63333 7.30001H6.60001C6.66189 7.30001 6.72124 7.27543 6.765 7.23167C6.80876 7.18791 6.83334 7.12856 6.83334 7.06668C6.83334 7.00479 6.80876 6.94544 6.765 6.90169C6.72124 6.85793 6.66189 6.83334 6.60001 6.83334H2.63333ZM8.93334 6.83334H7.53334C7.47146 6.83334 7.41211 6.85793 7.36835 6.90169C7.32459 6.94544 7.30001 7.00479 7.30001 7.06668C7.30001 7.12856 7.32459 7.18791 7.36835 7.23167C7.41211 7.27543 7.47146 7.30001 7.53334 7.30001H8.93334C8.99523 7.30001 9.05457 7.27543 9.09833 7.23167C9.14209 7.18791 9.16667 7.12856 9.16667 7.06668C9.16667 7.00479 9.14209 6.94544 9.09833 6.90169C9.05457 6.85793 8.99523 6.83334 8.93334 6.83334ZM2.63333 4.50001H4.03334C4.09522 4.50001 4.15457 4.47543 4.19833 4.43167C4.24209 4.38791 4.26667 4.32856 4.26667 4.26667C4.26667 4.20479 4.24209 4.14544 4.19833 4.10168C4.15457 4.05792 4.09522 4.03334 4.03334 4.03334H2.63333C2.57145 4.03334 2.5121 4.05792 2.46834 4.10168C2.42458 4.14544 2.4 4.20479 2.4 4.26667C2.4 4.32856 2.42458 4.38791 2.46834 4.43167C2.5121 4.47543 2.57145 4.50001 2.63333 4.50001ZM8.23334 8.46668C8.23334 8.40479 8.20876 8.34545 8.165 8.30169C8.12124 8.25793 8.06189 8.23335 8.00001 8.23335H2.63333C2.57145 8.23335 2.5121 8.25793 2.46834 8.30169C2.42458 8.34545 2.4 8.40479 2.4 8.46668C2.4 8.52856 2.42458 8.58791 2.46834 8.63167C2.5121 8.67543 2.57145 8.70001 2.63333 8.70001H8.00001C8.06189 8.70001 8.12124 8.67543 8.165 8.63167C8.20876 8.58791 8.23334 8.52856 8.23334 8.46668ZM4.74815 10.9076C4.76027 10.9836 4.76652 11.0605 4.76682 11.1375C4.77413 11.3378 4.71623 11.5352 4.60183 11.6998C4.53562 11.7869 4.44934 11.8566 4.35035 11.9031C4.25136 11.9495 4.14259 11.9714 4.03334 11.9667C3.93478 11.9686 3.83689 11.9503 3.74572 11.9128C3.65456 11.8753 3.57208 11.8195 3.5034 11.7487C3.43472 11.678 3.38131 11.594 3.34649 11.5017C3.31166 11.4095 3.29617 11.3111 3.30097 11.2127C3.30129 10.9873 3.38941 10.771 3.54663 10.6095C3.67415 10.4816 3.83681 10.3944 4.01397 10.359C3.96306 10.2856 3.89657 10.2243 3.81925 10.1795C3.74193 10.1348 3.65569 10.1076 3.56667 10.1C2.99519 10.1 2.86667 11.286 2.86667 11.7015C2.86667 11.7633 2.84209 11.8227 2.79833 11.8664C2.75457 11.9102 2.69522 11.9348 2.63333 11.9348C2.57145 11.9348 2.5121 11.9102 2.46834 11.8664C2.42458 11.8227 2.4 11.7633 2.4 11.7015C2.4 10.9333 2.64563 9.63335 3.56667 9.63335C3.78488 9.64862 3.99447 9.72464 4.17173 9.85281C4.34899 9.98098 4.48685 10.1562 4.56972 10.3586C4.73971 10.3845 4.90244 10.4455 5.04748 10.5378C5.19253 10.6301 5.31671 10.7517 5.41206 10.8948C5.50197 10.7207 5.63934 10.5755 5.80826 10.4762C5.97719 10.3768 6.17079 10.3273 6.36667 10.3333C6.42856 10.3333 6.48791 10.3579 6.53166 10.4017C6.57542 10.4454 6.60001 10.5048 6.60001 10.5667C6.60001 10.6286 6.57542 10.6879 6.53166 10.7317C6.48791 10.7754 6.42856 10.8 6.36667 10.8C5.67465 10.8 5.66667 11.6953 5.66667 11.7333C5.66667 11.7952 5.64209 11.8546 5.59833 11.8983C5.55457 11.9421 5.49522 11.9667 5.43334 11.9667C5.37145 11.9667 5.3121 11.9421 5.26835 11.8983C5.22459 11.8546 5.2 11.7952 5.2 11.7333C5.20114 11.5686 5.16024 11.4064 5.08117 11.2619C5.00211 11.1174 4.88749 10.9954 4.74815 10.9076ZM4.30015 11.1375C4.29883 11.023 4.28047 10.9093 4.24567 10.8002C4.11042 10.7961 3.97894 10.8451 3.87934 10.9367C3.80766 11.0107 3.76761 11.1097 3.76769 11.2127C3.76437 11.2494 3.7688 11.2864 3.78069 11.3213C3.79258 11.3563 3.81165 11.3883 3.83669 11.4154C3.86172 11.4424 3.89216 11.464 3.92603 11.4785C3.95991 11.4931 3.99646 11.5004 4.03334 11.5C4.07014 11.5042 4.10741 11.499 4.14165 11.4848C4.17588 11.4707 4.20597 11.4481 4.22908 11.4191C4.28121 11.3348 4.30602 11.2364 4.30015 11.1375ZM13.3667 6.36668C13.3667 6.42856 13.3913 6.48791 13.435 6.53167C13.4788 6.57543 13.5381 6.60001 13.6 6.60001H14.3C14.3619 6.60001 14.4212 6.57543 14.465 6.53167C14.5088 6.48791 14.5333 6.42856 14.5333 6.36668C14.5333 6.30479 14.5088 6.24544 14.465 6.20168C14.4212 6.15793 14.3619 6.13334 14.3 6.13334H13.6C13.5381 6.13334 13.4788 6.15793 13.435 6.20168C13.3913 6.24544 13.3667 6.30479 13.3667 6.36668ZM13.1333 5.90001C13.164 5.90004 13.1943 5.89402 13.2227 5.88229C13.251 5.87056 13.2767 5.85335 13.2983 5.83164L13.765 5.36498C13.8075 5.32097 13.831 5.26203 13.8305 5.20085C13.8299 5.13967 13.8054 5.08115 13.7621 5.03788C13.7189 4.99462 13.6604 4.97008 13.5992 4.96955C13.538 4.96902 13.4791 4.99254 13.435 5.03504L12.9684 5.50171C12.9358 5.53434 12.9135 5.57591 12.9045 5.62117C12.8955 5.66642 12.9002 5.71333 12.9178 5.75596C12.9355 5.79859 12.9654 5.83503 13.0037 5.86067C13.0421 5.88631 13.0872 5.9 13.1333 5.90001ZM12.9684 6.90171C12.9467 6.92337 12.9295 6.94908 12.9178 6.97739C12.906 7.0057 12.9 7.03604 12.9 7.06668C12.9 7.09732 12.906 7.12766 12.9178 7.15597C12.9295 7.18427 12.9467 7.20999 12.9684 7.23164L13.435 7.69831C13.4791 7.74082 13.538 7.76433 13.5992 7.7638C13.6604 7.76327 13.7189 7.73873 13.7621 7.69547C13.8054 7.65221 13.8299 7.59368 13.8305 7.5325C13.831 7.47133 13.8075 7.41238 13.765 7.36838L13.2983 6.90171C13.2767 6.88003 13.2509 6.86284 13.2226 6.85111C13.1943 6.83937 13.164 6.83334 13.1333 6.83334C13.1027 6.83334 13.0724 6.83937 13.0441 6.85111C13.0158 6.86284 12.99 6.88003 12.9684 6.90171ZM7.76667 13.3667C7.76667 13.4286 7.74209 13.4879 7.69833 13.5317C7.65457 13.5754 7.59522 13.6 7.53334 13.6H2.16667C1.85736 13.5997 1.56083 13.4766 1.34211 13.2579C1.1234 13.0392 1.00036 12.7427 1 12.4333V2.16667C1.00036 1.85736 1.1234 1.56083 1.34211 1.34212C1.56083 1.1234 1.85736 1.00037 2.16667 1H8.07999C8.23328 0.999572 8.38514 1.02955 8.52677 1.0882C8.6684 1.14685 8.79698 1.23301 8.90508 1.3417L10.2249 2.66171C10.3336 2.76978 10.4197 2.89833 10.4784 3.03991C10.5371 3.1815 10.5671 3.33331 10.5667 3.48657V7.06668C10.5667 7.12856 10.5421 7.18791 10.4983 7.23167C10.4546 7.27543 10.3952 7.30001 10.3333 7.30001C10.2715 7.30001 10.2121 7.27543 10.1684 7.23167C10.1246 7.18791 10.1 7.12856 10.1 7.06668V3.48657C10.0996 3.43498 10.0935 3.38359 10.0818 3.33334H8.93334C8.74775 3.33314 8.56982 3.25932 8.43859 3.12809C8.30736 2.99686 8.23354 2.81893 8.23334 2.63334V1.48485C8.18305 1.47319 8.13162 1.46709 8.07999 1.46667H2.16667C1.98108 1.46688 1.80315 1.54069 1.67192 1.67192C1.54069 1.80315 1.46687 1.98108 1.46667 2.16667V12.4333C1.46687 12.6189 1.54069 12.7969 1.67192 12.9281C1.80315 13.0593 1.98108 13.1331 2.16667 13.1334H7.53334C7.59522 13.1334 7.65457 13.1579 7.69833 13.2017C7.74209 13.2455 7.76667 13.3048 7.76667 13.3667ZM8.70001 1.79654V2.63334C8.70006 2.69521 8.72466 2.75452 8.76841 2.79827C8.81216 2.84202 8.87147 2.86662 8.93334 2.86667H9.76998L8.70001 1.79654ZM14.5333 11.7333C14.5333 12.5994 14.1894 13.4301 13.5771 14.0427C12.9648 14.6552 12.1344 14.9996 11.2683 15C11.2241 15 11.1797 14.9991 11.1353 14.9973C10.3838 14.9675 9.66572 14.6792 9.1023 14.1811C8.53888 13.683 8.1647 13.0056 8.04298 12.2635C7.92127 11.5214 8.05949 10.76 8.43428 10.108C8.80908 9.45607 9.39746 8.95347 10.1 8.6852V8.23335C10.1002 8.10962 10.1494 7.991 10.2368 7.90352C10.3243 7.81603 10.443 7.76682 10.5667 7.76668H11.0333V7.30001C11.0337 6.9907 11.1567 6.69417 11.3755 6.47545C11.5942 6.25674 11.8907 6.13371 12.2 6.13334H12.6667C12.7286 6.13334 12.7879 6.15793 12.8317 6.20168C12.8754 6.24544 12.9 6.30479 12.9 6.36668C12.9 6.42856 12.8754 6.48791 12.8317 6.53167C12.7879 6.57543 12.7286 6.60001 12.6667 6.60001H12.2C12.0144 6.60021 11.8365 6.67403 11.7053 6.80526C11.574 6.93649 11.5002 7.11442 11.5 7.30001V7.76668H11.9667C12.0904 7.76682 12.209 7.81603 12.2965 7.90352C12.384 7.991 12.4332 8.10962 12.4333 8.23335V8.68496C13.0516 8.91957 13.5838 9.33695 13.9589 9.88153C14.3341 10.4261 14.5344 11.0721 14.5333 11.7333ZM14.0667 11.7333C14.0675 11.1415 13.8802 10.5648 13.5318 10.0864C13.1833 9.60801 12.6918 9.25281 12.1282 9.07211C12.0813 9.05698 12.0403 9.02734 12.0113 8.98746C11.9823 8.94758 11.9667 8.89952 11.9667 8.85019V8.23335H10.5667V8.85019C10.5667 8.89952 10.5511 8.94758 10.522 8.98746C10.493 9.02734 10.4521 9.05698 10.4051 9.07211C10.0047 9.20175 9.63863 9.42005 9.33424 9.71075C9.02984 10.0014 8.79493 10.3571 8.64701 10.7511C8.49908 11.1452 8.44194 11.5675 8.47984 11.9867C8.51774 12.4059 8.64971 12.8112 8.86591 13.1723C9.08212 13.5334 9.377 13.8411 9.7286 14.0725C10.0802 14.3039 10.4795 14.453 10.8967 14.5087C11.3139 14.5644 11.7383 14.5253 12.1383 14.3943C12.5383 14.2633 12.9035 14.0438 13.2069 13.752C13.4799 13.4916 13.6969 13.1783 13.8447 12.8312C13.9925 12.4841 14.068 12.1106 14.0667 11.7333ZM11.15 10.8H11.9667C12.0286 10.8 12.0879 10.7754 12.1317 10.7317C12.1754 10.6879 12.2 10.6286 12.2 10.5667C12.2 10.5048 12.1754 10.4454 12.1317 10.4017C12.0879 10.3579 12.0286 10.3333 11.9667 10.3333H11.5V10.1C11.5 10.0381 11.4754 9.97878 11.4317 9.93502C11.3879 9.89126 11.3286 9.86668 11.2667 9.86668C11.2048 9.86668 11.1454 9.89126 11.1017 9.93502C11.0579 9.97878 11.0333 10.0381 11.0333 10.1V10.345C10.8289 10.3739 10.6431 10.4793 10.5134 10.6399C10.3837 10.8005 10.3198 11.0044 10.3347 11.2103C10.3495 11.4162 10.4419 11.6088 10.5932 11.7492C10.7446 11.8896 10.9436 11.9673 11.15 11.9667H11.3833C11.4762 11.9667 11.5652 12.0036 11.6308 12.0692C11.6965 12.1348 11.7333 12.2239 11.7333 12.3167C11.7333 12.4095 11.6965 12.4985 11.6308 12.5642C11.5652 12.6298 11.4762 12.6667 11.3833 12.6667H10.5667C10.5048 12.6667 10.4454 12.6913 10.4017 12.735C10.3579 12.7788 10.3333 12.8381 10.3333 12.9C10.3333 12.9619 10.3579 13.0212 10.4017 13.065C10.4454 13.1088 10.5048 13.1334 10.5667 13.1334H11.0333V13.3667C11.0333 13.4286 11.0579 13.4879 11.1017 13.5317C11.1454 13.5754 11.2048 13.6 11.2667 13.6C11.3286 13.6 11.3879 13.5754 11.4317 13.5317C11.4754 13.4879 11.5 13.4286 11.5 13.3667V13.1217C11.7044 13.0928 11.8902 12.9874 12.0199 12.8268C12.1496 12.6662 12.2135 12.4623 12.1987 12.2564C12.1839 12.0505 12.0915 11.8579 11.9401 11.7175C11.7888 11.5771 11.5898 11.4994 11.3833 11.5H11.15C11.0572 11.5 10.9682 11.4631 10.9025 11.3975C10.8369 11.3319 10.8 11.2428 10.8 11.15C10.8 11.0572 10.8369 10.9682 10.9025 10.9025C10.9682 10.8369 11.0572 10.8 11.15 10.8Z" stroke="#CCCCCC" stroke-width="0.2" mask="url(#path-1-outside-1_1_4020)"/>
</svg>
