<svg width="13" height="16" viewBox="0 0 13 16" fill="none" xmlns="http://www.w3.org/2000/svg">
<path d="M12.369 5.2688C12.3321 5.18197 12.2805 5.1026 12.2166 5.0344L7.54989 0.2344C7.48358 0.168626 7.40641 0.115529 7.322 0.0775999C7.29867 0.0663999 7.27378 0.0599999 7.24889 0.0511999C7.18381 0.0284209 7.11606 0.0146993 7.04744 0.0104C7.03111 0.00880001 7.01633 0 7 0H1.55556C0.697667 0 0 0.7176 0 1.6V14.4C0 15.2824 0.697667 16 1.55556 16H10.8889C11.7468 16 12.4444 15.2824 12.4444 14.4V5.6C12.4444 5.5832 12.4359 5.568 12.4343 5.5504C12.4305 5.47977 12.4172 5.41004 12.3947 5.3432C12.3869 5.3176 12.3799 5.2928 12.369 5.2688ZM9.78911 4.8H7.77778V2.7312L9.78911 4.8ZM1.55556 14.4V1.6H6.22222V5.6C6.22222 5.81217 6.30417 6.01566 6.45003 6.16569C6.59589 6.31571 6.79372 6.4 7 6.4H10.8889L10.8904 14.4H1.55556Z" fill="#C8C8C8"/>
<path d="M2.66699 8.53325H9.7781V10.1333H2.66699V8.53325ZM2.66699 11.7333H9.7781V13.3333H2.66699V11.7333ZM2.66699 5.33325H4.44477V6.93325H2.66699V5.33325Z" fill="#C8C8C8"/>
</svg>
