<svg width="19" height="19" viewBox="0 0 19 19" fill="none" xmlns="http://www.w3.org/2000/svg">
  <path d="M9.33766 3.86998L9.26709 3.94083C8.55196 3.22849 7.60861 2.83512 6.60369 2.83512C5.59866 2.83512 4.65255 3.22857 3.94043 3.94069C2.82315 5.05796 2.53175 6.7172 3.15952 8.12428C3.18497 8.09693 3.21083 8.06999 3.23731 8.04351C3.83268 7.44814 4.55577 7.03351 5.34444 6.81896C5.08344 6.52322 4.92463 6.13646 4.92463 5.71269C4.92463 4.78924 5.67427 4.0365 6.60082 4.0365C7.52702 4.0365 8.27988 4.78602 8.27988 5.71269C8.27988 6.13665 8.12093 6.52358 7.85972 6.81937C8.64789 7.03571 9.37088 7.44748 9.96639 8.0427M9.33766 3.86998L9.89649 8.11422M9.33766 3.86998L9.26709 3.94083C9.97905 4.65 10.3725 5.59602 10.3725 6.60108C10.3725 7.13168 10.2606 7.65045 10.0476 8.12552M9.33766 3.86998C10.0684 4.59789 10.4725 5.5694 10.4725 6.60108C10.4725 7.1605 10.3514 7.70729 10.1209 8.20594C10.1194 8.20432 10.118 8.20269 10.1165 8.20107C10.0944 8.17651 10.0714 8.15103 10.0476 8.12552M9.96639 8.0427C9.96666 8.04297 9.96693 8.04324 9.9672 8.04351L9.89649 8.11422M9.96639 8.0427C9.9661 8.04243 9.96582 8.04216 9.96554 8.04189L9.89649 8.11422M9.96639 8.0427C9.99445 8.06953 10.0215 8.09754 10.0476 8.12552M9.89649 8.11422C9.93321 8.14928 9.96799 8.18628 10.002 8.22352C10.0177 8.19107 10.0329 8.1584 10.0476 8.12552M10.4322 8.9737L10.4304 8.9726L10.4338 8.9672C10.877 8.26576 11.1084 7.44757 11.1084 6.60108C11.1084 5.39954 10.6393 4.26785 9.78653 3.418C8.93397 2.56836 7.80531 2.09922 6.60369 2.09922C5.40212 2.09922 4.2705 2.56833 3.41786 3.42098C1.93507 4.90377 1.67113 7.18707 2.77282 8.96603C2.9489 9.25647 3.16585 9.53492 3.42072 9.78978C4.27332 10.6424 5.40205 11.1115 6.60369 11.1115C7.80526 11.1115 8.93687 10.6424 9.78952 9.78978C10.0442 9.53513 10.2615 9.25931 10.4322 8.9737ZM10.3749 8.93943L10.3464 8.92238H10.3579H10.3629H10.4463C10.4463 8.92391 10.4462 8.9258 10.446 8.92774C10.4451 8.93611 10.4428 8.94822 10.4362 8.96135C10.4353 8.9633 10.4343 8.96513 10.4333 8.96684C10.4321 8.96881 10.431 8.97063 10.4298 8.97226L10.3749 8.93943ZM10.4464 8.91951C10.4464 8.91842 10.4464 8.91873 10.4464 8.91988L2.85809 8.91378C1.78055 7.17424 2.03847 4.94179 3.48857 3.49169C4.32251 2.65775 5.42871 2.19922 6.60369 2.19922C7.77867 2.19922 8.882 2.65775 9.71594 3.48883C10.5499 4.31991 11.0084 5.42611 11.0084 6.60108C11.0084 7.36494 10.8158 8.10442 10.4464 8.75207V8.91951ZM7.78173 6.90197C7.7436 6.89196 7.70532 6.88241 7.6669 6.87333C7.69578 6.84682 7.72367 6.81927 7.75051 6.79075L7.78173 6.90197ZM3.66941 8.96543L3.66913 8.96509C3.65806 8.95155 3.64733 8.93707 3.6349 8.92026L3.63428 8.91942C3.62288 8.904 3.60996 8.88651 3.59603 8.86938C3.57709 8.84404 3.56023 8.8195 3.54226 8.79321C3.60933 8.71459 3.68128 8.63895 3.75415 8.56609L3.75428 8.56595C4.49503 7.82241 5.47575 7.4087 6.5186 7.38888C6.52959 7.3889 6.54042 7.38945 6.55401 7.39017L6.55487 7.39022C6.56798 7.39091 6.58383 7.39174 6.60082 7.39174C6.61821 7.39174 6.63435 7.39087 6.64741 7.39016H6.64742C6.66088 7.38943 6.67077 7.38891 6.6802 7.38888C7.72304 7.4087 8.70375 7.82242 9.44449 8.56595L9.44463 8.56609C9.5195 8.64096 9.59041 8.71738 9.65747 8.79687C9.64028 8.82178 9.62247 8.84644 9.60307 8.87186C9.58902 8.88911 9.57598 8.90675 9.5645 8.92229L9.56388 8.92312C9.55145 8.93994 9.54072 8.95442 9.52965 8.96796L9.52937 8.9683C9.4446 9.07285 9.35817 9.17313 9.26122 9.27008C8.55197 9.97932 7.60873 10.3728 6.60082 10.3728C5.5959 10.3728 4.65255 9.9794 3.93742 9.26707L3.86685 9.33792L3.93756 9.26721C3.84061 9.17026 3.75418 9.06998 3.66941 8.96543ZM6.60082 6.64724C6.58838 6.64724 6.57639 6.64821 6.56842 6.64885L6.5667 6.64899C6.55886 6.64962 6.55355 6.64999 6.54866 6.65008C6.05476 6.62269 5.65767 6.21345 5.65767 5.71269C5.65767 5.19458 6.0802 4.76954 6.60082 4.76954C7.12162 4.76954 7.54397 5.19189 7.54397 5.71269C7.54397 6.2136 7.14962 6.62261 6.65316 6.65007C6.64973 6.64998 6.64533 6.64965 6.6371 6.64899L6.63692 6.64898C6.62809 6.64827 6.61522 6.64724 6.60082 6.64724Z" fill="#C8C8C8" stroke="#C8C8C8" stroke-width="0.2"/>
  <path d="M17.398 14.5412L17.3982 14.5413C17.823 14.9089 18.0793 15.4393 18.0975 16.0033C18.0975 16.0034 18.0975 16.0035 18.0975 16.0036L17.9976 16.0068C18.0177 16.5399 17.8142 17.0615 17.4359 17.4397C17.0748 17.8008 16.5819 18.0043 16.0746 18.0043L17.398 14.5412ZM17.398 14.5412L13.3156 11.0235L13.4085 10.9306C13.866 10.4731 13.866 9.73061 13.4085 9.27315L12.6809 8.54552C12.8782 7.92542 12.9821 7.27297 12.9821 6.60416C12.9821 4.90111 12.3182 3.2995 11.113 2.09433C9.90784 0.889156 8.30623 0.225195 6.60318 0.225195C4.90013 0.225195 3.29852 0.889156 2.09335 2.09433C0.88818 3.2995 0.224219 4.90111 0.224219 6.60416C0.224219 8.3072 0.88818 9.90882 2.09335 11.114C3.33658 12.3572 4.97007 12.9803 6.60318 12.9803C7.25619 12.9803 7.90836 12.8733 8.53845 12.6759L9.27204 13.4122L9.27217 13.4124C9.49422 13.6344 9.78897 13.7569 10.0995 13.7569C10.4094 13.7569 10.7073 13.6348 10.927 13.4121C10.9271 13.412 10.9271 13.4119 10.9272 13.4119L11.0197 13.3194L17.398 14.5412ZM9.79138 12.8893L9.28697 12.3849C9.94724 12.0803 10.5672 11.6598 11.113 11.114C11.6485 10.5785 12.0762 9.96111 12.389 9.29305L12.8888 9.79286C12.9708 9.87482 13.0171 9.98425 13.0171 10.1004C13.0171 10.2178 12.9728 10.3263 12.8898 10.407L12.8898 10.407L12.8888 10.408L10.4099 12.8869C10.2455 13.0513 9.95621 13.0514 9.79169 12.8896C9.79159 12.8895 9.79148 12.8894 9.79138 12.8893ZM2.61306 10.5943C1.54569 9.52691 0.960123 8.11086 0.960123 6.60416C0.960123 5.0975 1.54565 3.68148 2.61297 2.61412C3.71403 1.51588 5.15847 0.963965 6.60318 0.963965C8.04789 0.963965 9.49234 1.51588 10.5934 2.61412C11.6607 3.68148 12.2462 5.0975 12.2462 6.60416C12.2462 8.11072 11.6579 9.52684 10.5933 10.5943C8.39121 12.7935 4.81214 12.7934 2.61306 10.5943ZM16.9869 16.9879C16.7313 17.2435 16.3913 17.3789 16.0267 17.3656C15.665 17.3523 15.3356 17.193 15.0986 16.9187L11.5426 12.7936L12.7926 11.5436L16.9177 15.0995C17.1921 15.3366 17.3513 15.6659 17.3646 16.0277C17.3779 16.3923 17.2425 16.7323 16.9869 16.9879Z" fill="#C8C8C8" stroke="#C8C8C8" stroke-width="0.2"/>
</svg>
