<svg width="56" height="57" viewBox="0 0 56 57" fill="none" xmlns="http://www.w3.org/2000/svg">
<path d="M21 7.5H11.6667C10.429 7.5 9.242 7.99167 8.36683 8.86683C7.49167 9.742 7 10.929 7 12.1667V21.5C7 22.7377 7.49167 23.9247 8.36683 24.7998C9.242 25.675 10.429 26.1667 11.6667 26.1667H21C22.2377 26.1667 23.4247 25.675 24.2998 24.7998C25.175 23.9247 25.6667 22.7377 25.6667 21.5V12.1667C25.6667 10.929 25.175 9.742 24.2998 8.86683C23.4247 7.99167 22.2377 7.5 21 7.5ZM11.6667 21.5V12.1667H21V21.5H11.6667ZM44.3333 7.5H35C33.7623 7.5 32.5753 7.99167 31.7002 8.86683C30.825 9.742 30.3333 10.929 30.3333 12.1667V21.5C30.3333 22.7377 30.825 23.9247 31.7002 24.7998C32.5753 25.675 33.7623 26.1667 35 26.1667H44.3333C45.571 26.1667 46.758 25.675 47.6332 24.7998C48.5083 23.9247 49 22.7377 49 21.5V12.1667C49 10.929 48.5083 9.742 47.6332 8.86683C46.758 7.99167 45.571 7.5 44.3333 7.5ZM35 21.5V12.1667H44.3333V21.5H35ZM21 30.8333H11.6667C10.429 30.8333 9.242 31.325 8.36683 32.2002C7.49167 33.0753 7 34.2623 7 35.5V44.8333C7 46.071 7.49167 47.258 8.36683 48.1332C9.242 49.0083 10.429 49.5 11.6667 49.5H21C22.2377 49.5 23.4247 49.0083 24.2998 48.1332C25.175 47.258 25.6667 46.071 25.6667 44.8333V35.5C25.6667 34.2623 25.175 33.0753 24.2998 32.2002C23.4247 31.325 22.2377 30.8333 21 30.8333ZM11.6667 44.8333V35.5H21V44.8333H11.6667ZM44.3333 30.8333H35C33.7623 30.8333 32.5753 31.325 31.7002 32.2002C30.825 33.0753 30.3333 34.2623 30.3333 35.5V44.8333C30.3333 46.071 30.825 47.258 31.7002 48.1332C32.5753 49.0083 33.7623 49.5 35 49.5H44.3333C45.571 49.5 46.758 49.0083 47.6332 48.1332C48.5083 47.258 49 46.071 49 44.8333V35.5C49 34.2623 48.5083 33.0753 47.6332 32.2002C46.758 31.325 45.571 30.8333 44.3333 30.8333ZM35 44.8333V35.5H44.3333V44.8333H35Z" fill="#7B43F5"/>
</svg>
