<?xml version="1.0" encoding="UTF-8"?>
<svg id="Capa_1" data-name="Capa 1" xmlns="http://www.w3.org/2000/svg" viewBox="0 0 100 100">
  <defs>
    <style>
      .cls-1 {
        fill: #C8C8C8;
      }
    </style>
  </defs>
  <path class="cls-1" d="M7.31,44.28c.54-1.24,1.42-1.95,2.83-1.84,.75,.06,.75,.05,2.84,2.21,.2-.85,.37-1.65,.58-2.44,3.59-13.28,11.81-22.4,24.65-27.32,5.13-1.96,10.48-2.64,15.93-2.23,9.67,.73,18,4.51,24.87,11.39,6.4,6.4,10.13,14.15,11.16,23.12,1.85,16.01-6.37,31.41-20.64,38.95-6.71,3.54-13.89,4.97-21.39,4.37-11.25-.9-20.33-5.95-27.2-14.93-.37-.48-.67-.98-.72-1.6-.11-1.28,.51-2.35,1.64-2.79,1.14-.45,2.4-.12,3.18,.92,1.74,2.33,3.7,4.44,5.99,6.24,5.28,4.13,11.25,6.44,17.96,6.82,9.32,.53,17.57-2.16,24.6-8.3,6.1-5.34,9.86-12.07,11.02-20.11,1.66-11.46-1.72-21.32-9.96-29.43-5.33-5.25-11.83-8.38-19.29-9.07-14.51-1.35-25.58,4.39-33.21,16.76-1.89,3.06-3.02,6.45-3.73,9.97-.04,.18-.1,.37,.08,.65,.35-.34,.68-.68,1.03-1,1.18-1.12,2.87-1.17,3.93-.11,1.06,1.06,1.02,2.75-.13,3.93-2.05,2.08-4.11,4.15-6.19,6.19-1.45,1.43-3.3,1.24-4.41-.45-1.82-2.75-3.74-5.43-5.43-8.26v-1.62Z"/>
  <path class="cls-1" d="M52.77,40.17c0,3.48,.01,6.97-.01,10.45,0,.63,.18,1.04,.7,1.42,4.49,3.37,8.96,6.78,13.45,10.16,.99,.75,1.52,1.67,1.26,2.93-.36,1.72-2.22,2.61-3.79,1.81-.31-.16-.6-.37-.88-.58-4.88-3.66-9.76-7.34-14.66-10.98-.95-.7-1.39-1.56-1.39-2.75,.02-7.67,0-15.34,.02-23.01,0-1.44,.88-2.52,2.17-2.72,1.37-.21,2.54,.49,3.01,1.78,.13,.37,.12,.74,.12,1.12,0,3.46,0,6.92,0,10.37Z"/>
</svg>