<svg width="17" height="19" viewBox="0 0 17 19" fill="none" xmlns="http://www.w3.org/2000/svg">
<path fill-rule="evenodd" clip-rule="evenodd" d="M5.5 0H14.6667C15.6778 0 16.5 0.82225 16.5 1.83333V17.4167C16.5 17.6598 16.4034 17.8929 16.2315 18.0648C16.0596 18.2368 15.8264 18.3333 15.5833 18.3333H0.916667C0.673552 18.3333 0.440394 18.2368 0.268485 18.0648C0.0965771 17.8929 0 17.6598 0 17.4167V9.16667C0 8.15558 0.82225 7.33333 1.83333 7.33333H3.66667V1.83333C3.66667 0.82225 4.48892 0 5.5 0ZM7.33333 9.16667H1.83333V16.5H7.33333V9.16667ZM9.16667 16.5H14.6667V1.83333H5.5V7.33333H7.33333C8.34442 7.33333 9.16667 8.15558 9.16667 9.16667V16.5ZM9.16602 3.6665H7.33268V5.49984H9.16602V3.6665ZM12.8327 3.6665H10.9993V5.49984H12.8327V3.6665ZM12.8327 7.36159H10.9993V9.1665H12.8327V7.36159ZM12.8327 10.9998H10.9993V12.8332H12.8327V10.9998ZM5.49935 11.0008H3.66602V12.8341H5.49935V11.0008Z" fill="#C8C8C8"/>
</svg>
