<svg width="16" height="16" viewBox="0 0 16 16" fill="none" xmlns="http://www.w3.org/2000/svg">
    <path d="M14.8162 6.25151C14.5694 5.4937 14.8162 4.48914 14.3515 3.84828C13.8869 3.20742 12.8487 3.12891 12.2111 2.66589C11.5734 2.20287 11.1825 1.24478 10.4263 0.999649C9.69408 0.76253 8.80969 1.30246 7.999 1.30246C7.18831 1.30246 6.30392 0.76253 5.57173 0.999649C4.81552 1.24478 4.41818 2.21889 3.78693 2.6691C3.15568 3.1193 2.11108 3.21543 1.64806 3.85309C1.18503 4.49075 1.43016 5.4953 1.18183 6.25151C0.949515 6.9837 0.148438 7.65661 0.148438 8.4673C0.148438 9.27799 0.949515 9.95089 1.18183 10.6831C1.42856 11.4409 1.18183 12.4454 1.64645 13.0863C2.11108 13.7272 3.14927 13.8057 3.78693 14.2687C4.42459 14.7317 4.81391 15.693 5.57173 15.9397C6.30232 16.1769 7.18831 15.6369 7.999 15.6369C8.80969 15.6369 9.69408 16.1769 10.4263 15.9397C11.1841 15.693 11.5814 14.7285 12.2111 14.2687C12.8407 13.8089 13.8869 13.7224 14.3515 13.0863C14.8162 12.4503 14.571 11.4441 14.8162 10.6831C15.0485 9.95089 15.8496 9.27799 15.8496 8.4673C15.8496 7.65661 15.0485 6.9837 14.8162 6.25151ZM7.999 13.4628C7.01098 13.4628 6.04515 13.1698 5.22364 12.6209C4.40213 12.072 3.76184 11.2918 3.38374 10.379C3.00564 9.46619 2.90671 8.46175 3.09947 7.49272C3.29222 6.52368 3.768 5.63357 4.46663 4.93493C5.16527 4.23629 6.05539 3.76052 7.02442 3.56776C7.99346 3.37501 8.99789 3.47394 9.9107 3.85204C10.8235 4.23014 11.6037 4.87042 12.1526 5.69193C12.7015 6.51344 12.9945 7.47928 12.9945 8.4673C12.9945 9.12332 12.8653 9.77291 12.6143 10.379C12.3632 10.9851 11.9952 11.5358 11.5314 11.9997C11.0675 12.4635 10.5168 12.8315 9.9107 13.0826C9.30462 13.3336 8.65502 13.4628 7.999 13.4628Z" fill="#CCCCCC"/>
</svg>
