<?xml version="1.0" encoding="UTF-8"?>
<svg id="Capa_1" data-name="Capa 1" xmlns="http://www.w3.org/2000/svg" viewBox="0 0 100 100">
  <defs>
    <style>
      .cls-1 {
        fill: #C8C8C8;
      }
    </style>
  </defs>
  <path class="cls-1" d="M29.72,84.26c5.95-2.92,11.91-5.81,17.86-8.74,.66-.33,1.18-.3,1.82,.02,5.95,2.92,11.91,5.81,17.86,8.73,.85,.42,1.61,.45,2.48,.03,6.36-3.12,12.74-6.23,19.11-9.33,.55-.27,1.04-.59,1.35-1.13v-24.12c-.33-.57-.85-.89-1.42-1.16-6.06-2.88-12.11-5.78-18.17-8.64-.66-.31-.9-.68-.9-1.42,.03-6.79,0-13.58,.03-20.37,0-.99-.38-1.62-1.27-2.06-6.27-3.12-12.54-6.25-18.8-9.4-.83-.42-1.58-.42-2.4,0-2,1.04-4.03,2.03-6.04,3.04-4.25,2.13-8.5,4.26-12.76,6.37-.7,.35-1.23,.81-1.24,1.65,0,1.11-.02,2.23,0,3.34,.03,.95,.68,1.6,1.58,1.64,.92,.04,1.66-.52,1.75-1.45,.06-.68,.29-.61,.75-.38,4.95,2.49,9.91,4.96,14.87,7.43,.41,.2,.61,.45,.61,.94-.01,5.87-.01,11.74,0,17.6,0,.65-.21,.66-.71,.41-4.95-2.49-9.91-4.96-14.87-7.43-.45-.22-.63-.5-.62-1.01,.03-1.52,.02-3.04,0-4.56,0-1.17-.66-1.87-1.69-1.87-1.03,0-1.67,.7-1.68,1.87-.01,1.39-.05,2.77,.01,4.16,.04,.81-.26,1.2-.98,1.54-5.92,2.79-11.81,5.65-17.74,8.41-1.34,.62-1.88,1.42-1.87,2.93,.07,7.09,.05,14.18,.01,21.27,0,1.23,.44,1.94,1.54,2.47,6.34,3.05,12.66,6.14,18.97,9.24,.89,.44,1.67,.41,2.55-.02Zm37.12-4.88c0,.71-.18,.78-.79,.48-5.09-2.5-10.19-4.99-15.3-7.46-.47-.23-.61-.51-.61-1.01,.02-2.93,0-5.86,0-8.8,0-2.88,.01-5.76-.01-8.63,0-.71,.19-.77,.79-.48,5.07,2.48,10.15,4.95,15.23,7.41,.47,.23,.68,.51,.68,1.06-.02,5.81-.02,11.62,0,17.43Zm20.04-25.25c0,2.88,0,5.76,0,8.63s-.02,5.7,.01,8.55c0,.61-.21,.92-.75,1.18-5.04,2.43-10.06,4.88-15.09,7.33-.82,.4-.85,.38-.85-.51,0-5.76,0-11.51-.01-17.27,0-.56,.15-.87,.68-1.13,5.04-2.43,10.06-4.89,15.08-7.34,.91-.44,.92-.44,.92,.56Zm-18-11.24c4.92,2.36,9.85,4.69,14.78,7.04,.24,.11,.61,.15,.64,.43,.03,.32-.37,.35-.59,.46-4.83,2.37-9.66,4.72-14.49,7.08-.41,.2-.78,.3-1.23,.08-5.04-2.48-10.1-4.94-15.15-7.41-.09-.05-.17-.12-.36-.25,.29-.16,.47-.28,.66-.37,4.69-2.34,9.38-4.68,14.05-7.04,.59-.3,1.07-.31,1.68-.02Zm-2.54-21.44c0,2.9,0,5.81,0,8.71s-.02,5.7,.01,8.55c0,.61-.21,.92-.74,1.19-4.89,2.42-9.76,4.87-14.64,7.31-.78,.39-.81,.38-.81-.47,0-5.78,0-11.56-.01-17.35,0-.58,.21-.87,.71-1.12,4.91-2.44,9.81-4.9,14.72-7.35,.74-.37,.77-.35,.77,.53Zm-33.08-3.42c-.09-.05-.18-.12-.3-.21,.17-.31,.42-.36,.64-.47,4.68-2.34,9.37-4.68,14.05-7.04,.59-.3,1.07-.3,1.67,0,4.67,2.36,9.36,4.7,14.04,7.04,.21,.11,.55,.15,.56,.4,.02,.29-.33,.32-.53,.42-4.73,2.37-9.47,4.73-14.19,7.11-.44,.22-.82,.31-1.3,.07-4.87-2.45-9.75-4.89-14.63-7.33Zm13.52,36.12c0,2.85,0,5.7,0,8.55,0,2.88-.01,5.76,.01,8.63,0,.57-.18,.88-.69,1.13-5.06,2.44-10.11,4.91-15.16,7.36-.81,.39-.83,.38-.83-.54,0-5.76,0-11.51,0-17.27,0-.51,.11-.83,.63-1.08,5.06-2.44,10.1-4.91,15.15-7.38,.9-.44,.9-.44,.9,.59Zm-33.56-4.18c4.9-2.33,9.81-4.65,14.7-7.01,.67-.32,1.21-.36,1.9-.01,4.6,2.34,9.22,4.63,13.83,6.94,.24,.12,.47,.25,.89,.48-1.71,.84-3.24,1.6-4.77,2.35-3.54,1.73-7.08,3.44-10.61,5.18-.51,.25-.93,.27-1.45,.01-4.82-2.37-9.66-4.72-14.48-7.09-.23-.11-.61-.14-.59-.46,.02-.24,.37-.28,.58-.39Zm13.51,20.69c0,2.9-.01,5.81,0,8.71,0,.67-.13,.82-.77,.5-5.11-2.52-10.24-5.01-15.37-7.5-.4-.19-.55-.44-.55-.88,0-5.86,.02-11.73,0-17.59,0-.9,.41-.58,.84-.37,4.63,2.26,9.23,4.61,13.93,6.74,1.53,.69,2.06,1.5,1.95,3.15-.15,2.41-.04,4.83-.04,7.25Z"/>
  <path class="cls-1" d="M31.56,31.35c0-.98-.7-1.73-1.67-1.76-1.02-.04-1.8,.69-1.83,1.69-.03,1.02,.71,1.79,1.71,1.81,1.01,.02,1.78-.73,1.79-1.73Z"/>
</svg>