<?xml version="1.0" encoding="UTF-8"?>
<svg id="Capa_1" data-name="Capa 1" xmlns="http://www.w3.org/2000/svg" viewBox="0 0 100 100">
  <defs>
    <style>
      .cls-1 {
        fill: #C8C8C8;
      }
    </style>
  </defs>
  <path class="cls-1" d="M79.97,35.34l-9.47-4.72c-1.03-.51-2.27-.09-2.79,.93-.51,1.03-.09,2.27,.93,2.79l5.93,2.95-27.74,14.46-28-14.37,5.35-2.35c1.05-.46,1.53-1.68,1.07-2.73-.46-1.05-1.68-1.52-2.73-1.07l-8.33,3.66c-.76,.33-1.24,1.08-1.24,1.9v36.08c0,.78,.44,1.49,1.13,1.85l31.82,16.34c.3,.15,.62,.23,.95,.23s.62-.07,.91-.21l32.2-15.72c.71-.35,1.17-1.07,1.17-1.87V37.2c0-.79-.45-1.51-1.15-1.86Zm-33.1,51.55l-29.77-15.29v-30.45l27.77,14.25v18.44c0,1.15,.93,2.08,2.08,2.08s2.08-.93,2.08-2.08v-18.55l27.95-14.57v31.46l-30.1,14.7Z"/>
  <path class="cls-1" d="M32.64,36.01l13.71,7.08c.3,.15,.63,.23,.95,.23,.34,0,.69-.09,1-.26l12.93-7.08c.66-.36,1.08-1.06,1.08-1.82v-12.44c0-.78-.44-1.5-1.14-1.85l-13.4-6.77c-.59-.3-1.3-.3-1.88,0l-13.25,6.77c-.69,.35-1.13,1.07-1.13,1.85v12.44c0,.78,.43,1.49,1.12,1.84Zm14.64,2.88l-11.61-5.99v-7.65l10.38,4.74c.27,.12,.57,.19,.86,.19s.59-.06,.86-.19l10.39-4.74v7.69l-10.88,5.96Zm-.43-21.61l8.91,4.5-8.84,4.03-8.86-4.04,8.79-4.49Z"/>
</svg>