<?xml version="1.0" encoding="UTF-8"?>
<svg id="Capa_1" data-name="Capa 1" xmlns="http://www.w3.org/2000/svg" viewBox="0 0 100 100">
  <defs>
    <style>
      .cls-1 {
        fill: #C8C8C8;
      }
    </style>
  </defs>
  <path class="cls-1" d="M82.76,41.48l-8.44-.82c-.48-1.6-1.15-3.16-1.93-4.67,.62-1.03,1.11-1.99,1.42-2.75l6.39,4.55c.47,.33,1.09,.38,1.6,.11,.51-.26,.83-.79,.83-1.37V7.91c0-.54-.28-1.03-.73-1.31-.46-.28-1.03-.31-1.5-.06l-23.28,11.79c-.48,.24-.8,.72-.84,1.26-.04,.54,.21,1.06,.65,1.37l4.7,3.32-.38,.31c-1.88-1.02-3.87-1.81-5.94-2.35l-1.09-8.42c-.1-.78-.83-1.38-1.55-1.34l-9.69,.15c-.78,.01-1.43,.61-1.51,1.39l-.82,8.44c-2.04,.61-4.01,1.46-5.86,2.55l-6.72-5.18c-.62-.48-1.5-.42-2.05,.15l-6.74,6.96c-.55,.56-.58,1.44-.08,2.05l5.39,6.55c-1.02,1.88-1.81,3.87-2.35,5.94l-8.42,1.09c-.78,.1-1.36,.77-1.34,1.55l.15,9.69c.01,.78,.61,1.43,1.39,1.51l8.44,.82c.61,2.04,1.46,4.01,2.55,5.86l-5.18,6.72c-.48,.62-.42,1.5,.15,2.05l6.96,6.74c.56,.54,1.45,.58,2.05,.08l6.55-5.39c1.88,1.02,3.87,1.81,5.94,2.35l1.09,8.42c.1,.77,.75,1.34,1.53,1.34h.02l9.69-.15c.78-.01,1.43-.61,1.51-1.39l.82-8.44c2.04-.61,4.01-1.46,5.86-2.55l6.72,5.18c.62,.48,1.5,.42,2.05-.15l6.74-6.96c.54-.56,.58-1.44,.08-2.05l-5.39-6.55c1.02-1.88,1.81-3.87,2.35-5.94l8.42-1.09c.78-.1,1.36-.77,1.34-1.55l-.15-9.69c-.01-.78-.61-1.43-1.39-1.51Zm-3.21-31.07v23.13l-5.71-4.06c-.44-.31-1.01-.37-1.5-.16-.49,.21-.84,.67-.92,1.19,0,.02-.3,1.89-2.07,4.54-1.21,1.82-2.82,3.58-4.78,5.23,0,0,0,0,0,0-4.3,3.63-10.1,6.63-17.3,8.96,4.64-3.42,10.38-8.29,14.52-13.92,2.51-3.43,4.18-6.8,4.95-10.04,.15-.61-.1-1.25-.61-1.61l-5.34-3.77,18.76-9.5Zm-14.18,37.99c0,9.37-7.62,16.99-16.99,16.99s-16.99-7.62-16.99-16.99,7.62-16.99,16.99-16.99c3.61,0,7.08,1.21,9.98,3.33-7.71,9.7-20.39,17.03-20.53,17.1-.66,.38-.95,1.18-.67,1.89,.23,.61,.81,.99,1.44,.99,.11,0,.22-.01,.33-.04,10.9-2.37,19.55-5.95,25.82-10.61,.37,1.41,.63,2.85,.63,4.33Zm7.73,4c-.64,.08-1.17,.56-1.31,1.2-.55,2.49-1.49,4.86-2.79,7.04-.33,.56-.28,1.26,.13,1.77l5.19,6.31-4.83,4.98-6.47-4.99c-.52-.4-1.23-.43-1.77-.08-2.16,1.38-4.5,2.39-6.95,3.02-.63,.16-1.09,.7-1.15,1.34l-.79,8.13-6.94,.11-1.05-8.1c-.08-.64-.56-1.17-1.2-1.31-2.49-.55-4.86-1.49-7.04-2.79-.24-.14-.52-.22-.79-.22-.35,0-.7,.12-.98,.35l-6.31,5.19-4.98-4.83,4.99-6.47c.4-.52,.43-1.22,.08-1.77-1.38-2.16-2.39-4.5-3.02-6.95-.16-.63-.7-1.09-1.34-1.15l-8.13-.79-.11-6.94,8.1-1.05c.64-.08,1.17-.56,1.31-1.2,.55-2.49,1.49-4.86,2.79-7.04,.33-.56,.28-1.26-.13-1.77l-5.19-6.31,4.83-4.98,6.47,4.99c.51,.39,1.22,.43,1.77,.08,2.16-1.38,4.5-2.39,6.95-3.02,.63-.16,1.09-.7,1.15-1.34l.79-8.13,6.94-.11,1.05,8.1c.08,.64,.56,1.17,1.2,1.31,2.49,.55,4.86,1.49,7.04,2.79,.56,.33,1.26,.28,1.77-.13l.5-.41s-.03,.08-.04,.11c-.3,.74-.65,1.49-1.05,2.25-.08,.16-.19,.32-.28,.48-.34,.6-.7,1.21-1.1,1.82-.06,.1-.14,.2-.2,.3-3.43-2.5-7.57-3.87-11.84-3.87-11.07,0-20.08,9.01-20.08,20.08s9.01,20.08,20.08,20.08,20.08-9.01,20.08-20.08c0-2.21-.36-4.38-1.07-6.46,.34-.31,.6-.64,.92-.95,.57-.56,1.14-1.12,1.64-1.7,.13-.15,.3-.29,.43-.44,.52,1.18,.93,2.39,1.25,3.62,.16,.63,.7,1.09,1.34,1.15l8.13,.79,.11,6.94-8.1,1.05Z"/>
</svg>