<svg width="16" height="20" viewBox="0 0 16 20" fill="none" xmlns="http://www.w3.org/2000/svg">
<path d="M3.85339 3.96037C3.85339 3.87525 3.81958 3.79362 3.75939 3.73343C3.6992 3.67324 3.61757 3.63943 3.53245 3.63943C3.44733 3.63943 3.3657 3.67324 3.30551 3.73343C3.24533 3.79362 3.21151 3.87525 3.21151 3.96037V5.78329H3.00205C2.69403 5.78363 2.39872 5.90614 2.18091 6.12395C1.96311 6.34175 1.84059 6.63706 1.84026 6.94509V11.1733C1.58813 11.2294 1.36263 11.3697 1.20089 11.5711C1.03914 11.7725 0.9508 12.0229 0.950403 12.2812V13.5374C0.685498 13.5808 0.444599 13.7168 0.270569 13.9212C0.0965389 14.1256 0.000663119 14.3851 0 14.6536V18.7213C0 18.8065 0.0338129 18.8881 0.0940004 18.9483C0.154188 19.0085 0.23582 19.0423 0.320937 19.0423H15.6793C15.7644 19.0423 15.846 19.0085 15.9062 18.9483C15.9664 18.8881 16.0002 18.8065 16.0002 18.7213V14.6531C15.9996 14.3847 15.9037 14.1252 15.7297 13.9208C15.5556 13.7164 15.3147 13.5804 15.0498 13.5369V12.2812C15.0493 12.023 14.9609 11.7726 14.7992 11.5714C14.6375 11.3701 14.412 11.2298 14.16 11.1738V6.94509C14.1596 6.63704 14.037 6.34174 13.8192 6.12394C13.6013 5.90614 13.306 5.78363 12.998 5.78329H12.7885V0.320937C12.7885 0.23582 12.7547 0.154188 12.6945 0.0940004C12.6343 0.0338129 12.5527 0 12.4676 0H3.53245C3.44733 0 3.3657 0.0338129 3.30551 0.0940004C3.24533 0.154188 3.21151 0.23582 3.21151 0.320937V2.89058C3.21151 2.97569 3.24533 3.05733 3.30551 3.11751C3.3657 3.1777 3.44733 3.21151 3.53245 3.21151C3.61757 3.21151 3.6992 3.1777 3.75939 3.11751C3.81958 3.05733 3.85339 2.97569 3.85339 2.89058V0.641875H12.1466V11.1447H3.85339V3.96037ZM15.3584 14.6531V18.4004H0.641875V14.6531C0.642327 14.5226 0.694466 14.3975 0.786886 14.3053C0.879307 14.2131 1.00449 14.1612 1.13505 14.161H3.21044V14.4336C3.2105 14.7482 3.33533 15.0499 3.55755 15.2725C3.77977 15.4951 4.08122 15.6205 4.39577 15.6211H11.6032C11.9177 15.6205 12.2192 15.4951 12.4414 15.2725C12.6636 15.0499 12.7884 14.7482 12.7885 14.4336V14.1602H14.8652C14.9959 14.1604 15.1212 14.2123 15.2136 14.3047C15.3061 14.3972 15.3581 14.5224 15.3584 14.6531ZM12.1466 14.161V14.4336C12.1467 14.578 12.0896 14.7165 11.9877 14.8188C11.8858 14.9211 11.7475 14.9788 11.6032 14.9792H4.39684C4.25248 14.9788 4.11419 14.9211 4.01231 14.8188C3.91043 14.7165 3.85327 14.578 3.85339 14.4336V14.1602L12.1466 14.161ZM14.408 12.2812V13.5187H12.4718H12.4678H12.4637H3.53673H3.53245H3.52839H1.59228V12.2812C1.59239 12.1502 1.6445 12.0245 1.73716 11.9318C1.82983 11.8392 1.95547 11.7871 2.08652 11.787H2.15713H2.16119H13.839H13.8431H13.9137C14.0448 11.7871 14.1704 11.8392 14.2631 11.9318C14.3557 12.0245 14.4078 12.1502 14.408 12.2812ZM12.7885 6.42517H12.998C13.1358 6.42528 13.268 6.48009 13.3656 6.57756C13.4631 6.67503 13.5179 6.80721 13.5181 6.94509V11.1447H12.7885V6.42517ZM2.48213 11.1447V6.94509C2.4823 6.80725 2.53713 6.6751 2.6346 6.57764C2.73207 6.48017 2.86421 6.42534 3.00205 6.42517H3.21151V11.1447H2.48213Z" fill="#C8C8C8"/>
<path d="M4.19147 16.4249H1.61926C1.49058 16.425 1.36719 16.4762 1.27618 16.5672C1.18517 16.6581 1.13396 16.7815 1.13379 16.9102V17.5621C1.13402 17.6908 1.18524 17.8141 1.27624 17.9051C1.36724 17.996 1.49059 18.0472 1.61926 18.0474H4.19147C4.32013 18.0472 4.44348 17.996 4.53448 17.9051C4.62548 17.8141 4.67671 17.6908 4.67694 17.5621V16.9102C4.67677 16.7815 4.62556 16.6581 4.53455 16.5672C4.44353 16.4762 4.32015 16.425 4.19147 16.4249ZM4.03506 17.4055H1.77566V17.0668H4.03485L4.03506 17.4055Z" fill="#C8C8C8"/>
<path d="M5.66311 16.4249C5.50263 16.4249 5.34575 16.4724 5.2123 16.5616C5.07885 16.6507 4.97482 16.7774 4.91338 16.9256C4.85194 17.0739 4.83584 17.237 4.86713 17.3944C4.89841 17.5518 4.97566 17.6964 5.08912 17.8099C5.20258 17.9234 5.34714 18.0007 5.50453 18.032C5.66192 18.0633 5.82506 18.0472 5.97333 17.9858C6.12159 17.9244 6.24831 17.8205 6.33747 17.687C6.42663 17.5536 6.47422 17.3967 6.47422 17.2363C6.47377 17.0213 6.38818 16.8152 6.23617 16.6631C6.08416 16.5111 5.87811 16.4254 5.66311 16.4249ZM5.66311 17.4055C5.62957 17.4055 5.59678 17.3956 5.56888 17.377C5.54098 17.3584 5.51923 17.332 5.50638 17.301C5.49353 17.27 5.49015 17.2359 5.49668 17.203C5.50322 17.1701 5.51936 17.1399 5.54307 17.1162C5.56678 17.0925 5.597 17.0764 5.62989 17.0698C5.66278 17.0633 5.69687 17.0667 5.72784 17.0795C5.75881 17.0924 5.78527 17.1141 5.80388 17.142C5.82248 17.1699 5.83239 17.2027 5.83235 17.2363C5.83223 17.2811 5.81437 17.3241 5.78265 17.3558C5.75094 17.3875 5.70796 17.4054 5.66311 17.4055Z" fill="#C8C8C8"/>
<path d="M5.85729 4.38011C5.73148 4.3876 5.57593 4.35187 5.53764 4.25645C5.52189 4.21735 5.49859 4.18174 5.46908 4.15164C5.43957 4.12155 5.40442 4.09756 5.36564 4.08105C5.32685 4.06454 5.2852 4.05583 5.24305 4.05542C5.2009 4.055 5.15909 4.0629 5.11999 4.07865C5.08089 4.0944 5.04528 4.11769 5.01518 4.1472C4.98509 4.17671 4.9611 4.21186 4.94459 4.25065C4.92808 4.28943 4.91937 4.33108 4.91896 4.37323C4.91855 4.41538 4.92644 4.4572 4.94219 4.49629C4.99687 4.6222 5.08127 4.73298 5.18814 4.81913C5.29501 4.90529 5.42117 4.96425 5.55582 4.99097V5.12148C5.55582 5.2066 5.58964 5.28823 5.64982 5.34842C5.71001 5.4086 5.79164 5.44242 5.87676 5.44242C5.96188 5.44242 6.04351 5.4086 6.1037 5.34842C6.16388 5.28823 6.1977 5.2066 6.1977 5.12148V4.96122C6.3137 4.92643 6.42156 4.86875 6.5149 4.79157C6.60824 4.7144 6.68517 4.61931 6.74115 4.51191C6.94056 4.09726 6.81561 3.67876 6.39882 3.36445C6.28022 3.27877 6.15478 3.20298 6.02375 3.13787C5.92537 3.08942 5.83081 3.03356 5.7409 2.97077C5.50319 2.79297 5.55925 2.67636 5.58834 2.6156C5.62482 2.56899 5.67166 2.53151 5.72514 2.50615C5.77862 2.48078 5.83727 2.46822 5.89644 2.46947C6.02097 2.4592 6.17459 2.49643 6.21417 2.59313C6.24639 2.67147 6.30826 2.73389 6.3863 2.7668C6.46435 2.79971 6.55224 2.80043 6.63081 2.76881C6.70939 2.73718 6.77228 2.67578 6.80577 2.59799C6.83926 2.52019 6.84065 2.43231 6.80962 2.3535C6.75539 2.2275 6.67136 2.11655 6.56477 2.03019C6.45818 1.94384 6.33221 1.88467 6.1977 1.85776V1.72938C6.1977 1.64427 6.16388 1.56264 6.1037 1.50245C6.04351 1.44226 5.96188 1.40845 5.87676 1.40845C5.79164 1.40845 5.71001 1.44226 5.64982 1.50245C5.58964 1.56264 5.55582 1.64427 5.55582 1.72938V1.88878C5.43967 1.92346 5.3316 1.98096 5.23795 2.05793C5.1443 2.1349 5.06696 2.22979 5.01044 2.33703C4.81382 2.74697 4.94305 3.17638 5.35663 3.4862C5.47296 3.56912 5.59566 3.64273 5.72357 3.70636C5.824 3.75584 5.92043 3.81307 6.01198 3.87753C6.24862 4.05618 6.19278 4.17257 6.16175 4.23462C6.12577 4.28083 6.07953 4.31804 6.02669 4.34329C5.97384 4.36854 5.91585 4.38115 5.85729 4.38011Z" fill="#C8C8C8"/>
<path d="M7.7057 2.35867H10.7597C10.8449 2.35867 10.9265 2.32486 10.9867 2.26467C11.0469 2.20448 11.0807 2.12285 11.0807 2.03773C11.0807 1.95262 11.0469 1.87098 10.9867 1.8108C10.9265 1.75061 10.8449 1.7168 10.7597 1.7168H7.7057C7.62059 1.7168 7.53895 1.75061 7.47877 1.8108C7.41858 1.87098 7.38477 1.95262 7.38477 2.03773C7.38477 2.12285 7.41858 2.20448 7.47877 2.26467C7.53895 2.32486 7.62059 2.35867 7.7057 2.35867Z" fill="#C8C8C8"/>
<path d="M7.7057 3.28348H10.7597C10.8449 3.28348 10.9265 3.24966 10.9867 3.18948C11.0469 3.12929 11.0807 3.04766 11.0807 2.96254C11.0807 2.87742 11.0469 2.79579 10.9867 2.7356C10.9265 2.67541 10.8449 2.6416 10.7597 2.6416H7.7057C7.62059 2.6416 7.53895 2.67541 7.47877 2.7356C7.41858 2.79579 7.38477 2.87742 7.38477 2.96254C7.38477 3.04766 7.41858 3.12929 7.47877 3.18948C7.53895 3.24966 7.62059 3.28348 7.7057 3.28348Z" fill="#C8C8C8"/>
<path d="M10.7604 3.56665H10.4245C10.3393 3.56665 10.2577 3.60046 10.1975 3.66065C10.1373 3.72084 10.1035 3.80247 10.1035 3.88759C10.1035 3.97271 10.1373 4.05434 10.1975 4.11452C10.2577 4.17471 10.3393 4.20853 10.4245 4.20853H10.7604C10.8455 4.20853 10.9271 4.17471 10.9873 4.11452C11.0475 4.05434 11.0813 3.97271 11.0813 3.88759C11.0813 3.80247 11.0475 3.72084 10.9873 3.66065C10.9271 3.60046 10.8455 3.56665 10.7604 3.56665Z" fill="#C8C8C8"/>
<path d="M7.70668 3.56665C7.62156 3.56665 7.53993 3.60046 7.47974 3.66065C7.41955 3.72084 7.38574 3.80247 7.38574 3.88759C7.38574 3.97271 7.41955 4.05434 7.47974 4.11452C7.53993 4.17471 7.62156 4.20853 7.70668 4.20853H9.35416C9.43928 4.20853 9.52091 4.17471 9.5811 4.11452C9.64128 4.05434 9.6751 3.97271 9.6751 3.88759C9.6751 3.80247 9.64128 3.72084 9.5811 3.66065C9.52091 3.60046 9.43928 3.56665 9.35416 3.56665H7.70668Z" fill="#C8C8C8"/>
<path d="M7.7057 5.13284H10.7597C10.8449 5.13284 10.9265 5.09903 10.9867 5.03884C11.0469 4.97865 11.0807 4.89702 11.0807 4.8119C11.0807 4.72679 11.0469 4.64515 10.9867 4.58497C10.9265 4.52478 10.8449 4.49097 10.7597 4.49097H7.7057C7.62059 4.49097 7.53895 4.52478 7.47877 4.58497C7.41858 4.64515 7.38477 4.72679 7.38477 4.8119C7.38477 4.89702 7.41858 4.97865 7.47877 5.03884C7.53895 5.09903 7.62059 5.13284 7.7057 5.13284Z" fill="#C8C8C8"/>
<path d="M5.85729 9.20494C5.73148 9.21329 5.57594 9.17692 5.53764 9.08128C5.50583 9.00232 5.44396 8.93922 5.36564 8.90588C5.28731 8.87254 5.19895 8.87167 5.11999 8.90348C5.04103 8.93528 4.97794 8.99715 4.94459 9.07548C4.91125 9.1538 4.91039 9.24216 4.94219 9.32112C4.99688 9.44705 5.08127 9.55785 5.18814 9.64404C5.295 9.73023 5.42117 9.78924 5.55582 9.81601V9.94631C5.55582 10.0314 5.58964 10.1131 5.64982 10.1732C5.71001 10.2334 5.79164 10.2672 5.87676 10.2672C5.96188 10.2672 6.04351 10.2334 6.1037 10.1732C6.16389 10.1131 6.1977 10.0314 6.1977 9.94631V9.78627C6.31369 9.75144 6.42153 9.69374 6.51487 9.61658C6.6082 9.53941 6.68514 9.44433 6.74115 9.33696C6.94056 8.92252 6.81561 8.50423 6.39882 8.18928C6.28022 8.10366 6.15477 8.02795 6.02375 7.96292C5.92537 7.91446 5.83081 7.8586 5.7409 7.79582C5.50319 7.6178 5.55925 7.50162 5.58834 7.44064C5.62487 7.3941 5.67172 7.35668 5.72519 7.33135C5.77866 7.30603 5.83729 7.29349 5.89644 7.29472C6.02097 7.28531 6.17459 7.32168 6.21417 7.41818C6.24598 7.49714 6.30785 7.56023 6.38617 7.59358C6.4645 7.62692 6.55286 7.62778 6.63182 7.59598C6.71078 7.56417 6.77387 7.5023 6.80722 7.42398C6.84056 7.34565 6.84142 7.25729 6.80962 7.17833C6.7554 7.05238 6.67136 6.94151 6.56476 6.85526C6.45816 6.76901 6.33219 6.70997 6.1977 6.68323V6.55336C6.1977 6.46824 6.16389 6.38661 6.1037 6.32642C6.04351 6.26623 5.96188 6.23242 5.87676 6.23242C5.79164 6.23242 5.71001 6.26623 5.64982 6.32642C5.58964 6.38661 5.55582 6.46824 5.55582 6.55336V6.71276C5.43957 6.74753 5.33143 6.8052 5.23777 6.88236C5.14412 6.95952 5.06683 7.05462 5.01044 7.16207C4.81382 7.5718 4.94305 8.00122 5.35663 8.31103C5.47301 8.39387 5.5957 8.46748 5.72357 8.53119C5.82396 8.58062 5.92033 8.63785 6.01177 8.70236C6.24841 8.88123 6.19278 8.9974 6.16282 9.05945C6.12671 9.10578 6.08029 9.14306 6.02725 9.16831C5.97422 9.19357 5.91602 9.20611 5.85729 9.20494Z" fill="#C8C8C8"/>
<path d="M7.7057 7.18362H10.7597C10.8449 7.18362 10.9265 7.14981 10.9867 7.08962C11.0469 7.02944 11.0807 6.9478 11.0807 6.86269C11.0807 6.77757 11.0469 6.69594 10.9867 6.63575C10.9265 6.57556 10.8449 6.54175 10.7597 6.54175H7.7057C7.62059 6.54175 7.53895 6.57556 7.47877 6.63575C7.41858 6.69594 7.38477 6.77757 7.38477 6.86269C7.38477 6.9478 7.41858 7.02944 7.47877 7.08962C7.53895 7.14981 7.62059 7.18362 7.7057 7.18362Z" fill="#C8C8C8"/>
<path d="M10.7605 7.46704H9.26918C9.18406 7.46704 9.10243 7.50085 9.04224 7.56104C8.98205 7.62123 8.94824 7.70286 8.94824 7.78798C8.94824 7.8731 8.98205 7.95473 9.04224 8.01491C9.10243 8.0751 9.18406 8.10892 9.26918 8.10892H10.7605C10.8456 8.10892 10.9272 8.0751 10.9874 8.01491C11.0476 7.95473 11.0814 7.8731 11.0814 7.78798C11.0814 7.70286 11.0476 7.62123 10.9874 7.56104C10.9272 7.50085 10.8456 7.46704 10.7605 7.46704Z" fill="#C8C8C8"/>
<path d="M7.70668 7.46704C7.62156 7.46704 7.53993 7.50085 7.47974 7.56104C7.41955 7.62123 7.38574 7.70286 7.38574 7.78798C7.38574 7.8731 7.41955 7.95473 7.47974 8.01491C7.53993 8.0751 7.62156 8.10892 7.70668 8.10892H8.19878C8.2839 8.10892 8.36553 8.0751 8.42572 8.01491C8.48591 7.95473 8.51972 7.8731 8.51972 7.78798C8.51972 7.70286 8.48591 7.62123 8.42572 7.56104C8.36553 7.50085 8.2839 7.46704 8.19878 7.46704H7.70668Z" fill="#C8C8C8"/>
<path d="M7.7057 9.03323H10.7597C10.8449 9.03323 10.9265 8.99942 10.9867 8.93923C11.0469 8.87904 11.0807 8.79741 11.0807 8.71229C11.0807 8.62718 11.0469 8.54555 10.9867 8.48536C10.9265 8.42517 10.8449 8.39136 10.7597 8.39136H7.7057C7.62059 8.39136 7.53895 8.42517 7.47877 8.48536C7.41858 8.54555 7.38477 8.62718 7.38477 8.71229C7.38477 8.79741 7.41858 8.87904 7.47877 8.93923C7.53895 8.99942 7.62059 9.03323 7.7057 9.03323Z" fill="#C8C8C8"/>
<path d="M7.7057 9.95779H10.7597C10.8449 9.95779 10.9265 9.92398 10.9867 9.86379C11.0469 9.80361 11.0807 9.72197 11.0807 9.63686C11.0807 9.55174 11.0469 9.47011 10.9867 9.40992C10.9265 9.34973 10.8449 9.31592 10.7597 9.31592H7.7057C7.62059 9.31592 7.53895 9.34973 7.47877 9.40992C7.41858 9.47011 7.38477 9.55174 7.38477 9.63686C7.38477 9.72197 7.41858 9.80361 7.47877 9.86379C7.53895 9.92398 7.62059 9.95779 7.7057 9.95779Z" fill="#C8C8C8"/>
</svg>
