<svg width="16" height="16" viewBox="0 0 16 16" fill="none" xmlns="http://www.w3.org/2000/svg">
  <path d="M6.15792 3.75736C6.24715 3.80097 6.34767 3.82147 6.44867 3.81668C6.54967 3.81189 6.64734 3.78199 6.73118 3.73017L8.98156 2.33505C9.05809 2.28855 9.12088 2.22542 9.16431 2.1513C9.20774 2.07717 9.23047 1.99436 9.23047 1.91023C9.23047 1.8261 9.20774 1.74329 9.16431 1.66916C9.12088 1.59504 9.05809 1.53191 8.98156 1.48541L6.7386 0.0885876C6.65508 0.0364243 6.55762 0.00608369 6.45669 0.000823396C6.35576 -0.0044369 6.25517 0.0155818 6.16572 0.0587301C6.07627 0.101878 6.00135 0.166527 5.94898 0.245734C5.89662 0.324941 5.8688 0.415717 5.86851 0.508313V1.43953H2.90016C2.45733 1.43953 2.03264 1.60065 1.71951 1.88747C1.40638 2.17428 1.23047 2.56328 1.23047 2.96889V4.92308H2.3436V2.96889C2.3436 2.83369 2.40224 2.70402 2.50661 2.60842C2.61099 2.51281 2.75255 2.4591 2.90016 2.4591H5.86851V3.30875C5.86823 3.40045 5.89497 3.49053 5.94591 3.56948C5.99684 3.64844 6.07009 3.71334 6.15792 3.75736Z" fill="#CCCCCC"/>
  <path d="M15.4766 5.88294H14.5454V2.91517C14.5454 2.47242 14.3843 2.04781 14.0975 1.73474C13.8107 1.42168 13.4217 1.2458 13.016 1.2458L11.0771 1.23096V2.34387H13.0313C13.1665 2.34387 13.2962 2.4025 13.3918 2.50685C13.4874 2.61121 13.5411 2.75275 13.5411 2.90033V5.8681H12.6915C12.599 5.86828 12.5083 5.89592 12.4291 5.94804C12.35 6.00017 12.2853 6.07482 12.242 6.164C12.1987 6.25319 12.1784 6.35355 12.1833 6.45434C12.1883 6.55513 12.2183 6.65255 12.2701 6.73617L13.6652 8.98612C13.7118 9.06137 13.7745 9.12303 13.848 9.16571C13.9215 9.20839 14.0034 9.23079 14.0866 9.23096C14.1697 9.231 14.2515 9.20888 14.3249 9.16653C14.3984 9.12418 14.4612 9.06288 14.508 8.98797L15.9116 6.74359C15.9638 6.66008 15.9941 6.56264 15.9994 6.46173C16.0047 6.36082 15.9846 6.26025 15.9415 6.17082C15.8983 6.08139 15.8337 6.00648 15.7545 5.95413C15.6753 5.90177 15.5845 5.87396 15.4919 5.87366L15.4766 5.88294Z" fill="#CCCCCC"/>
  <path d="M2.454 13.1078V10.138H3.30365C3.39612 10.1378 3.4868 10.1101 3.56598 10.058C3.64517 10.0058 3.70987 9.93109 3.75317 9.84184C3.79647 9.7526 3.81673 9.65216 3.81178 9.55131C3.80683 9.45045 3.77686 9.35296 3.72508 9.26928L2.33505 7.01405C2.28845 6.93875 2.22568 6.87704 2.15222 6.83433C2.07876 6.79162 1.99685 6.76921 1.91363 6.76904C1.83056 6.769 1.74875 6.79114 1.6753 6.83351C1.60185 6.87589 1.539 6.93723 1.4922 7.0122L0.0885876 9.25814C0.0364243 9.34171 0.00608369 9.43922 0.000823396 9.5402C-0.0044369 9.64118 0.0155818 9.74182 0.0587301 9.83131C0.101878 9.9208 0.166527 9.99577 0.245734 10.0482C0.324941 10.1005 0.415716 10.1284 0.508313 10.1287H1.43953V13.0985C1.43953 13.5416 1.60065 13.9665 1.88747 14.2798C2.17428 14.593 2.56328 14.769 2.96889 14.769H4.92308V13.6554H2.96889C2.83426 13.6568 2.70457 13.6001 2.6081 13.4975C2.51164 13.3949 2.45624 13.2548 2.454 13.1078Z" fill="#CCCCCC"/>
  <path d="M13.1389 13.0337C13.1389 13.1688 13.0848 13.2982 12.9884 13.3937C12.8921 13.4892 12.7615 13.5428 12.6252 13.5428H9.88586V12.6943C9.886 12.6019 9.86072 12.5111 9.81273 12.4318C9.76474 12.3524 9.69586 12.2876 9.61348 12.2441C9.53111 12.2007 9.43835 12.1803 9.34516 12.1852C9.25198 12.1901 9.1619 12.22 9.08459 12.2718L6.99924 13.6616C6.92861 13.708 6.87067 13.7711 6.83059 13.8451C6.79051 13.9191 6.76953 14.0018 6.76953 14.0858C6.76953 14.1699 6.79051 14.2526 6.83059 14.3266C6.87067 14.4006 6.92861 14.4636 6.99924 14.5101L9.07089 15.9118C9.14798 15.9639 9.23792 15.9942 9.33106 15.9994C9.42421 16.0047 9.51704 15.9847 9.59959 15.9416C9.68213 15.8985 9.75128 15.8339 9.7996 15.7548C9.84793 15.6757 9.8736 15.5851 9.87387 15.4926V14.5559H12.6132C13.0219 14.5559 13.4139 14.395 13.7028 14.1086C13.9918 13.8222 14.1541 13.4337 14.1541 13.0286V11.0771H13.1389V13.0337Z" fill="#CCCCCC"/>
  <path d="M8.98424 10.4617C9.37594 10.4617 9.75161 10.306 10.0286 10.0291C10.3056 9.75209 10.4612 9.37643 10.4612 8.98473V7.0155C10.4612 6.62379 10.3056 6.24813 10.0286 5.97116C9.75161 5.69418 9.37594 5.53857 8.98424 5.53857H7.01501C6.6233 5.53857 6.24764 5.69418 5.97067 5.97116C5.69369 6.24813 5.53809 6.62379 5.53809 7.0155V8.98473C5.53809 9.37643 5.69369 9.75209 5.97067 10.0291C6.24764 10.306 6.6233 10.4617 7.01501 10.4617H8.98424ZM7.06424 7.55704C7.06424 7.42647 7.11611 7.30125 7.20843 7.20892C7.30076 7.1166 7.42598 7.06473 7.55655 7.06473H8.4427C8.57327 7.06473 8.69849 7.1166 8.79082 7.20892C8.88314 7.30125 8.93501 7.42647 8.93501 7.55704V8.44319C8.93501 8.57376 8.88314 8.69898 8.79082 8.7913C8.69849 8.88363 8.57327 8.9355 8.4427 8.9355H7.55655C7.42598 8.9355 7.30076 8.88363 7.20843 8.7913C7.11611 8.69898 7.06424 8.57376 7.06424 8.44319V7.55704Z" fill="#CCCCCC"/>
</svg>
