<?xml version="1.0" encoding="UTF-8"?>
<svg id="Capa_1" data-name="Capa 1" xmlns="http://www.w3.org/2000/svg" viewBox="0 0 100 100">
  <defs>
    <style>
      .cls-1 {
        fill: #C8C8C8;
      }
    </style>
  </defs>
  <path class="cls-1" d="M87.33,88.42c-.29-1.15-1.21-1.75-2.68-1.75-1.44,0-2.89,0-4.33,0q-1.2,0-1.2-1.19c0-23.06,0-46.13,0-69.19,0-2.13-.81-2.93-2.94-2.93-15.41,0-30.82,0-46.23,0-1.8,0-3.6,0-5.4,0-.86,0-1.52,.34-2,1.04-.39,.57-.41,1.23-.41,1.9,0,22.96,0,45.93,0,68.89,0,.25-.02,.51,0,.76,.06,.57-.18,.75-.75,.74-1.7-.03-3.4,0-5.09-.01-.61,0-1.15,.15-1.61,.55-1.4,1.22-1.04,3.09,.8,4.07H85.77c1.34-.71,1.86-1.67,1.56-2.87Zm-28.97-2.62c0,.64-.15,.89-.84,.88-4.58-.03-9.17-.03-13.75,0-.69,0-.85-.24-.84-.88,.02-4.56,.03-9.12,0-13.68,0-.73,.25-.89,.92-.88,4.53,.02,9.07,.03,13.6,0,.76,0,.93,.26,.92,.96-.04,2.25-.01,4.51-.01,6.76s-.02,4.56,.01,6.84Zm16-.23q0,1.09-1.08,1.1c-3.09,0-6.19-.02-9.28,.02-.71,0-.91-.23-.91-.92,.02-5.25,.01-10.49,0-15.74,0-.35,0-.71-.03-1.06-.16-1.6-1.02-2.41-2.63-2.47-.94-.03-1.88-.01-2.81-.01-5.45,0-10.9,0-16.35,0-.69,0-1.37,.04-1.97,.43-.56,.36-.93,.87-1.02,1.53-.07,.47-.1,.96-.1,1.44,0,5.25,0,10.49,0,15.74,0,1.04,0,1.04-1.06,1.04-3.04,0-6.08,0-9.13,0-1.06,0-1.06,0-1.06-1.03,0-22.21,0-44.41,0-66.62,0-.99,0-1,1.02-1,15.13,0,30.27,0,45.4,0,1.01,0,1.01,0,1.01,1.01,0,11.1,0,22.21,0,33.31s0,22.15,0,33.23Z"/>
  <path class="cls-1" d="M45.41,23.41c-3.52,0-7.04,0-10.56,0-1.69,0-2.65,.95-2.66,2.63,0,1.75,0,3.5,0,5.24s0,3.6,0,5.4c0,1.69,.95,2.63,2.64,2.64,3.55,0,7.09,0,10.64,0,1.68,0,2.62-.95,2.62-2.65,0-3.52,0-7.04,0-10.56,0-1.73-.96-2.68-2.68-2.68Zm-2.08,10.46c0,.48-.2,.69-.68,.68-.84-.01-1.67,0-2.51,0s-1.67-.01-2.51,0c-.48,0-.68-.2-.68-.69,.01-1.67,.01-3.34,0-5.02,0-.49,.2-.68,.68-.67,1.67,.01,3.34,.01,5.02,0,.48,0,.68,.2,.68,.68-.01,1.67-.01,3.34,0,5.02Z"/>
  <path class="cls-1" d="M66.57,23.42c-3.62-.01-7.25-.01-10.87,0-1.53,0-2.52,.99-2.52,2.53-.01,3.6-.01,7.2,0,10.79,0,1.6,.96,2.56,2.55,2.57,1.8,.01,3.6,0,5.4,0s3.6,0,5.4,0c1.59,0,2.55-.96,2.56-2.56,.01-3.6,.01-7.2,0-10.79,0-1.55-.97-2.53-2.51-2.54Zm-2.25,10.49c0,.44-.19,.65-.64,.65-1.7,0-3.39,0-5.09,0-.44,0-.65-.19-.64-.64,0-1.7,0-3.39,0-5.09,0-.45,.19-.65,.64-.64,.86,.01,1.72,0,2.58,0,.84,0,1.67,0,2.51,0,.44,0,.65,.18,.65,.63,0,1.7,0,3.39,0,5.09Z"/>
  <path class="cls-1" d="M45.54,44.69c-1.8-.01-3.6,0-5.4,0s-3.6,0-5.4,0c-1.62,.01-2.55,.93-2.55,2.55-.01,3.6-.01,7.19,0,10.79,0,1.52,.99,2.54,2.52,2.56,3.62,.03,7.24,.03,10.87,0,1.53-.01,2.51-1.03,2.52-2.55,.01-3.6,.01-7.19,0-10.79,0-1.62-.93-2.54-2.55-2.55Zm-2.21,10.5c0,.45-.19,.63-.64,.63-1.7-.01-3.4-.01-5.09,0-.45,0-.64-.18-.64-.63,0-1.75,0-3.5,0-5.24,0-.42,.19-.59,.6-.58,.89,.01,1.77,0,2.66,0,.81,0,1.62,.02,2.43,0,.49-.01,.69,.18,.68,.66-.01,1.72-.01,3.45,0,5.17Z"/>
  <path class="cls-1" d="M66.56,44.69c-1.8-.01-3.6,0-5.4,0-1.8,0-3.6,0-5.4,0-1.67,0-2.58,.92-2.59,2.59,0,3.57,0,7.14,0,10.71,0,1.53,.97,2.57,2.48,2.59,3.65,.03,7.3,.03,10.94,0,1.49-.01,2.47-1.04,2.47-2.52,.01-3.62,.01-7.24,0-10.87,0-1.57-.95-2.49-2.52-2.5Zm-2.24,10.45c0,.48-.17,.69-.67,.68-1.67-.01-3.34-.02-5.02,0-.54,0-.71-.24-.7-.74,.02-.84,0-1.67,0-2.51,0-.86,0-1.72,0-2.58,0-.44,.17-.64,.63-.64,1.7,.01,3.4,.02,5.09,0,.51,0,.66,.22,.66,.69-.01,1.7-.01,3.4,0,5.09Z"/>
</svg>