<?xml version="1.0" encoding="UTF-8"?>
<svg id="Capa_1" data-name="Capa 1" xmlns="http://www.w3.org/2000/svg" viewBox="0 0 100 100">
  <defs>
    <style>
      .cls-1 {
        fill: #fff;
      }

      .cls-2 {
        fill: #C8C8C8;
      }
    </style>
  </defs>
  <path class="cls-2" d="M84.34,23.96h-8.96c-.5-.72-1.21-1.29-2.04-1.6-.77-2.93-3.24-5.14-6.25-5.55-1.28-2.38-3.77-3.94-6.62-3.94s-5.35,1.56-6.62,3.94c-3.01,.41-5.49,2.63-6.25,5.55-.83,.32-1.54,.88-2.04,1.6h-8.32c-1.04,0-1.88,.84-1.88,1.88v56.68c0,1.04,.84,1.88,1.88,1.88h47.11c1.04,0,1.88-.84,1.88-1.88V25.84c0-1.04-.84-1.88-1.88-1.88Zm-29.49-4.4c.33,0,.66,.04,.97,.1,.35-2.25,2.29-3.98,4.64-3.98s4.29,1.73,4.64,3.98c.31-.07,.64-.1,.97-.1,2.49,0,4.51,1.95,4.67,4.4,0,.1,.03,.2,.03,.3,0,.22-.02,.43-.05,.64h1.07c.84,0,1.51,.68,1.51,1.51v2.32c0,.84-.68,1.51-1.51,1.51h-22.69c-.84,0-1.51-.68-1.51-1.51v-2.32c0-.84,.68-1.51,1.51-1.51h1.07c-.03-.21-.05-.42-.05-.64,0-.1,.02-.2,.03-.3,.16-2.45,2.18-4.4,4.67-4.4Zm27.61,61.08H39.11V27.72h5.67v1c0,2.39,1.95,4.34,4.34,4.34h22.69c2.39,0,4.34-1.95,4.34-4.34v-1h6.31v52.91Z"/>
  <g>
    <path class="cls-2" d="M58.56,65.47c.56,.61,1.35,.95,2.17,.95,.1,0,.19,0,.29-.01,.92-.09,1.74-.61,2.22-1.41l11.35-18.71c.84-1.39,.4-3.2-.99-4.04-1.4-.84-3.2-.39-4.04,.99l-9.32,15.37-6.23-6.78c-1.11-1.2-2.97-1.28-4.16-.18-1.2,1.1-1.28,2.96-.18,4.16l8.88,9.66Z"/>
    <path class="cls-1" d="M60.72,66.54c-.85,0-1.67-.36-2.25-.99h0s-8.88-9.66-8.88-9.66c-1.14-1.24-1.06-3.18,.18-4.32,1.24-1.14,3.18-1.06,4.32,.18l6.12,6.66,9.23-15.24c.88-1.43,2.76-1.89,4.21-1.03,1.44,.88,1.9,2.76,1.03,4.2l-11.35,18.71c-.5,.82-1.36,1.37-2.31,1.46-.11,0-.2,.01-.3,.01Zm-2.08-1.15c.54,.58,1.3,.91,2.08,.91,.09,0,.18,0,.28-.01,.88-.09,1.68-.59,2.14-1.35l11.35-18.71c.81-1.33,.38-3.07-.95-3.88-1.33-.8-3.07-.37-3.88,.95l-9.4,15.5-6.34-6.89c-1.06-1.15-2.85-1.22-3.99-.17-1.15,1.05-1.22,2.84-.17,3.99l8.88,9.66Z"/>
  </g>
  <path class="cls-2" d="M63.18,85.02h-3.93c0,.71-.14,1.53-2.63,1.53H13.62c-1.59,0-2.88-1.29-2.88-2.88V40.67c0-1.59,1.29-2.88,2.88-2.88h5.37v6.83c0,2.51,1.53,4.48,3.48,4.48h10.4c.97,0,1.74-.86,1.74-1.96s-.76-1.96-1.74-1.96l-10.2,.08-.03-.03c-.07-.07-.17-.29-.17-.6v-6.83h10.29c1.08,0,1.96-.88,1.96-1.96s-.88-1.96-1.96-1.96H13.62c-3.75,0-6.81,3.05-6.81,6.81v43.01c0,3.75,3.05,6.8,6.81,6.8H56.62c4.06,0,6.5-2.04,6.56-5.46Z"/>
</svg>