<?xml version="1.0" encoding="UTF-8"?>
<svg id="Capa_1" data-name="Capa 1" xmlns="http://www.w3.org/2000/svg" viewBox="0 0 100 100">
  <defs>
    <style>
      .cls-1 {
        fill: #C8C8C8;
      }
    </style>
  </defs>
  <path class="cls-1" d="M49.36,56.91c-.21-.56-.3-1.12-.3-1.72,0-10.18,0-20.35,0-30.53,0-1.74-.91-2.63-2.65-2.64-3.95-.03-7.8,.64-11.48,2.04-10.92,4.15-18.23,11.76-21.76,22.95-.69,2.18-1.01,4.43-1.3,6.68v5.83c.29,2.28,.64,4.54,1.32,6.75,2.73,8.87,8.1,15.66,16.07,20.37,4.39,2.6,9.15,4.11,14.25,4.56,.1,0,.2,.06,.29,.08h5.99c.15-.04,.29-.09,.44-.1,2.7-.29,5.34-.88,7.91-1.76,2.15-.74,2.69-1.79,1.89-3.92-3.55-9.53-7.1-19.06-10.67-28.59Zm4.56,28.79c-10.42,2.31-19.68,0-27.63-7.13-5.64-5.06-8.84-11.5-9.56-19.01-.8-8.38,1.57-15.88,7.09-22.3,4.66-5.42,10.58-8.68,17.57-10.02,.8-.15,1.62-.21,2.43-.32,.36-.05,.53,.09,.53,.46,0,.2,0,.41,0,.61,0,4.73,0,9.46,0,14.19s0,9.16,0,13.73c0,.83,.15,1.61,.44,2.39,3.26,8.71,6.52,17.43,9.77,26.15,.37,1,.37,1.02-.63,1.24Z"/>
  <path class="cls-1" d="M56.37,49.75c6.14,0,12.27,0,18.41,0,4.4,0,8.8,0,13.19,0,1.59,0,2.49-.94,2.53-2.54,.04-1.72-.1-3.43-.38-5.12-1.35-8.22-5.07-15.18-11.31-20.71-6.39-5.66-13.87-8.61-22.43-8.73-1.96-.03-2.82,.83-2.82,2.77,0,5.24,0,10.48,0,15.73s0,10.53,0,15.8c0,1.94,.85,2.79,2.81,2.79Zm2.92-32.12c6.02,.68,11.34,3,15.91,6.94,5.73,4.93,9.12,11.18,10.25,18.66,.03,.23,.03,.46,.05,.69q.11,1.12-1.06,1.12h-12.58c-4.24,0-8.49-.01-12.73,.01-.66,0-.89-.16-.88-.86,.02-8.61,.03-17.23,0-25.84,0-.92,.4-.8,1.04-.73Z"/>
  <path class="cls-1" d="M87.65,54.25c-5.19,0-10.38,0-15.58,0-5.29,0-10.59,0-15.88,0-.66,0-1.27,.11-1.79,.54-.87,.72-1.07,1.72-.56,3.08,3.67,9.84,7.34,19.69,11.02,29.53,.67,1.8,1.86,2.3,3.64,1.59,5.15-2.05,9.6-5.12,13.24-9.31,5.63-6.48,8.6-14,8.75-22.61,.04-1.98-.83-2.83-2.84-2.83Zm-9.32,22.09c-2.57,2.98-5.63,5.34-9.13,7.13-.72,.37-.76-.12-.92-.54-2.15-5.77-4.3-11.55-6.46-17.32-.73-1.96-1.45-3.93-2.21-5.89-.23-.6-.16-.79,.54-.79,4.12,.03,8.24,.01,12.35,.01,4.09,0,8.18,.01,12.28-.01,.65,0,.87,.11,.78,.86-.71,6.26-3.13,11.76-7.23,16.53Z"/>
</svg>