<?xml version="1.0" encoding="UTF-8"?>
<svg id="Capa_1" data-name="Capa 1" xmlns="http://www.w3.org/2000/svg" viewBox="0 0 100 100">
  <defs>
    <style>
      .cls-1 {
        fill: #C8C8C8;
      }
    </style>
  </defs>
  <path class="cls-1" d="M29.18,26.62c-.55-4.6-4.58-7.98-9.17-7.69-4.58,.29-8.12,4.08-8.12,8.7-.02,2.36,.82,4.39,2.44,6.07,3.51,3.63,9.24,3.49,12.72-.31,.33-.36,.57-.71,1.18-.44,3.56,1.58,7.13,3.12,10.71,4.67,.42,.18,.61,.45,.55,.91-.08,.64-.07,1.28-.02,1.92,.3,4.41,4.37,8.09,8.8,7.94,6.27-.21,10.27-6.5,7.76-12.24-.25-.58-.16-.88,.29-1.27,4.57-3.97,9.12-7.96,13.66-11.96,.41-.36,.69-.3,1.09-.04,2.01,1.29,4.21,1.65,6.52,1.14,4.38-.97,7.23-5.07,6.71-9.61-.48-4.22-4.4-7.64-8.71-7.59-6.17,.07-10.32,6.4-7.88,12.09,.31,.72,.17,1.08-.37,1.55-4.13,3.58-8.26,7.15-12.32,10.8-1.1,.99-2.03,1.69-3.35,.48-.02-.02-.05-.02-.08-.03-3.54-1.54-7.36-.68-10.02,2.26-.28,.31-.47,.66-1.03,.42-3.58-1.59-7.18-3.15-10.78-4.71-.51-.22-.67-.55-.56-1.06,.15-.67,.07-1.33,0-2Zm-8.64,6.07c-2.76,0-5.01-2.26-5.02-5.03-.01-2.84,2.21-5.11,5.01-5.12,2.82,0,5.05,2.23,5.05,5.07,0,2.84-2.23,5.09-5.04,5.08ZM75.67,10.54c2.87,0,5.04,2.2,5.02,5.08-.01,2.79-2.25,4.99-5.05,4.98-2.84,0-5.03-2.24-5.01-5.1,.02-2.84,2.18-4.97,5.04-4.96Zm-27.54,24.09c2.81,0,4.99,2.21,5,5.02,0,2.89-2.17,5.05-5.06,5.04-2.84-.01-4.99-2.17-5-5.01,0-2.86,2.19-5.05,5.06-5.04Z"/>
  <path class="cls-1" d="M70.9,29.21c-4.41,.02-7.37,3-7.37,7.41,0,6.72,0,13.45,0,20.17s0,13.56,0,20.34c0,4.44,2.98,7.42,7.44,7.43,3.11,0,6.22,0,9.33,0,4.56,0,7.53-2.98,7.53-7.54,0-13.42,0-26.84,0-40.26,0-4.55-2.97-7.54-7.51-7.56-3.14-.01-6.28-.01-9.41,0Zm13.3,7.41c0,13.5,0,27.01,0,40.51,0,2.31-1.27,3.73-3.58,3.79-3.3,.08-6.61,.08-9.92,0-2.36-.06-3.55-1.43-3.55-3.78,0-6.75,0-13.5,0-20.26,0-6.72,0-13.45,0-20.17,0-2.52,1.25-3.77,3.76-3.78,3.19,0,6.39,0,9.58,0,2.36,0,3.71,1.34,3.71,3.7Z"/>
  <path class="cls-1" d="M8.39,77.27c0,4.21,3.04,7.26,7.27,7.29,3.28,.03,6.56,.03,9.83,0,4.18-.03,7.19-3.07,7.19-7.25,0-4.79,0-9.58,0-14.37,0-4.79,0-9.58,0-14.37,0-4.25-3-7.26-7.24-7.27-3.25-.01-6.5,0-9.75,0-4.27,.01-7.3,3.04-7.31,7.32-.01,9.55-.01,19.11,0,28.66Zm7.44-32.36c3.17,0,6.33,0,9.5,0,2.38,0,3.73,1.37,3.73,3.78,0,4.76,0,9.53,0,14.29s0,9.42,0,14.12c0,2.39-1.22,3.76-3.61,3.81-3.28,.07-6.56,.07-9.83,0-2.31-.05-3.6-1.47-3.6-3.77,0-9.47,0-18.94,0-28.42,0-2.42,1.39-3.81,3.82-3.81Z"/>
  <path class="cls-1" d="M53.26,53.38c-3.39-.02-6.78-.01-10.17,0-4.1,.01-7.12,3.01-7.14,7.11-.01,2.8,0,5.61,0,8.41,0,2.8,0,5.6,0,8.41,.01,4.12,2.93,7.17,7.03,7.25,3.42,.07,6.84,.07,10.26,0,4.07-.09,7-3.13,7.01-7.19,.01-5.66,.02-11.32,0-16.98-.02-3.95-3.06-6.98-6.99-7Zm3.36,23.7c0,2.38-1.24,3.78-3.61,3.84-3.28,.08-6.56,.07-9.83,0-2.37-.05-3.6-1.45-3.61-3.84,0-5.41,0-10.82,0-16.22,0-2.53,1.31-3.85,3.81-3.85,3.19,0,6.39,0,9.58,0,2.28,0,3.64,1.38,3.65,3.68,0,2.77,0,5.55,0,8.32,0,2.69,0,5.38,0,8.07Z"/>
</svg>