<?xml version="1.0" encoding="UTF-8"?>
<svg id="Capa_1" data-name="Capa 1" xmlns="http://www.w3.org/2000/svg" viewBox="0 0 100 100">
  <defs>
    <style>
      .cls-1 {
        fill: #fff;
      }

      .cls-2 {
        fill: #565656;
      }
    </style>
  </defs>
  <g>
    <path class="cls-2" d="M48.77,53.6c.57,.62,1.37,.96,2.19,.96,.1,0,.2,0,.3-.01,.93-.09,1.76-.62,2.25-1.42l11.48-18.94c.85-1.41,.4-3.24-1-4.09-1.42-.85-3.24-.4-4.09,1l-9.42,15.55-6.3-6.86c-1.12-1.22-3-1.29-4.21-.18-1.21,1.11-1.29,2.99-.18,4.21l8.98,9.77Z"/>
    <path class="cls-1" d="M50.96,54.68c-.86,0-1.69-.37-2.28-1h0s-8.98-9.77-8.98-9.77c-1.16-1.26-1.07-3.22,.18-4.37,1.25-1.15,3.21-1.07,4.37,.19l6.2,6.74,9.34-15.42c.89-1.45,2.8-1.92,4.26-1.04,1.46,.89,1.92,2.8,1.04,4.25l-11.48,18.94c-.5,.83-1.38,1.38-2.34,1.48-.11,0-.21,.01-.31,.01Zm-2.11-1.16c.54,.59,1.31,.92,2.11,.92,.09,0,.19,0,.28-.01,.89-.09,1.7-.6,2.17-1.37l11.48-18.94c.82-1.35,.39-3.11-.96-3.92-1.35-.81-3.11-.38-3.93,.96l-9.51,15.69-6.41-6.98c-1.07-1.16-2.88-1.24-4.04-.17-1.16,1.07-1.24,2.88-.17,4.04l8.98,9.77Z"/>
  </g>
  <path class="cls-2" d="M82.28,53.64c-.77-.82-1.8-1.26-2.9-1.41,1.24-3.27,1.92-6.74,1.92-10.27,0-5.22-1.44-10.21-4.05-14.65l.04-.03s-3.23-6.26-9.53-9.91l-.07,.03c-4.57-2.96-9.74-4.54-15.49-4.54-16.04,0-29.1,13.05-29.1,29.09,0,7.59,3.01,14.85,8.27,20.26-1.84,1.46-3.25,3.17-4.1,4.34-.92-.52-1.95-.82-3.03-.82-1.65,0-3.2,.64-4.37,1.81l-2.23,2.23c-1.22,1.22-1.22,3.22,0,4.44l15.33,15.33c.59,.59,1.38,.92,2.22,.92s1.63-.33,2.22-.92l2.23-2.23c1.17-1.16,1.81-2.72,1.81-4.37,0-1.12-.32-2.19-.88-3.13l1.45-1.17h19.3c1.65,0,3.2-.64,4.37-1.81l16.37-16.37c1.89-1.89,1.98-4.96,.2-6.84Zm-55.58-11.57c0-14.07,11.44-25.51,25.51-25.51,4.15,0,7.84,.86,11.21,2.55,.26,.13,.6,.32,1.01,.55,.59,.33,1.17,.72,1.74,1.11,2.25,1.55,5.23,4.15,7.84,8.13,2.47,3.89,3.7,8.1,3.7,13.16,0,4.38-1.13,8.7-3.28,12.51l-7.06,7.06c-1.32-1.67-3.81-1.74-3.81-1.74h-23.11c-3.2-.08-4.99,.23-5.95,.53-4.96-4.79-7.81-11.46-7.81-18.35Zm10.98,43.28l-2.23,2.23c-.11,.11-.36,.11-.47,0l-15.33-15.33c-.13-.13-.13-.34,0-.48l2.23-2.23c.64-.64,1.49-.99,2.39-.99s1.75,.35,2.39,.99l11.03,11.03c.64,.64,.99,1.49,.99,2.39s-.35,1.75-.99,2.39Zm42.41-26.84l-16.37,16.37c-.64,.64-1.48,.99-2.38,.99h-20.29l-2.29,1.84-4.66-4.66-4.66-4.67c.76-1.06,2.32-3.02,4.27-4.39,1.35-.8,3.07-1.54,4.14-1.54h25.27c1.07,0,1.92,.83,2.01,1.88l-.63,1.63s0,0,0,.01c-.36,.34-.84,.56-1.38,.56h-15.98c-.77,0-1.4,.63-1.4,1.4s.63,1.4,1.4,1.4h15.98c.66,0,1.28-.14,1.85-.37,.15-.06,.25-.17,.39-.25,.4-.21,.79-.44,1.12-.76,.15-.14,.23-.32,.36-.48,.24-.29,.48-.58,.65-.92l9.66-9.68s.21-.28,.24-.33c.28-.48,.49-.99,.74-1.49,.21-.07,.43-.12,.66-.13,.56,.01,1.08,.24,1.46,.64,.75,.79,.68,2.11-.15,2.94Z"/>
</svg>