<svg width="17" height="16" viewBox="0 0 17 16" fill="none" xmlns="http://www.w3.org/2000/svg">
<path d="M9.73144 10.0122C9.73144 9.71415 9.48596 9.48621 9.20541 9.48621H3.61197C3.31388 9.48621 3.08594 9.73169 3.08594 10.0122C3.08594 10.3103 3.33142 10.5383 3.61197 10.5383H9.20541C9.48596 10.5383 9.73144 10.3103 9.73144 10.0122Z" fill="#C8C8C8"/>
<path d="M3.61197 7.85516H9.20541C9.50349 7.85516 9.73144 7.60968 9.73144 7.32913C9.73144 7.03105 9.48596 6.8031 9.20541 6.8031H3.61197C3.31388 6.8031 3.08594 7.04858 3.08594 7.32913C3.08594 7.60968 3.33142 7.85516 3.61197 7.85516Z" fill="#C8C8C8"/>
<path d="M3.08594 12.7121C3.08594 13.0102 3.33142 13.2382 3.61197 13.2382H8.17088L8.41636 12.1686H3.61197C3.31388 12.1686 3.08594 12.4141 3.08594 12.7121Z" fill="#C8C8C8"/>
<path d="M11.748 14.5359C11.748 14.7113 11.6077 14.8691 11.4148 14.8691H1.38521C1.19233 14.8691 1.05206 14.7113 1.05206 14.5359V1.38521C1.05206 1.20987 1.19233 1.05206 1.38521 1.05206H7.66249V3.76987C7.66249 4.54138 8.27619 5.15508 9.0477 5.15508H11.748V8.34633L12.8176 7.27673V4.97974C12.8176 4.61152 12.6598 4.26083 12.3967 3.99782L8.81975 0.403289C8.55674 0.140274 8.20605 0 7.83783 0H1.38521C0.6137 0 0 0.631235 0 1.38521V14.5535C0 15.3074 0.6137 15.9387 1.38521 15.9387H11.4148C12.1863 15.9387 12.8176 15.3074 12.8176 14.5535V12.7825L11.748 13.8521V14.5359ZM8.73208 1.80603L11.0115 4.08549H9.0477C8.85482 4.08549 8.71455 3.94522 8.71455 3.75234V1.80603H8.73208Z" fill="#C8C8C8"/>
<path d="M9.41539 13.8171L10.7655 13.519C10.8181 13.5015 10.8707 13.4664 10.9233 13.4313L11.3091 13.0456L9.81868 11.5552L9.43293 11.9409C9.38033 11.9935 9.34526 12.0461 9.34526 12.0987L9.02964 13.4489C8.97704 13.6593 9.18745 13.8697 9.41539 13.8171Z" fill="#C8C8C8"/>
<path d="M10.3799 10.994L11.8703 12.4844L15.3246 9.03017L13.8341 7.52222L10.3799 10.994Z" fill="#C8C8C8"/>
<path d="M16.5698 7.32917L15.5177 6.27711C15.395 6.15437 15.2021 6.15437 15.0794 6.27711L14.4131 6.94342L15.9035 8.43383L16.5698 7.78506C16.6925 7.66232 16.6925 7.45191 16.5698 7.32917Z" fill="#C8C8C8"/>
</svg>
