<svg width="21" height="19" viewBox="0 0 21 19" fill="none" xmlns="http://www.w3.org/2000/svg">
<path d="M3.73512 6.8855C3.73512 7.3645 4.15931 7.76366 4.66835 7.76366H5.1986C5.32586 8.16281 5.47433 8.52206 5.68643 8.8813L5.32586 9.22059C5.15618 9.38025 5.05013 9.61975 5.05013 9.83929C5.05013 10.0788 5.15618 10.2983 5.32586 10.458L6.11063 11.1964C6.28031 11.3561 6.53483 11.4559 6.76814 11.4559C7.02266 11.4559 7.25596 11.3561 7.42564 11.1964L7.78621 10.8571C8.16799 11.0567 8.57098 11.2164 8.97397 11.3162V11.7952C8.97397 12.2742 9.39817 12.6733 9.90721 12.6733H11.0313C11.5404 12.6733 11.9646 12.2742 11.9646 11.7952V11.3162C12.3888 11.1964 12.7705 11.0567 13.1523 10.8571L13.5129 11.1964C13.6826 11.3561 13.9371 11.4559 14.1704 11.4559C14.4249 11.4559 14.6582 11.3561 14.8279 11.1964L15.6127 10.458C15.7824 10.2983 15.8884 10.0588 15.8884 9.83929C15.8884 9.59979 15.7824 9.38025 15.6127 9.22059L15.2521 8.8813C15.4642 8.52206 15.6339 8.14286 15.7399 7.76366H16.249C16.758 7.76366 17.1822 7.3645 17.1822 6.8855V5.82773C17.1822 5.34874 16.758 4.94958 16.249 4.94958H15.8036C15.6763 4.55042 15.5278 4.19118 15.3157 3.83193L15.6763 3.49265C16.0369 3.15336 16.0369 2.59454 15.6763 2.23529L14.8915 1.49685C14.7219 1.33718 14.4673 1.2374 14.234 1.2374C13.9795 1.2374 13.7462 1.33718 13.5765 1.49685L13.216 1.83613C12.8342 1.63655 12.4312 1.47689 12.0282 1.3771V0.878151C12.0282 0.39916 11.604 0 11.095 0H9.97084C9.4618 0 9.0376 0.39916 9.0376 0.878151V1.35714C8.6134 1.47689 8.23162 1.6166 7.84984 1.81618L7.48927 1.47689C7.31959 1.31723 7.06508 1.21744 6.83177 1.21744C6.57725 1.21744 6.34394 1.31723 6.17426 1.47689L5.38949 2.21534C5.02892 2.55462 5.02892 3.11345 5.38949 3.47269L5.75006 3.81197C5.53796 4.17122 5.36828 4.55042 5.26223 4.92962H4.75319C4.24415 4.92962 3.81996 5.32878 3.81996 5.80777V6.8855H3.73512ZM4.79561 5.94748H5.6228C5.87732 5.94748 6.08942 5.78782 6.15305 5.54832C6.2591 5.00945 6.49241 4.49055 6.81056 4.03151C6.95903 3.83193 6.91661 3.57248 6.74693 3.39286L6.17426 2.85399L6.78935 2.27521L7.36201 2.81408C7.53169 2.97374 7.82863 3.01366 8.04073 2.87395C8.52856 2.57458 9.08002 2.35504 9.65269 2.25525C9.90721 2.21534 10.0769 1.9958 10.0769 1.7563V0.997899H10.9677V1.7563C10.9677 1.9958 11.1374 2.19538 11.3919 2.25525C11.9646 2.35504 12.516 2.57458 13.0039 2.87395C13.216 3.01366 13.4917 2.97374 13.6826 2.81408L14.2552 2.27521L14.8703 2.85399L14.2977 3.39286C14.128 3.55252 14.0856 3.83193 14.234 4.03151C14.5522 4.49055 14.7855 5.00945 14.8915 5.54832C14.934 5.78782 15.1673 5.94748 15.4218 5.94748H16.2278V6.78571H15.3794C15.1248 6.78571 14.9127 6.94538 14.8491 7.18487C14.7431 7.72374 14.5098 8.24265 14.1916 8.70168C14.0431 8.90126 14.0856 9.16071 14.2552 9.34034L14.8279 9.8792L14.2128 10.458L13.6402 9.89916C13.4705 9.7395 13.1735 9.69958 12.9614 9.83929C12.4736 10.1387 11.9221 10.3582 11.3495 10.458C11.095 10.4979 10.9253 10.7174 10.9253 10.9569V11.7153H10.0345V10.9569C10.0345 10.7174 9.86479 10.5179 9.61027 10.458C9.0376 10.3582 8.48614 10.1387 7.99831 9.83929C7.78621 9.69958 7.51048 9.7395 7.31959 9.89916L6.74693 10.438L6.13184 9.85924L6.70451 9.32038C6.87419 9.16071 6.91661 8.8813 6.76814 8.68172C6.44999 8.22269 6.21668 7.70378 6.11063 7.16492C6.06821 6.92542 5.8349 6.76576 5.58038 6.76576H4.7744V5.94748H4.79561ZM10.5011 9.10084C12.113 9.10084 13.4281 7.86345 13.4281 6.34664C13.4281 4.82983 12.113 3.59244 10.5011 3.59244C8.88913 3.59244 7.57411 4.82983 7.57411 6.34664C7.57411 7.86345 8.88913 9.10084 10.5011 9.10084ZM10.5011 4.61029C11.5192 4.61029 12.3676 5.38866 12.3676 6.3666C12.3676 7.34454 11.5192 8.10294 10.5011 8.10294C9.48301 8.10294 8.63461 7.32458 8.63461 6.34664C8.63461 5.3687 9.48301 4.61029 10.5011 4.61029ZM19.0487 19C20.1304 19 21 18.1817 21 17.1639C21 16.146 20.1304 15.3277 19.0487 15.3277C18.1579 15.3277 17.4155 15.8866 17.1822 16.6649H12.3676C12.1767 16.0462 11.6676 15.5672 11.0313 15.4076V14.0305C11.0313 13.751 10.798 13.5315 10.5011 13.5315C10.2041 13.5315 9.97084 13.751 9.97084 14.0305V15.4076C9.31333 15.5872 8.80429 16.0662 8.63461 16.6649H3.81996C3.62907 16.0063 3.03519 15.4874 2.33526 15.3676C1.63533 15.2479 0.914194 15.4874 0.447576 16.0063C0.065797 16.4254 -0.0826725 16.9842 0.0445871 17.5231C0.193057 18.2416 0.808145 18.8403 1.5717 18.9601C1.69896 18.98 1.82622 19 1.95348 19C2.52615 19 3.07761 18.7605 3.45939 18.3414C3.62907 18.1418 3.75633 17.9223 3.84117 17.6628H8.63461C8.86792 18.4412 9.61027 19 10.5011 19C11.3919 19 12.1342 18.4412 12.3676 17.6628H17.161C17.3943 18.4412 18.1579 19 19.0487 19ZM19.0487 16.3456C19.5365 16.3456 19.9395 16.7248 19.9395 17.1838C19.9395 17.6429 19.5365 18.0221 19.0487 18.0221C18.5821 18.0221 18.2003 17.6828 18.1579 17.2437C18.1579 17.2237 18.1579 17.2038 18.1579 17.1838C18.1579 17.1639 18.1579 17.1439 18.1579 17.1239C18.2003 16.6849 18.5821 16.3456 19.0487 16.3456ZM2.6322 17.7027C2.4201 17.9422 2.10195 18.042 1.76259 17.9821C1.42323 17.9223 1.12629 17.6628 1.06266 17.3235C1.02024 17.0641 1.08387 16.8246 1.25355 16.625C1.42323 16.4254 1.67775 16.3256 1.93227 16.3256C1.9959 16.3256 2.05953 16.3256 2.10195 16.3456C2.44131 16.4055 2.73825 16.6649 2.80188 17.0042C2.88672 17.2637 2.80188 17.5032 2.6322 17.7027ZM10.5011 18.0021C10.0133 18.0021 9.61027 17.6229 9.61027 17.1639C9.61027 16.7048 10.0133 16.3256 10.5011 16.3256C10.9889 16.3256 11.3919 16.7048 11.3919 17.1639C11.3919 17.6429 10.9889 18.0021 10.5011 18.0021Z" fill="#C8C8C8"/>
</svg>
