<svg width="18" height="18" viewBox="0 0 18 18" fill="none" xmlns="http://www.w3.org/2000/svg">
<path d="M6.55134 9.65931C6.69757 9.91643 7.02443 10.0071 7.2824 9.86092L7.28245 9.86089L11.9648 7.20523C12.0489 7.15901 12.121 7.0892 12.1712 7.0008L12.1712 7.00078C12.3172 6.74307 12.2275 6.41538 11.9693 6.26903L7.31316 3.62828C7.22812 3.57195 7.12641 3.53963 7.01749 3.53963C6.72089 3.53963 6.48 3.78053 6.48 4.07712V9.39409V9.54409H6.5024C6.5139 9.58348 6.53013 9.62216 6.55134 9.65931ZM6.55134 9.65931C6.55136 9.65936 6.55139 9.65942 6.55142 9.65947L6.68166 9.58505L6.55125 9.65916C6.55128 9.65921 6.55131 9.65926 6.55134 9.65931ZM11.1832 12.0837C11.1832 11.7873 10.9429 11.5462 10.6457 11.5462H2.75054C2.52443 11.5462 2.31838 11.4536 2.16824 11.3035C2.01811 11.1533 1.92549 10.9473 1.92549 10.7212V2.75105C1.92549 2.52541 2.01814 2.31886 2.16824 2.16875C2.31838 2.01861 2.52443 1.92599 2.75054 1.92599H15.4217C15.6473 1.92599 15.8539 2.01864 16.004 2.16875C16.1541 2.31886 16.2468 2.52541 16.2468 2.75105V10.7212C16.2468 10.9473 16.1541 11.1533 16.004 11.3035C15.8539 11.4536 15.6478 11.5462 15.4217 11.5462H13.6995C13.4031 11.5462 13.162 11.7865 13.162 12.0837C13.162 12.3803 13.4029 12.6212 13.6995 12.6212H15.4217C15.9446 12.6212 16.4204 12.407 16.7642 12.0632C17.108 11.7193 17.3222 11.2441 17.3222 10.7207V2.75054C17.3222 2.22713 17.108 1.75187 16.7642 1.40805C16.4204 1.06424 15.9451 0.85 15.4217 0.85H2.75054C2.22713 0.85 1.75187 1.06424 1.40805 1.40805C1.06424 1.75187 0.85 2.22713 0.85 2.75054V10.7207C0.85 11.2441 1.06424 11.7193 1.40805 12.0632C1.75187 12.407 2.22713 12.6212 2.75054 12.6212H10.6457C10.9423 12.6212 11.1832 12.3803 11.1832 12.0837ZM7.55497 8.47252V4.99919L10.6172 6.73586L7.55497 8.47252ZM7.69926 13.1671H5.46905C5.17258 13.1671 4.93156 13.4074 4.93156 13.7046V14.8913H1.388C1.09153 14.8913 0.850506 15.1316 0.850506 15.4288C0.850506 15.7254 1.0914 15.9663 1.388 15.9663H4.93156V17.1525C4.93156 17.4491 5.17245 17.69 5.46905 17.69H7.69926C7.99573 17.69 8.23675 17.4497 8.23675 17.1525V15.9663H16.7842C17.0808 15.9663 17.3217 15.7254 17.3217 15.4288C17.3217 15.1322 17.0808 14.8913 16.7842 14.8913H8.23675V13.7046C8.23675 13.408 7.99586 13.1671 7.69926 13.1671ZM6.00654 15.4293V14.2426H7.16127V15.4293V16.6155H6.00654V15.4293Z" fill="#C8C8C8" stroke="#C8C8C8" stroke-width="0.3"/>
</svg>
