<svg width="15" height="20" viewBox="0 0 15 20" fill="none" xmlns="http://www.w3.org/2000/svg">
    <mask id="path-1-outside-1_1_4032" maskUnits="userSpaceOnUse" x="-0.521484" y="-0.263184" width="15" height="20" fill="black">
        <rect fill="white" x="-0.521484" y="-0.263184" width="15" height="20"/>
        <path d="M13.9738 14.5914C13.9738 12.1303 11.7313 9.60617 10.3192 8.2607C10.3838 8.21652 10.4446 8.16692 10.5008 8.11244C10.712 7.89874 10.8304 7.61041 10.8304 7.30997C10.8304 7.00953 10.712 6.7212 10.5008 6.50751C10.2917 6.2997 10.0634 6.11229 9.81878 5.94783L10.0782 5.79956C10.5496 5.55319 10.956 5.19885 11.2643 4.76544C11.4403 4.5039 11.53 4.19378 11.5207 3.87866C11.5114 3.56354 11.4036 3.25925 11.2124 3.00855C11.0464 2.83363 10.8412 2.70072 10.6137 2.6208C10.3862 2.54088 10.1429 2.51625 9.90403 2.54894L9.79283 2.56748C9.82784 2.42668 9.84772 2.28254 9.85213 2.13752C9.86806 1.88947 9.81609 1.64176 9.70181 1.42103C9.58752 1.2003 9.41525 1.01488 9.20349 0.884713C8.50296 0.495528 7.72088 0.97367 7.35023 1.18494L6.07519 1.95219C5.97511 2.0115 5.76754 2.14122 5.65635 2.11528C5.55259 2.06423 5.46145 1.99081 5.38948 1.9003C5.21634 1.69082 4.97943 1.54373 4.71489 1.48146C4.50666 1.46074 4.29729 1.50757 4.11773 1.61504C3.93817 1.72251 3.79796 1.8849 3.71784 2.07821C3.59609 2.38274 3.56144 2.71512 3.61776 3.0382C3.74326 4.06994 4.15545 5.04584 4.80755 5.85516C4.50699 6.04047 4.22845 6.25933 3.97729 6.50751C3.76521 6.72073 3.64616 7.00924 3.64616 7.30997C3.64616 7.61071 3.76521 7.89922 3.97729 8.11244C4.03262 8.16683 4.0935 8.21528 4.15891 8.25699C2.74673 9.60246 0.500572 12.1303 0.504279 14.5914C0.352311 15.8776 0.808214 18.3684 3.62147 18.7428C3.81712 18.7646 4.01055 18.803 4.19968 18.8577C5.08458 19.1305 6.00538 19.2692 6.93139 19.2691H7.22791C8.2601 19.2991 9.29031 19.1614 10.2784 18.8614C10.4675 18.8067 10.661 18.7683 10.8566 18.7465C13.6699 18.3684 14.1258 15.8776 13.9738 14.5914ZM9.21091 4.1131C9.24426 4.04267 9.27392 3.96854 9.30357 3.89812C9.3175 3.86915 9.32987 3.83945 9.34063 3.80916C9.37029 3.74244 9.39994 3.67202 9.42588 3.6053C9.45183 3.53858 9.45924 3.52747 9.47407 3.48669C9.48889 3.44592 9.50743 3.40515 9.52225 3.36808C9.67349 3.33079 9.82703 3.30355 9.98186 3.28654C10.1015 3.26705 10.2241 3.27565 10.3399 3.31167C10.4557 3.3477 10.5615 3.41015 10.649 3.49411C10.7359 3.62481 10.7822 3.77825 10.7822 3.93518C10.7822 4.09212 10.7359 4.24556 10.649 4.37626C10.4017 4.706 10.0822 4.97479 9.71499 5.16204C9.49261 5.2983 9.2581 5.41369 9.01446 5.50675C8.85844 5.443 8.69878 5.38854 8.53632 5.34366L8.56968 5.29177C8.62157 5.21764 8.67346 5.14351 8.72164 5.06567C8.73604 5.04594 8.74846 5.02484 8.75871 5.00266C8.80319 4.92853 8.84767 4.85811 8.88844 4.78398L8.92921 4.70985L9.04411 4.49116C9.04411 4.46892 9.06635 4.44298 9.08118 4.41703C9.096 4.39109 9.1516 4.27248 9.18496 4.19835L9.21091 4.1131ZM4.35536 2.94925C4.31838 2.7602 4.33115 2.56478 4.39242 2.38215C4.4369 2.28207 4.53698 2.20424 4.59999 2.21165C4.70413 2.26042 4.79549 2.33275 4.86686 2.42292C5.03136 2.61788 5.24899 2.76082 5.49326 2.83435C5.66351 2.85881 5.83691 2.84947 6.00354 2.80686C6.17017 2.76425 6.32677 2.6892 6.46437 2.58601C6.89433 2.33396 7.31687 2.07821 7.75054 1.81505C8.12119 1.60007 8.55485 1.37027 8.84396 1.53335C8.93448 1.60031 9.00647 1.68919 9.05316 1.79165C9.09984 1.8941 9.11969 2.00675 9.11083 2.11899C9.09993 2.33587 9.051 2.54915 8.96627 2.7491L8.90697 2.93813L8.86991 3.02708C8.61419 3.77922 8.2387 4.48513 7.75795 5.11756L7.71347 5.16575C7.5615 5.16575 7.40953 5.14351 7.25386 5.14351C6.65174 5.14304 6.05519 5.25883 5.49697 5.48451C4.87835 4.76819 4.48167 3.88725 4.35536 2.94925ZM4.50362 7.02642C5.22973 6.30214 6.21345 5.89539 7.23903 5.89539C8.26462 5.89539 9.24834 6.30214 9.97445 7.02642C10.012 7.06216 10.0416 7.10536 10.0614 7.15324C10.0812 7.20112 10.0907 7.25262 10.0894 7.30441C10.0894 7.35603 10.0793 7.40714 10.0596 7.45484C10.0398 7.50254 10.0109 7.54589 9.97445 7.5824C9.93882 7.61878 9.89608 7.64743 9.84889 7.66657C9.8017 7.6857 9.75107 7.6949 9.70017 7.6936C9.42338 7.45702 9.11684 7.25765 8.78836 7.10056C8.31805 6.8264 7.78342 6.68194 7.23903 6.68194C6.69465 6.68194 6.16002 6.8264 5.68971 7.10056C5.36122 7.25765 5.05469 7.45702 4.7779 7.6936C4.70043 7.69398 4.6246 7.67123 4.56013 7.62826C4.49567 7.58529 4.44549 7.52406 4.41603 7.4524C4.38657 7.38074 4.37917 7.30193 4.39478 7.22604C4.41038 7.15015 4.44828 7.08065 4.50362 7.02642ZM10.7602 18.0089C10.8788 17.6152 10.924 17.2031 10.8937 16.7931C10.8843 16.6948 10.8363 16.6042 10.7602 16.5413C10.6841 16.4784 10.5861 16.4483 10.4878 16.4577C10.3895 16.467 10.2989 16.515 10.236 16.5911C10.1731 16.6673 10.143 16.7652 10.1524 16.8635C10.1783 17.1156 10.1524 17.8791 9.78171 18.2275C8.94557 18.4499 8.08161 18.5498 7.21679 18.5241C6.35926 18.5509 5.50247 18.451 4.67412 18.2275C4.30347 17.8828 4.30347 17.1341 4.30347 16.8635C4.31281 16.7652 4.28271 16.6673 4.2198 16.5911C4.1569 16.515 4.06633 16.467 3.96803 16.4577C3.86972 16.4483 3.77174 16.4784 3.69562 16.5413C3.61951 16.6042 3.5715 16.6948 3.56216 16.7931C3.53903 17.2045 3.5918 17.6166 3.71784 18.0089C0.915703 17.6382 1.23076 14.7805 1.24558 14.673V14.6248C1.22334 12.1563 3.89204 9.49497 5.12261 8.39413C5.293 8.33854 5.44704 8.24179 5.5711 8.11244C5.70321 7.98224 5.84998 7.86781 6.00847 7.77144C6.25326 7.65634 6.51265 7.57528 6.77942 7.53051C6.90212 7.51186 7.02598 7.50196 7.15008 7.50086H7.23903C7.38529 7.49716 7.53161 7.50584 7.6764 7.52681C7.94309 7.57193 8.20243 7.65298 8.44736 7.76773C8.61382 7.8638 8.76813 7.97953 8.90697 8.11244C9.03935 8.24336 9.20248 8.33894 9.3814 8.39043C10.6194 9.50238 13.2658 12.1525 13.2436 14.61V14.6582C13.2473 14.7768 13.5624 17.6345 10.7602 18.0089Z"/>
    </mask>
    <path d="M13.9738 14.5914C13.9738 12.1303 11.7313 9.60617 10.3192 8.2607C10.3838 8.21652 10.4446 8.16692 10.5008 8.11244C10.712 7.89874 10.8304 7.61041 10.8304 7.30997C10.8304 7.00953 10.712 6.7212 10.5008 6.50751C10.2917 6.2997 10.0634 6.11229 9.81878 5.94783L10.0782 5.79956C10.5496 5.55319 10.956 5.19885 11.2643 4.76544C11.4403 4.5039 11.53 4.19378 11.5207 3.87866C11.5114 3.56354 11.4036 3.25925 11.2124 3.00855C11.0464 2.83363 10.8412 2.70072 10.6137 2.6208C10.3862 2.54088 10.1429 2.51625 9.90403 2.54894L9.79283 2.56748C9.82784 2.42668 9.84772 2.28254 9.85213 2.13752C9.86806 1.88947 9.81609 1.64176 9.70181 1.42103C9.58752 1.2003 9.41525 1.01488 9.20349 0.884713C8.50296 0.495528 7.72088 0.97367 7.35023 1.18494L6.07519 1.95219C5.97511 2.0115 5.76754 2.14122 5.65635 2.11528C5.55259 2.06423 5.46145 1.99081 5.38948 1.9003C5.21634 1.69082 4.97943 1.54373 4.71489 1.48146C4.50666 1.46074 4.29729 1.50757 4.11773 1.61504C3.93817 1.72251 3.79796 1.8849 3.71784 2.07821C3.59609 2.38274 3.56144 2.71512 3.61776 3.0382C3.74326 4.06994 4.15545 5.04584 4.80755 5.85516C4.50699 6.04047 4.22845 6.25933 3.97729 6.50751C3.76521 6.72073 3.64616 7.00924 3.64616 7.30997C3.64616 7.61071 3.76521 7.89922 3.97729 8.11244C4.03262 8.16683 4.0935 8.21528 4.15891 8.25699C2.74673 9.60246 0.500572 12.1303 0.504279 14.5914C0.352311 15.8776 0.808214 18.3684 3.62147 18.7428C3.81712 18.7646 4.01055 18.803 4.19968 18.8577C5.08458 19.1305 6.00538 19.2692 6.93139 19.2691H7.22791C8.2601 19.2991 9.29031 19.1614 10.2784 18.8614C10.4675 18.8067 10.661 18.7683 10.8566 18.7465C13.6699 18.3684 14.1258 15.8776 13.9738 14.5914ZM9.21091 4.1131C9.24426 4.04267 9.27392 3.96854 9.30357 3.89812C9.3175 3.86915 9.32987 3.83945 9.34063 3.80916C9.37029 3.74244 9.39994 3.67202 9.42588 3.6053C9.45183 3.53858 9.45924 3.52747 9.47407 3.48669C9.48889 3.44592 9.50743 3.40515 9.52225 3.36808C9.67349 3.33079 9.82703 3.30355 9.98186 3.28654C10.1015 3.26705 10.2241 3.27565 10.3399 3.31167C10.4557 3.3477 10.5615 3.41015 10.649 3.49411C10.7359 3.62481 10.7822 3.77825 10.7822 3.93518C10.7822 4.09212 10.7359 4.24556 10.649 4.37626C10.4017 4.706 10.0822 4.97479 9.71499 5.16204C9.49261 5.2983 9.2581 5.41369 9.01446 5.50675C8.85844 5.443 8.69878 5.38854 8.53632 5.34366L8.56968 5.29177C8.62157 5.21764 8.67346 5.14351 8.72164 5.06567C8.73604 5.04594 8.74846 5.02484 8.75871 5.00266C8.80319 4.92853 8.84767 4.85811 8.88844 4.78398L8.92921 4.70985L9.04411 4.49116C9.04411 4.46892 9.06635 4.44298 9.08118 4.41703C9.096 4.39109 9.1516 4.27248 9.18496 4.19835L9.21091 4.1131ZM4.35536 2.94925C4.31838 2.7602 4.33115 2.56478 4.39242 2.38215C4.4369 2.28207 4.53698 2.20424 4.59999 2.21165C4.70413 2.26042 4.79549 2.33275 4.86686 2.42292C5.03136 2.61788 5.24899 2.76082 5.49326 2.83435C5.66351 2.85881 5.83691 2.84947 6.00354 2.80686C6.17017 2.76425 6.32677 2.6892 6.46437 2.58601C6.89433 2.33396 7.31687 2.07821 7.75054 1.81505C8.12119 1.60007 8.55485 1.37027 8.84396 1.53335C8.93448 1.60031 9.00647 1.68919 9.05316 1.79165C9.09984 1.8941 9.11969 2.00675 9.11083 2.11899C9.09993 2.33587 9.051 2.54915 8.96627 2.7491L8.90697 2.93813L8.86991 3.02708C8.61419 3.77922 8.2387 4.48513 7.75795 5.11756L7.71347 5.16575C7.5615 5.16575 7.40953 5.14351 7.25386 5.14351C6.65174 5.14304 6.05519 5.25883 5.49697 5.48451C4.87835 4.76819 4.48167 3.88725 4.35536 2.94925ZM4.50362 7.02642C5.22973 6.30214 6.21345 5.89539 7.23903 5.89539C8.26462 5.89539 9.24834 6.30214 9.97445 7.02642C10.012 7.06216 10.0416 7.10536 10.0614 7.15324C10.0812 7.20112 10.0907 7.25262 10.0894 7.30441C10.0894 7.35603 10.0793 7.40714 10.0596 7.45484C10.0398 7.50254 10.0109 7.54589 9.97445 7.5824C9.93882 7.61878 9.89608 7.64743 9.84889 7.66657C9.8017 7.6857 9.75107 7.6949 9.70017 7.6936C9.42338 7.45702 9.11684 7.25765 8.78836 7.10056C8.31805 6.8264 7.78342 6.68194 7.23903 6.68194C6.69465 6.68194 6.16002 6.8264 5.68971 7.10056C5.36122 7.25765 5.05469 7.45702 4.7779 7.6936C4.70043 7.69398 4.6246 7.67123 4.56013 7.62826C4.49567 7.58529 4.44549 7.52406 4.41603 7.4524C4.38657 7.38074 4.37917 7.30193 4.39478 7.22604C4.41038 7.15015 4.44828 7.08065 4.50362 7.02642ZM10.7602 18.0089C10.8788 17.6152 10.924 17.2031 10.8937 16.7931C10.8843 16.6948 10.8363 16.6042 10.7602 16.5413C10.6841 16.4784 10.5861 16.4483 10.4878 16.4577C10.3895 16.467 10.2989 16.515 10.236 16.5911C10.1731 16.6673 10.143 16.7652 10.1524 16.8635C10.1783 17.1156 10.1524 17.8791 9.78171 18.2275C8.94557 18.4499 8.08161 18.5498 7.21679 18.5241C6.35926 18.5509 5.50247 18.451 4.67412 18.2275C4.30347 17.8828 4.30347 17.1341 4.30347 16.8635C4.31281 16.7652 4.28271 16.6673 4.2198 16.5911C4.1569 16.515 4.06633 16.467 3.96803 16.4577C3.86972 16.4483 3.77174 16.4784 3.69562 16.5413C3.61951 16.6042 3.5715 16.6948 3.56216 16.7931C3.53903 17.2045 3.5918 17.6166 3.71784 18.0089C0.915703 17.6382 1.23076 14.7805 1.24558 14.673V14.6248C1.22334 12.1563 3.89204 9.49497 5.12261 8.39413C5.293 8.33854 5.44704 8.24179 5.5711 8.11244C5.70321 7.98224 5.84998 7.86781 6.00847 7.77144C6.25326 7.65634 6.51265 7.57528 6.77942 7.53051C6.90212 7.51186 7.02598 7.50196 7.15008 7.50086H7.23903C7.38529 7.49716 7.53161 7.50584 7.6764 7.52681C7.94309 7.57193 8.20243 7.65298 8.44736 7.76773C8.61382 7.8638 8.76813 7.97953 8.90697 8.11244C9.03935 8.24336 9.20248 8.33894 9.3814 8.39043C10.6194 9.50238 13.2658 12.1525 13.2436 14.61V14.6582C13.2473 14.7768 13.5624 17.6345 10.7602 18.0089Z" fill="#CCCCCC"/>
    <path d="M13.9738 14.5914C13.9738 12.1303 11.7313 9.60617 10.3192 8.2607C10.3838 8.21652 10.4446 8.16692 10.5008 8.11244C10.712 7.89874 10.8304 7.61041 10.8304 7.30997C10.8304 7.00953 10.712 6.7212 10.5008 6.50751C10.2917 6.2997 10.0634 6.11229 9.81878 5.94783L10.0782 5.79956C10.5496 5.55319 10.956 5.19885 11.2643 4.76544C11.4403 4.5039 11.53 4.19378 11.5207 3.87866C11.5114 3.56354 11.4036 3.25925 11.2124 3.00855C11.0464 2.83363 10.8412 2.70072 10.6137 2.6208C10.3862 2.54088 10.1429 2.51625 9.90403 2.54894L9.79283 2.56748C9.82784 2.42668 9.84772 2.28254 9.85213 2.13752C9.86806 1.88947 9.81609 1.64176 9.70181 1.42103C9.58752 1.2003 9.41525 1.01488 9.20349 0.884713C8.50296 0.495528 7.72088 0.97367 7.35023 1.18494L6.07519 1.95219C5.97511 2.0115 5.76754 2.14122 5.65635 2.11528C5.55259 2.06423 5.46145 1.99081 5.38948 1.9003C5.21634 1.69082 4.97943 1.54373 4.71489 1.48146C4.50666 1.46074 4.29729 1.50757 4.11773 1.61504C3.93817 1.72251 3.79796 1.8849 3.71784 2.07821C3.59609 2.38274 3.56144 2.71512 3.61776 3.0382C3.74326 4.06994 4.15545 5.04584 4.80755 5.85516C4.50699 6.04047 4.22845 6.25933 3.97729 6.50751C3.76521 6.72073 3.64616 7.00924 3.64616 7.30997C3.64616 7.61071 3.76521 7.89922 3.97729 8.11244C4.03262 8.16683 4.0935 8.21528 4.15891 8.25699C2.74673 9.60246 0.500572 12.1303 0.504279 14.5914C0.352311 15.8776 0.808214 18.3684 3.62147 18.7428C3.81712 18.7646 4.01055 18.803 4.19968 18.8577C5.08458 19.1305 6.00538 19.2692 6.93139 19.2691H7.22791C8.2601 19.2991 9.29031 19.1614 10.2784 18.8614C10.4675 18.8067 10.661 18.7683 10.8566 18.7465C13.6699 18.3684 14.1258 15.8776 13.9738 14.5914ZM9.21091 4.1131C9.24426 4.04267 9.27392 3.96854 9.30357 3.89812C9.3175 3.86915 9.32987 3.83945 9.34063 3.80916C9.37029 3.74244 9.39994 3.67202 9.42588 3.6053C9.45183 3.53858 9.45924 3.52747 9.47407 3.48669C9.48889 3.44592 9.50743 3.40515 9.52225 3.36808C9.67349 3.33079 9.82703 3.30355 9.98186 3.28654C10.1015 3.26705 10.2241 3.27565 10.3399 3.31167C10.4557 3.3477 10.5615 3.41015 10.649 3.49411C10.7359 3.62481 10.7822 3.77825 10.7822 3.93518C10.7822 4.09212 10.7359 4.24556 10.649 4.37626C10.4017 4.706 10.0822 4.97479 9.71499 5.16204C9.49261 5.2983 9.2581 5.41369 9.01446 5.50675C8.85844 5.443 8.69878 5.38854 8.53632 5.34366L8.56968 5.29177C8.62157 5.21764 8.67346 5.14351 8.72164 5.06567C8.73604 5.04594 8.74846 5.02484 8.75871 5.00266C8.80319 4.92853 8.84767 4.85811 8.88844 4.78398L8.92921 4.70985L9.04411 4.49116C9.04411 4.46892 9.06635 4.44298 9.08118 4.41703C9.096 4.39109 9.1516 4.27248 9.18496 4.19835L9.21091 4.1131ZM4.35536 2.94925C4.31838 2.7602 4.33115 2.56478 4.39242 2.38215C4.4369 2.28207 4.53698 2.20424 4.59999 2.21165C4.70413 2.26042 4.79549 2.33275 4.86686 2.42292C5.03136 2.61788 5.24899 2.76082 5.49326 2.83435C5.66351 2.85881 5.83691 2.84947 6.00354 2.80686C6.17017 2.76425 6.32677 2.6892 6.46437 2.58601C6.89433 2.33396 7.31687 2.07821 7.75054 1.81505C8.12119 1.60007 8.55485 1.37027 8.84396 1.53335C8.93448 1.60031 9.00647 1.68919 9.05316 1.79165C9.09984 1.8941 9.11969 2.00675 9.11083 2.11899C9.09993 2.33587 9.051 2.54915 8.96627 2.7491L8.90697 2.93813L8.86991 3.02708C8.61419 3.77922 8.2387 4.48513 7.75795 5.11756L7.71347 5.16575C7.5615 5.16575 7.40953 5.14351 7.25386 5.14351C6.65174 5.14304 6.05519 5.25883 5.49697 5.48451C4.87835 4.76819 4.48167 3.88725 4.35536 2.94925ZM4.50362 7.02642C5.22973 6.30214 6.21345 5.89539 7.23903 5.89539C8.26462 5.89539 9.24834 6.30214 9.97445 7.02642C10.012 7.06216 10.0416 7.10536 10.0614 7.15324C10.0812 7.20112 10.0907 7.25262 10.0894 7.30441C10.0894 7.35603 10.0793 7.40714 10.0596 7.45484C10.0398 7.50254 10.0109 7.54589 9.97445 7.5824C9.93882 7.61878 9.89608 7.64743 9.84889 7.66657C9.8017 7.6857 9.75107 7.6949 9.70017 7.6936C9.42338 7.45702 9.11684 7.25765 8.78836 7.10056C8.31805 6.8264 7.78342 6.68194 7.23903 6.68194C6.69465 6.68194 6.16002 6.8264 5.68971 7.10056C5.36122 7.25765 5.05469 7.45702 4.7779 7.6936C4.70043 7.69398 4.6246 7.67123 4.56013 7.62826C4.49567 7.58529 4.44549 7.52406 4.41603 7.4524C4.38657 7.38074 4.37917 7.30193 4.39478 7.22604C4.41038 7.15015 4.44828 7.08065 4.50362 7.02642ZM10.7602 18.0089C10.8788 17.6152 10.924 17.2031 10.8937 16.7931C10.8843 16.6948 10.8363 16.6042 10.7602 16.5413C10.6841 16.4784 10.5861 16.4483 10.4878 16.4577C10.3895 16.467 10.2989 16.515 10.236 16.5911C10.1731 16.6673 10.143 16.7652 10.1524 16.8635C10.1783 17.1156 10.1524 17.8791 9.78171 18.2275C8.94557 18.4499 8.08161 18.5498 7.21679 18.5241C6.35926 18.5509 5.50247 18.451 4.67412 18.2275C4.30347 17.8828 4.30347 17.1341 4.30347 16.8635C4.31281 16.7652 4.28271 16.6673 4.2198 16.5911C4.1569 16.515 4.06633 16.467 3.96803 16.4577C3.86972 16.4483 3.77174 16.4784 3.69562 16.5413C3.61951 16.6042 3.5715 16.6948 3.56216 16.7931C3.53903 17.2045 3.5918 17.6166 3.71784 18.0089C0.915703 17.6382 1.23076 14.7805 1.24558 14.673V14.6248C1.22334 12.1563 3.89204 9.49497 5.12261 8.39413C5.293 8.33854 5.44704 8.24179 5.5711 8.11244C5.70321 7.98224 5.84998 7.86781 6.00847 7.77144C6.25326 7.65634 6.51265 7.57528 6.77942 7.53051C6.90212 7.51186 7.02598 7.50196 7.15008 7.50086H7.23903C7.38529 7.49716 7.53161 7.50584 7.6764 7.52681C7.94309 7.57193 8.20243 7.65298 8.44736 7.76773C8.61382 7.8638 8.76813 7.97953 8.90697 8.11244C9.03935 8.24336 9.20248 8.33894 9.3814 8.39043C10.6194 9.50238 13.2658 12.1525 13.2436 14.61V14.6582C13.2473 14.7768 13.5624 17.6345 10.7602 18.0089Z" stroke="#CCCCCC" stroke-width="0.4" mask="url(#path-1-outside-1_1_4032)"/>
    <path d="M4.00346 13.4868H5.85673C5.98155 13.4868 6.10126 13.4372 6.18953 13.349C6.27779 13.2607 6.32738 13.141 6.32738 13.0162C6.32738 12.8913 6.27779 12.7716 6.18953 12.6834C6.10126 12.5951 5.98155 12.5455 5.85673 12.5455H4.00346C3.87864 12.5455 3.75893 12.5951 3.67066 12.6834C3.5824 12.7716 3.53281 12.8913 3.53281 13.0162C3.53281 13.141 3.5824 13.2607 3.67066 13.349C3.75893 13.4372 3.87864 13.4868 4.00346 13.4868Z" fill="#CCCCCC" stroke="#CCCCCC" stroke-width="0.2"/>
    <path d="M7.35008 14.3988H4.01421C3.88938 14.3988 3.76967 14.4484 3.68141 14.5366C3.59314 14.6249 3.54355 14.7446 3.54355 14.8694C3.54355 14.9943 3.59314 15.114 3.68141 15.2022C3.76967 15.2905 3.88938 15.3401 4.01421 15.3401H7.35008C7.4749 15.3401 7.59462 15.2905 7.68288 15.2022C7.77115 15.114 7.82073 14.9943 7.82073 14.8694C7.82073 14.7446 7.77115 14.6249 7.68288 14.5366C7.59462 14.4484 7.4749 14.3988 7.35008 14.3988Z" fill="#CCCCCC" stroke="#CCCCCC" stroke-width="0.2"/>
</svg>
