<svg width="32" height="32" viewBox="0 0 39 39" fill="none" xmlns="http://www.w3.org/2000/svg">
<path d="M23.9997 25.8332H24.4997V25.3332V21.1732H24.4997L24.4996 21.1671C24.4943 20.7235 24.393 20.2864 24.2027 19.8857C24.0123 19.485 23.7375 19.1302 23.3971 18.8457C23.0567 18.5613 22.6587 18.3539 22.2306 18.2379C21.8024 18.1218 21.3542 18.0998 20.9167 18.1734L20.7739 18.1974L20.666 18.2941L16.5593 21.9741L16.558 21.9753C16.4049 22.1135 16.2059 22.19 15.9997 22.19C15.7934 22.19 15.5945 22.1135 15.4413 21.9753L15.44 21.9741L11.3334 18.2941L11.2255 18.1974L11.0826 18.1734C10.6451 18.0998 10.1969 18.1218 9.76877 18.2379C9.34061 18.3539 8.94265 18.5613 8.60223 18.8457C8.26181 19.1302 7.987 19.485 7.79669 19.8857C7.60637 20.2864 7.50506 20.7235 7.49971 21.1671L7.49967 21.1671V21.1732V25.3332V25.8332H7.99967H17.333C17.554 25.8332 17.766 25.9209 17.9223 26.0772C18.0785 26.2335 18.1663 26.4455 18.1663 26.6665C18.1663 26.8875 18.0785 27.0995 17.9223 27.2557C17.766 27.412 17.554 27.4998 17.333 27.4998H6.66634C6.44533 27.4998 6.23337 27.412 6.07709 27.2557C5.92081 27.0995 5.83301 26.8875 5.83301 26.6665V21.1741C5.83588 20.4426 6.00757 19.7216 6.3347 19.0672C6.66196 18.4126 7.13597 17.8424 7.71976 17.4011C8.30357 16.9597 8.98139 16.6591 9.70043 16.5227C10.4153 16.3871 11.1518 16.4175 11.853 16.6113C11.9765 16.6536 12.091 16.7186 12.1906 16.803L15.6659 19.9188L16.0003 20.2186L16.3342 19.9181L19.7943 16.804C19.8971 16.7185 20.0153 16.6534 20.1426 16.6124C20.8449 16.4176 21.5827 16.3869 22.2989 16.5227C23.018 16.6591 23.6958 16.9597 24.2796 17.4011C24.8634 17.8424 25.3374 18.4126 25.6646 19.0672C25.9918 19.7215 26.1635 20.4425 26.1663 21.174V26.6665C26.1663 26.8875 26.0785 27.0995 25.9223 27.2557C25.766 27.412 25.554 27.4998 25.333 27.4998H22.6663C22.4453 27.4998 22.2334 27.412 22.0771 27.2557C21.9208 27.0995 21.833 26.8875 21.833 26.6665C21.833 26.4455 21.9208 26.2335 22.0771 26.0772C22.2334 25.9209 22.4453 25.8332 22.6663 25.8332H23.9997Z" stroke="#7B43F5" stroke-width="2.4" stroke-linejoin="round"/>
<path d="M15.9997 16.8333C14.78 16.8333 13.5878 16.4717 12.5737 15.7941C11.5596 15.1165 10.7692 14.1534 10.3024 13.0266C9.83568 11.8997 9.71356 10.6598 9.9515 9.46361C10.1894 8.2674 10.7768 7.1686 11.6392 6.30618C12.5016 5.44375 13.6004 4.85644 14.7966 4.61849C15.9928 4.38055 17.2327 4.50267 18.3596 4.96941C19.4864 5.43615 20.4495 6.22655 21.1271 7.24065C21.8047 8.25476 22.1663 9.44702 22.1663 10.6667C22.1663 12.3022 21.5166 13.8707 20.3602 15.0272C19.2037 16.1836 17.6352 16.8333 15.9997 16.8333ZM15.9997 6.16667C15.1097 6.16667 14.2396 6.43059 13.4996 6.92506C12.7596 7.41952 12.1828 8.12233 11.8422 8.94459C11.5016 9.76686 11.4125 10.6717 11.5861 11.5446C11.7598 12.4175 12.1884 13.2193 12.8177 13.8487C13.447 14.478 14.2489 14.9066 15.1218 15.0802C15.9947 15.2538 16.8995 15.1647 17.7218 14.8241C18.544 14.4835 19.2468 13.9068 19.7413 13.1667C20.2358 12.4267 20.4997 11.5567 20.4997 10.6667C20.4997 9.4732 20.0256 8.3286 19.1817 7.48469C18.3377 6.64078 17.1932 6.16667 15.9997 6.16667Z" fill="#7B43F5"/>
</svg>
