<svg width="17" height="17" viewBox="0 0 17 17" fill="none" xmlns="http://www.w3.org/2000/svg">
<path d="M16.1054 1.2407H15.406V0.755004C15.406 0.465564 15.1718 0.231934 14.8827 0.231934C14.594 0.231934 14.3598 0.465732 14.3598 0.755004V1.24053H13.9863V0.755004C13.9863 0.465564 13.7523 0.231934 13.4632 0.231934C13.1746 0.231934 12.9405 0.465732 12.9405 0.755004V1.24053H12.5669V0.755004C12.5669 0.465564 12.3328 0.231934 12.0438 0.231934C11.7547 0.231934 11.5207 0.465732 11.5207 0.755004V1.24053H11.1472V0.755004C11.1472 0.465564 10.9129 0.231934 10.6241 0.231934C10.3352 0.231934 10.1012 0.465732 10.1012 0.755004V1.24053H9.72762V0.755004C9.72762 0.465564 9.49349 0.231934 9.20455 0.231934C8.91578 0.231934 8.68165 0.465732 8.68165 0.755004V1.24053H8.30807V0.755004C8.30807 0.465564 8.07394 0.231934 7.785 0.231934C7.49623 0.231934 7.26193 0.465732 7.26193 0.755004V1.24053H6.88836V0.755004C6.88836 0.465564 6.65422 0.231934 6.36529 0.231934C6.07635 0.231934 5.84238 0.465732 5.84238 0.755004V1.24053H5.46881V0.755004C5.46881 0.465564 5.23468 0.231934 4.94574 0.231934C4.6568 0.231934 4.42267 0.465732 4.42267 0.755004V1.24053H4.04909V0.755004C4.04909 0.465564 3.81496 0.231934 3.52602 0.231934C3.23708 0.231934 3.00295 0.465732 3.00295 0.755004V1.24053H2.62938V0.755004C2.62938 0.465564 2.39524 0.231934 2.10614 0.231934C1.81737 0.231934 1.58324 0.465732 1.58324 0.755004V1.24053H1.19542C0.701339 1.24053 0.300781 1.68567 0.300781 2.23489V15.4384C0.300781 15.9871 0.701339 16.4327 1.19542 16.4327H16.1054C16.5993 16.4327 17 15.9872 17 15.4384V2.23506C17 1.68584 16.5993 1.2407 16.1054 1.2407ZM3.31435 14.9134H1.7205V13.3196H3.31435V14.9134ZM3.31435 12.9707H1.7205V11.3771H3.31435V12.9707ZM3.31435 11.0284H1.7205V9.43436H3.31435V11.0284ZM3.31435 9.08576H1.7205V7.49174H3.31435V9.08576ZM3.31435 7.14331H1.7205V5.54895H3.31435V7.14331ZM5.33423 14.9134H3.74038V13.3196H5.33423V14.9134ZM5.33423 12.9707H3.74038V11.3771H5.33423V12.9707ZM5.33423 11.0284H3.74038V9.43436H5.33423V11.0284ZM5.33423 9.08576H3.74038V7.49174H5.33423V9.08576ZM5.33423 7.14331H3.74038V5.54895H5.33423V7.14331ZM7.35428 14.9134H5.76026V13.3196H7.35428V14.9134ZM7.35428 12.9707H5.76026V11.3771H7.35428V12.9707ZM7.35428 11.0284H5.76026V9.43436H7.35428V11.0284ZM7.35428 9.08576H5.76026V7.49174H7.35428V9.08576ZM7.35428 7.14331H5.76026V5.54895H7.35428V7.14331ZM9.37399 14.9134H7.78014V13.3196H9.37399V14.9134ZM11.394 14.9134H9.80019V13.3196H11.394V14.9134ZM13.4139 14.9134H11.8199V13.3196H13.4139V14.9134ZM13.4139 9.08576H12.9762L13.1831 9.43453H13.4139V11.0285H13.1976L13.1784 11.0602L12.9881 11.3773H13.4139V12.9708H11.8199V11.8514L11.3939 11.5756V12.8111L11.394 12.8151L11.3939 12.9705H9.80002V11.5905L9.37382 11.8617V12.9705H7.77998V11.3771H8.27807L8.07126 11.0284H7.77998V9.43436H8.01763L8.024 9.42397L8.22863 9.08559H7.77998V7.49157H9.37382V8.59671L9.80002 8.86621V7.49157H11.3939V8.91448L11.8199 8.64632V7.49141H13.4139V9.08576ZM7.78014 7.14331V5.54895H9.37399V7.14331H7.78014ZM9.80019 7.14331V5.54895H11.394V7.14331H9.80019ZM13.4139 7.14331H11.8199V5.54895H13.4139V7.14331ZM15.4338 14.9134H13.8398V13.3196H15.4338V14.9134ZM15.4338 12.9707H13.8398V11.3771H15.4338V12.9707ZM15.4338 11.0284H13.8398V9.43436H15.4338V11.0284ZM15.4338 9.08576H13.8398V7.49174H15.4338V9.08576ZM15.4338 7.14331H13.8398V5.54895H15.4338V7.14331ZM15.4338 5.12577H1.69536V2.95908H15.4338V5.12577Z" fill="#C8C8C8"/>
<path d="M11.8202 8.84423L11.1639 9.25719L11.2338 7.75183H9.96729L10.0322 9.08557L10.0384 9.21495L9.83372 9.08557H9.83355L9.80037 9.06445L9.37417 8.79479L8.81473 8.44099L8.42506 9.08557H8.42473L8.21389 9.43434H8.21406L8.16797 9.51076L9.37417 10.1728L9.47506 10.2282L9.37417 10.2844L8.20903 10.9313L8.26635 11.0282L8.47316 11.377H8.47333L8.84322 12.0008L10.0384 11.2405L10.0301 11.377H10.0303L9.95372 12.6475H11.2201L11.1639 11.2271L11.6247 11.5251L12.4018 12.0282L13.0352 10.9739L11.8202 10.3017L11.7126 10.2423L13.0499 9.53791L12.4157 8.46982L11.8202 8.84457V8.84423Z" fill="#C8C8C8"/>
</svg>
