<svg width="25" height="18" viewBox="0 0 25 18" fill="none" xmlns="http://www.w3.org/2000/svg">
<path d="M0.568359 1.5C0.568359 0.670312 1.2271 0 2.04247 0H19.7318C20.5471 0 21.2059 0.670312 21.2059 1.5C21.2059 2.32969 20.5471 3 19.7318 3H2.04247C1.2271 3 0.568359 2.32969 0.568359 1.5ZM3.51657 9C3.51657 8.17031 4.17532 7.5 4.99068 7.5H22.68C23.4953 7.5 24.1541 8.17031 24.1541 9C24.1541 9.82969 23.4953 10.5 22.68 10.5H4.99068C4.17532 10.5 3.51657 9.82969 3.51657 9ZM21.2059 16.5C21.2059 17.3297 20.5471 18 19.7318 18H2.04247C1.2271 18 0.568359 17.3297 0.568359 16.5C0.568359 15.6703 1.2271 15 2.04247 15H19.7318C20.5471 15 21.2059 15.6703 21.2059 16.5Z" fill="white"/>
</svg>
